STARTFONT 2.1
COMMENT
COMMENT Converted from OpenType font "Q:\font stuff\winfont\Astute Caps.ttf" by "otf2bdf 3.0".
COMMENT
FONT -FreeType-Astute Caps-Medium-R-Normal--161-1620-72-72-P-340-ISO10646-1
SIZE 162 72 72
FONTBOUNDINGBOX 200 166 -12 -23
STARTPROPERTIES 19
FOUNDRY "FreeType"
FAMILY_NAME "Astute Caps"
WEIGHT_NAME "Medium"
SLANT "R"
SETWIDTH_NAME "Normal"
ADD_STYLE_NAME ""
PIXEL_SIZE 161
POINT_SIZE 1620
RESOLUTION_X 72
RESOLUTION_Y 72
SPACING "P"
AVERAGE_WIDTH 340
CHARSET_REGISTRY "ISO10646"
CHARSET_ENCODING "1"
FONT_ASCENT 114
FONT_DESCENT 3
COPYRIGHT "From the WSI-FONTS Collection.  Copyright (c)1992 W.S.I.  All Rights Reserved.  Redistribution strictly prohibited."
_OTF_FONTFILE "Q:\font stuff\winfont\Astute Caps.ttf"
_OTF_PSNAME "AstuteCaps"
ENDPROPERTIES
CHARS 226
STARTCHAR 0020
ENCODING 32
SWIDTH 141 0
DWIDTH 23 0
BBX 0 0 0 0
BITMAP
ENDCHAR
STARTCHAR 0021
ENCODING 33
SWIDTH 141 0
DWIDTH 23 0
BBX 11 114 6 -1
BITMAP
0E00
1F00
3F80
3F80
3F80
3F80
3F80
3F80
3F80
3F80
3F80
3F80
3F80
3F80
3F80
3F80
3F80
3F80
3F80
3F80
3F80
3F80
3F80
3F80
3F80
3F80
3F80
3F80
3F80
3F80
3F80
3F80
3F80
3F80
3F80
3F80
3F80
3F80
3F80
3F80
3F80
3F80
3F80
3F80
3F80
3F80
3F80
3F80
3F80
3F80
3F80
3F80
3F80
3F80
3F80
3F80
3F80
3F80
3F80
3F80
3F80
3F80
3F80
3F80
3F80
3F80
3F80
3F80
3F80
3F80
3F80
3F80
3F80
3F80
3F80
3F80
3F80
3F80
3F80
3F80
3F80
3F80
3F80
3F80
3F80
3F80
3F80
3F80
3F80
3F80
3F80
3F80
3F80
3F80
3F80
3F80
3F80
3F80
3F80
3F80
3F80
1F00
0000
0400
3F80
7FC0
FFC0
FFE0
FFE0
FFE0
FFE0
7FC0
3FC0
1F00
ENDCHAR
STARTCHAR 0022
ENCODING 34
SWIDTH 209 0
DWIDTH 34 0
BBX 19 33 8 79
BITMAP
380380
7C07C0
FE0FE0
FE0FE0
FE0FE0
FE0FE0
FE0FE0
FE0FE0
FE0FE0
FE0FE0
FE0FE0
FE0FE0
FE0FE0
FE0FE0
FE0FE0
FE0FE0
FE0FE0
FE0FE0
FE0FE0
FE0FE0
FE0FE0
FE0FE0
FE0FE0
FE0FE0
FE0FE0
FE0FE0
FE0FE0
FE0FE0
FE0FE0
FE0FE0
FE0FE0
FE0FE0
7C07C0
ENDCHAR
STARTCHAR 0023
ENCODING 35
SWIDTH 240 0
DWIDTH 39 0
BBX 37 114 1 -1
BITMAP
001E000700
001F000F80
003F000F80
003F000FC0
003F000FC0
003F001FC0
003F001FC0
003F001FC0
003F001F80
007F001F80
007F001F80
007F001F80
007F001F80
007F001F80
007E001F80
007E001F80
007E003F80
007E003F80
007E003F80
00FE003F80
00FE003F80
00FE003F00
00FE003F00
00FE003F00
00FE003F00
00FE003F00
00FE007F00
00FC007F00
00FC007F00
01FC007F00
01FC007F00
01FC007F00
01FC007F00
01FC007E00
0FFFFFFFE0
1FFFFFFFF8
3FFFFFFFF8
3FFFFFFFF8
1FFFFFFFF0
0FFFFFFFE0
01F800FE00
01F800FE00
03F800FE00
03F800FE00
03F800FE00
03F800FE00
03F800FC00
03F800FC00
03F801FC00
03F801FC00
03F001FC00
03F001FC00
03F001FC00
07F001FC00
07F001FC00
07F001FC00
07F001F800
07F001F800
07F001F800
07F003F800
7FFFFFFF80
FFFFFFFFC0
FFFFFFFFC0
FFFFFFFFE0
FFFFFFFFC0
7FFFFFFF00
0FE003F800
0FE003F800
0FE003F800
0FE003F800
0FE003F000
0FE003F000
0FE003F000
0FE003F000
0FC007F000
0FC007F000
0FC007F000
1FC007F000
1FC007F000
1FC007F000
1FC007F000
1FC007F000
1FC007E000
1FC007E000
1FC007E000
1FC007E000
1F8007E000
1F800FE000
1F800FE000
1F800FE000
3F800FE000
3F800FE000
3F800FE000
3F800FE000
3F800FE000
3F800FC000
3F800FC000
3F800FC000
3F000FC000
3F001FC000
3F001FC000
3F001FC000
3F001FC000
7F001FC000
7F001FC000
7F001FC000
7F001FC000
7F001F8000
7F001F8000
7F001F8000
7E001F8000
7E001F8000
3E001F8000
1C000E0000
ENDCHAR
STARTCHAR 0024
ENCODING 36
SWIDTH 240 0
DWIDTH 39 0
BBX 31 121 4 -6
BITMAP
00078000
0007C000
000FC000
003FFE00
00FFFF00
03FFFFC0
07FFFFE0
0FFFFFE0
1FFFFFF0
1FEFCFF0
3FCFC3F8
3F8FC1F8
7F0FC1FC
7F0FC1FC
7F0FC0FC
7E0FC0FC
FE0FC0FC
FE0FC0FC
FE0FC0FE
FE0FC0FE
FE0FC0FE
FE0FC0FE
FE0FC0FE
FE0FC0FE
FE0FC0FE
FE0FC0FE
FE0FC0FE
FE0FC0FE
FE0FC07C
FE0FC07C
FE0FC000
FE0FC000
FE0FC000
FE0FC000
FE0FC000
FE0FC000
FE0FC000
FE0FC000
FE0FC000
FE0FC000
FE0FC000
FE0FC000
FE0FC000
FE0FC000
FE0FC000
FE0FC000
FE0FC000
FE0FC000
FE0FC000
FE0FC000
FE0FC000
FE0FC000
FE0FC000
FE0FC000
FE0FC000
FE0FC000
FE0FC000
FE0FC000
FE0FC000
FE0FC000
FE0FC000
FE0FC000
7E0FC000
7E0FC000
7F0FC000
7F8FC000
3FFFC000
3FFFE000
1FFFFE00
0FFFFF80
07FFFFC0
01FFFFE0
003FFFF0
000FFFF0
000FCFF8
000FC7F8
000FC3F8
000FC3F8
000FC1FC
000FC1FC
000FC1FC
000FC1FC
000FC1FC
000FC1FC
000FC1FC
000FC1FC
000FC1FC
000FC1FC
300FC1FC
7C0FC1FC
FC0FC1FC
FE0FC1FC
FE0FC1FC
FE0FC1FC
FE0FC1FC
FE0FC1FC
FE0FC1FC
FE0FC1FC
FE0FC1FC
FE0FC1FC
FE0FC1FC
FE0FC1FC
FE0FC1FC
FE0FC1FC
FE0FC1FC
7E0FC1FC
7F0FC3F8
7F0FC3F8
7F8FC3F8
3FCFC7F0
3FFFDFF0
1FFFFFE0
0FFFFFE0
07FFFFC0
03FFFF80
00FFFF00
001FFC00
000FC000
000FC000
000FC000
00078000
ENDCHAR
STARTCHAR 0025
ENCODING 37
SWIDTH 506 0
DWIDTH 82 0
BBX 61 116 11 -2
BITMAP
03F8000000E00000
0FFE000001F00000
1FFF000001F00000
3FFF800003F00000
7FFFC00003F00000
7E0FC00003F00000
7E07C00003F00000
FC07E00003E00000
FC07E00007E00000
FC07E00007E00000
FC07E00007E00000
FC07E00007E00000
FC07E00007C00000
FC07E0000FC00000
FC07E0000FC00000
FC07E0000FC00000
FC07E0000FC00000
FC07E0000F800000
FC07E0001F800000
FC07E0001F800000
FC07E0001F800000
FC07E0001F800000
FC07E0001F000000
FC07E0003F000000
FC07E0003F000000
FC07E0003F000000
FC07E0003F000000
FC07E0007E000000
FC07E0007E000000
FC07E0007E000000
FC07E0007E000000
FC07E0007E000000
FC07E000FC000000
FC07E000FC000000
FC07E000FC000000
FC07E000FC000000
FC07E000FC000000
FC07E001F8000000
FC07E001F8000000
FC07E001F8000000
FC07E001F8000000
FC07E001F8000000
FC07E003F0000000
FC07E003F0000000
FC07E003F0000000
FC07E003F0000000
FC07E003E0000000
FC07E007E003FF00
FC07E007E007FFC0
FC07E007E00FFFE0
FC07E007E01FFFE0
FC07E007C03FFFF0
FC07E00FC03F03F0
FC07E00FC03F03F0
FC07E00FC07E01F8
FC07E00FC07E01F8
FC07E00F807E01F8
FC07E01F807E01F8
FC07E01F807E01F8
FC07E01F807E01F8
FC07E01F807E01F8
FC0FE01F007E01F8
7E0FC03F007E01F8
7F3FC03F007E01F8
7FFFC03F007E01F8
3FFF803F007E01F8
3FFF003E007E01F8
1FFE007E007E01F8
03F8007E007E01F8
0000007E007E01F8
0000007E007E01F8
0000007C007E01F8
000000FC007E01F8
000000FC007E01F8
000000FC007E01F8
000000FC007E01F8
000000F8007E01F8
000001F8007E01F8
000001F8007E01F8
000001F8007E01F8
000001F8007E01F8
000001F0007E01F8
000003F0007E01F8
000003F0007E01F8
000003F0007E01F8
000003F0007E01F8
000003E0007E01F8
000007E0007E01F8
000007E0007E01F8
000007E0007E01F8
000007E0007E01F8
000007C0007E01F8
00000FC0007E01F8
00000FC0007E01F8
00000FC0007E01F8
00000FC0007E01F8
00001F80007E01F8
00001F80007E01F8
00001F80007E01F8
00001F80007E01F8
00001F80007E01F8
00003F00007E01F8
00003F00007E01F8
00003F00007E01F8
00003F00007E01F8
00003F00007E01F8
00007E00007E01F8
00007E00007E01F8
00007E00007E03F0
00007E00003F03F0
00007E00003F8FF0
0000FC00001FFFE0
0000FC00001FFFE0
0000FC00000FFFC0
000078000007FF80
000070000001FC00
ENDCHAR
STARTCHAR 0026
ENCODING 38
SWIDTH 240 0
DWIDTH 39 0
BBX 35 116 3 -2
BITMAP
001FF00000
00FFFE0000
03FFFF8000
07FFFFC000
0FFFFFE000
1FFFFFF000
3FE00FF800
3F8003F800
7F8001FC00
7F0001FC00
7F0000FC00
FE0000FC00
FE0000FE00
FE0000FE00
FE0000FE00
FE0000FE00
FE0000FE00
FE0000FE00
FE0000FE00
FE0000FE00
FE0000FE00
FE0000FE00
FE0000FE00
FE0000FE00
FE0000FE00
FE00007E00
FE00007C00
FE00000000
FE00000000
FE00000000
FE00000000
FE00000000
FE00000000
FE00000000
FE00000000
FE00000000
FE00000000
FE00000000
FE00000000
FE00000000
FE00000000
FE00000000
FE00000000
FE00000000
FE00000000
FE00000000
FE00000000
FE00000000
FE00000000
FE00000000
FE00000000
7F00000000
7F00000000
7F80000000
3FE0000000
1FFFFE0000
0FFFFF0000
07FFFF0000
0FFFFF0000
1FFFFF0000
3FFFFE0000
7FF0000000
7FC0000000
FF80000000
FF00000000
FF00000000
FF00000000
FE00000000
FE00000000
FE00000000
FE00000000
FE00000000
FE00000000
FE00000000
FE00000000
FE00000000
FE00000000
FE00000000
FE00000000
FE00000000
FE00000000
FE00FFFFC0
FE01FFFFE0
FE01FFFFE0
FE01FFFFE0
FE01FFFFE0
FE007FFFC0
FE0000FE00
FE0000FE00
FE0000FE00
FE0000FE00
FE0000FE00
FE0000FE00
FE0000FE00
FE0000FE00
FE0000FE00
FE0000FE00
FE0000FE00
FE0000FE00
FE0000FE00
FE0000FE00
FE0000FE00
FE0000FE00
FE0000FE00
FE0000FE00
7F0001FC00
7F0001FC00
7F0003FC00
3F8007F800
3FE00FF800
1FFFFFF000
0FFFFFE000
07FFFFC000
03FFFF8000
00FFFE0000
001FF00000
ENDCHAR
STARTCHAR 0027
ENCODING 39
SWIDTH 141 0
DWIDTH 23 0
BBX 7 33 8 79
BITMAP
38
7C
FE
FE
FE
FE
FE
FE
FE
FE
FE
FE
FE
FE
FE
FE
FE
FE
FE
FE
FE
FE
FE
FE
FE
FE
FE
FE
FE
FE
FE
FE
7C
ENDCHAR
STARTCHAR 0028
ENCODING 40
SWIDTH 141 0
DWIDTH 23 0
BBX 21 115 2 -2
BITMAP
0000F0
0001F8
0003F8
0007F8
0007F0
000FF0
000FE0
001FE0
001FE0
003FC0
003FC0
007F80
007F80
007F80
00FF00
00FF00
00FF00
01FE00
01FE00
01FE00
01FC00
03FC00
03FC00
03F800
07F800
07F800
07F800
07F000
0FF000
0FF000
0FF000
1FE000
1FE000
1FE000
1FC000
1FC000
3FC000
3FC000
3FC000
3F8000
3F8000
7F8000
7F8000
7F8000
7F0000
7F0000
7F0000
7F0000
FF0000
FF0000
FF0000
FE0000
FE0000
FE0000
FE0000
FE0000
FE0000
FE0000
FE0000
FE0000
FE0000
FE0000
FE0000
FE0000
FE0000
FE0000
FE0000
7E0000
7F0000
7F0000
7F0000
7F0000
7F0000
3F8000
3F8000
3F8000
3F8000
3FC000
1FC000
1FC000
1FC000
1FE000
1FE000
0FE000
0FF000
0FF000
07F000
07F800
07F800
07F800
03FC00
03FC00
03FC00
01FE00
01FE00
01FE00
00FF00
00FF00
00FF00
007F80
007F80
003F80
003FC0
003FC0
001FE0
001FE0
000FE0
000FF0
0007F0
0007F0
0003F8
0003F8
0001F8
0000F8
000070
ENDCHAR
STARTCHAR 0029
ENCODING 41
SWIDTH 141 0
DWIDTH 23 0
BBX 21 115 1 -2
BITMAP
780000
FC0000
FE0000
FF0000
7F0000
7F8000
7F8000
3FC000
3FC000
3FE000
1FE000
1FF000
1FF000
0FF000
0FF800
0FF800
07F800
07FC00
07FC00
03FC00
03FE00
03FE00
01FE00
01FF00
00FF00
00FF00
00FF00
007F80
007F80
007F80
003F80
003FC0
003FC0
003FC0
001FC0
001FC0
001FE0
001FE0
000FE0
000FE0
000FE0
000FF0
000FF0
000FF0
0007F0
0007F0
0007F0
0007F0
0007F0
0007F8
0007F8
0003F8
0003F8
0003F8
0003F8
0003F8
0003F8
0003F8
0003F8
0003F8
0003F8
0003F8
0003F8
0003F8
0003F8
0003F8
0003F8
0007F0
0007F0
0007F0
0007F0
0007F0
0007F0
000FF0
000FE0
000FE0
000FE0
000FE0
001FE0
001FC0
001FC0
003FC0
003FC0
003F80
003F80
007F80
007F80
007F00
00FF00
00FF00
00FE00
01FE00
01FE00
03FC00
03FC00
03FC00
07F800
07F800
07F800
0FF000
0FF000
0FF000
1FE000
1FE000
1FC000
3FC000
3FC000
7F8000
7F8000
7F0000
FF0000
FE0000
FC0000
FC0000
700000
ENDCHAR
STARTCHAR 002A
ENCODING 42
SWIDTH 240 0
DWIDTH 39 0
BBX 37 35 1 77
BITMAP
0000700000
0000F80000
0001FC0000
0001FC0000
0001FC0000
0001FC0000
0001FC0000
0001FC0000
0001FC0000
0001FC0000
0001FC0000
7801FC00F0
FF81FC0FF8
FFF1FC7FF8
FFFFFFFFF8
FFFFFFFFF8
7FFFFFFFF0
1FFFFFFFC0
03FFFFFE00
007FFFF000
000FFF8000
000FFF0000
001FFF8000
001FFFC000
003FFFC000
007FDFE000
007F8FF000
00FF0FF000
01FE07F800
01FE03FC00
03FC01FC00
03F801FE00
03F800FE00
03F0007E00
03E0003C00
ENDCHAR
STARTCHAR 002B
ENCODING 43
SWIDTH 506 0
DWIDTH 82 0
BBX 74 77 4 0
BITMAP
000000003E0000000000
000000007F0000000000
000000007F0000000000
000000007F0000000000
000000007F0000000000
000000007F0000000000
000000007F0000000000
000000007F0000000000
000000007F0000000000
000000007F0000000000
000000007F0000000000
000000007F0000000000
000000007F0000000000
000000007F0000000000
000000007F0000000000
000000007F0000000000
000000007F0000000000
000000007F0000000000
000000007F0000000000
000000007F0000000000
000000007F0000000000
000000007F0000000000
000000007F0000000000
000000007F0000000000
000000007F0000000000
000000007F0000000000
000000007F0000000000
000000007F0000000000
000000007F0000000000
000000007F0000000000
000000007F0000000000
000000007F0000000000
000000007F0000000000
000000007F0000000000
000000007F0000000000
000000007F0000000000
3FFFFFFFFFFFFFFFFF80
FFFFFFFFFFFFFFFFFFC0
FFFFFFFFFFFFFFFFFFC0
FFFFFFFFFFFFFFFFFFC0
FFFFFFFFFFFFFFFFFFC0
7FFFFFFFFFFFFFFFFF80
000000007F0000000000
000000007F0000000000
000000007F0000000000
000000007F0000000000
000000007F0000000000
000000007F0000000000
000000007F0000000000
000000007F0000000000
000000007F0000000000
000000007F0000000000
000000007F0000000000
000000007F0000000000
000000007F0000000000
000000007F0000000000
000000007F0000000000
000000007F0000000000
000000007F0000000000
000000007F0000000000
000000007F0000000000
000000007F0000000000
000000007F0000000000
000000007F0000000000
000000007F0000000000
000000007F0000000000
000000007F0000000000
000000007F0000000000
000000007F0000000000
000000007F0000000000
000000007F0000000000
000000007F0000000000
000000007F0000000000
000000007F0000000000
000000007F0000000000
000000003E0000000000
000000003C0000000000
ENDCHAR
STARTCHAR 002C
ENCODING 44
SWIDTH 141 0
DWIDTH 23 0
BBX 16 27 4 -6
BITMAP
001E
003F
007F
00FF
00FF
00FE
01FE
01FC
03FC
03F8
07F8
07F0
07F0
0FF0
0FE0
1FE0
1FC0
3FC0
3F80
7F80
7F00
7F00
FE00
FE00
FC00
FC00
7800
ENDCHAR
STARTCHAR 002D
ENCODING 45
SWIDTH 141 0
DWIDTH 23 0
BBX 16 6 3 44
BITMAP
3FFE
FFFF
FFFF
FFFF
FFFF
3FFC
ENDCHAR
STARTCHAR 002E
ENCODING 46
SWIDTH 141 0
DWIDTH 23 0
BBX 11 11 6 -1
BITMAP
0400
3F80
7FC0
7FE0
FFE0
FFE0
FFE0
FFE0
7FE0
7FC0
1F80
ENDCHAR
STARTCHAR 002F
ENCODING 47
SWIDTH 141 0
DWIDTH 23 0
BBX 20 114 1 -1
BITMAP
0001E0
0003F0
0003F0
0007F0
0007F0
0007F0
0007F0
0007E0
0007E0
0007E0
000FE0
000FE0
000FE0
000FE0
000FE0
000FC0
000FC0
000FC0
001FC0
001FC0
001FC0
001FC0
001FC0
001F80
001F80
001F80
003F80
003F80
003F80
003F80
003F80
003F00
003F00
003F00
007F00
007F00
007F00
007F00
007F00
007E00
007E00
007E00
00FE00
00FE00
00FE00
00FE00
00FE00
00FC00
00FC00
00FC00
01FC00
01FC00
01FC00
01FC00
01FC00
01F800
01F800
01F800
03F800
03F800
03F800
03F800
03F800
03F000
03F000
03F000
07F000
07F000
07F000
07F000
07F000
07F000
07E000
07E000
0FE000
0FE000
0FE000
0FE000
0FE000
0FE000
0FC000
0FC000
1FC000
1FC000
1FC000
1FC000
1FC000
1FC000
1F8000
1F8000
3F8000
3F8000
3F8000
3F8000
3F8000
3F8000
3F0000
3F0000
7F0000
7F0000
7F0000
7F0000
7F0000
7F0000
7E0000
7E0000
7E0000
FE0000
FE0000
FE0000
FE0000
FC0000
FC0000
780000
ENDCHAR
STARTCHAR 0030
ENCODING 48
SWIDTH 240 0
DWIDTH 39 0
BBX 31 116 4 -2
BITMAP
003FF000
01FFFE00
07FFFF80
0FFFFFC0
1FFFFFE0
1FFFFFF0
3FF01FF8
3FC007F8
7F8003FC
7F0001FC
7F0001FC
FE0001FC
FE0000FE
FE0000FE
FE0000FE
FE0000FE
FE0000FE
FE0000FE
FE0000FE
FE0000FE
FE0000FE
FE0000FE
FE0000FE
FE0000FE
FE0000FE
FE0000FE
FE0000FE
FE0000FE
FE0000FE
FE0000FE
FE0000FE
FE0000FE
FE0000FE
FE0000FE
FE0000FE
FE0000FE
FE0000FE
FE0000FE
FE0000FE
FE0000FE
FE0000FE
FE0000FE
FE0000FE
FE0000FE
FE0000FE
FE0000FE
FE0000FE
FE0000FE
FE0000FE
FE0000FE
FE0000FE
FE0000FE
FE0000FE
FE0000FE
FE0000FE
FE0000FE
FE0000FE
FE0000FE
FE0000FE
FE0000FE
FE0000FE
FE0000FE
FE0000FE
FE0000FE
FE0000FE
FE0000FE
FE0000FE
FE0000FE
FE0000FE
FE0000FE
FE0000FE
FE0000FE
FE0000FE
FE0000FE
FE0000FE
FE0000FE
FE0000FE
FE0000FE
FE0000FE
FE0000FE
FE0000FE
FE0000FE
FE0000FE
FE0000FE
FE0000FE
FE0000FE
FE0000FE
FE0000FE
FE0000FE
FE0000FE
FE0000FE
FE0000FE
FE0000FE
FE0000FE
FE0000FE
FE0000FE
FE0000FE
FE0000FE
FE0000FE
FE0000FE
FE0000FE
FE0000FE
FE0000FE
FE0000FE
FE0000FE
7F0001FC
7F0001FC
7F8003FC
3FC007F8
3FF01FF8
1FFFFFF0
0FFFFFE0
0FFFFFC0
03FFFF80
00FFFE00
001FF000
ENDCHAR
STARTCHAR 0031
ENCODING 49
SWIDTH 111 0
DWIDTH 18 0
BBX 7 114 6 -1
BITMAP
38
7C
FE
FE
FE
FE
FE
FE
FE
FE
FE
FE
FE
FE
FE
FE
FE
FE
FE
FE
FE
FE
FE
FE
FE
FE
FE
FE
FE
FE
FE
FE
FE
FE
FE
FE
FE
FE
FE
FE
FE
FE
FE
FE
FE
FE
FE
FE
FE
FE
FE
FE
FE
FE
FE
FE
FE
FE
FE
FE
FE
FE
FE
FE
FE
FE
FE
FE
FE
FE
FE
FE
FE
FE
FE
FE
FE
FE
FE
FE
FE
FE
FE
FE
FE
FE
FE
FE
FE
FE
FE
FE
FE
FE
FE
FE
FE
FE
FE
FE
FE
FE
FE
FE
FE
FE
FE
FE
FE
FE
FE
FE
7C
38
ENDCHAR
STARTCHAR 0032
ENCODING 50
SWIDTH 240 0
DWIDTH 39 0
BBX 31 115 4 -1
BITMAP
001FF000
00FFFE00
03FFFF80
07FFFFE0
0FFFFFF0
1FFFFFF0
3FE00FF8
3F8003F8
3F8003FC
7F0001FC
7F0001FC
7E0000FE
7E0000FE
FE0000FE
FE0000FE
FE0000FE
FE0000FE
FE0000FE
FE0000FE
FE0000FE
FE0000FE
FE0000FE
FE0000FE
FE0000FE
FE0000FE
7E0000FE
7C0000FE
000000FE
000000FE
000000FE
000000FE
000000FE
000000FE
000000FE
000000FE
000000FE
000000FE
000000FE
000000FE
000000FE
000000FE
000000FE
000000FE
000000FE
000000FE
000000FE
000000FE
000000FE
000000FE
000000FE
000000FE
000000FE
000000FE
000000FE
000000FE
000000FE
000000FE
000000FE
000000FE
000000FE
000000FE
000000FE
000000FE
000001FE
000001FC
000003FC
000007FC
00000FF8
00003FF8
0001FFF0
001FFFE0
00FFFFC0
01FFFF80
07FFFE00
0FFFF800
0FFF8000
1FFC0000
3FF00000
3FE00000
3FC00000
7F800000
7F800000
7F000000
7F000000
7F000000
7F000000
7F000000
7F000000
7F000000
7F000000
7F000000
7F000000
7F000000
7F000000
7F000000
7F000000
7F000000
7F000000
7F000000
7F000000
7F000000
7F000000
7F000000
7F000000
7F000000
7F000000
7F000000
7F000000
7F000000
7FFFFFF8
7FFFFFFE
7FFFFFFE
7FFFFFFE
3FFFFFFE
1FFFFFF8
ENDCHAR
STARTCHAR 0033
ENCODING 51
SWIDTH 240 0
DWIDTH 39 0
BBX 31 116 4 -2
BITMAP
001FF000
00FFFE00
03FFFF80
0FFFFFC0
1FFFFFE0
1FFFFFF0
3FE00FF8
3F8003F8
7F0003FC
7F0001FC
7F0001FC
FE0001FE
FE0000FE
FE0000FE
FE0000FE
FE0000FE
FE0000FE
FE0000FE
FE0000FE
FE0000FE
FE0000FE
FE0000FE
FE0000FE
FE0000FE
FE0000FE
FE0000FE
FE0000FE
7C0000FE
380000FE
000000FE
000000FE
000000FE
000000FE
000000FE
000000FE
000000FE
000000FE
000000FE
000000FE
000000FE
000000FE
000000FE
000000FE
000000FE
000000FE
000000FE
000000FE
000000FE
000000FE
000001FE
000001FC
000003FC
000003FC
000007F8
00001FF8
3FFFFFF0
FFFFFFE0
FFFFFFC0
FFFFFFE0
FFFFFFF0
3FFFFFF8
00001FF8
000007FC
000003FC
000001FC
000001FE
000000FE
000000FE
000000FE
000000FE
000000FE
000000FE
000000FE
000000FE
000000FE
000000FE
000000FE
000000FE
000000FE
000000FE
000000FE
000000FE
000000FE
000000FE
000000FE
000000FE
000000FE
780000FE
7C0000FE
FE0000FE
FE0000FE
FE0000FE
FE0000FE
FE0000FE
FE0000FE
FE0000FE
FE0000FE
FE0000FE
FE0000FE
FE0000FE
FE0000FE
FE0000FE
FE0000FE
FE0000FE
FE0001FE
7F0001FC
7F0001FC
7F0003FC
3F8007F8
3FE01FF8
1FFFFFF0
1FFFFFE0
0FFFFFC0
03FFFF80
01FFFE00
001FF000
ENDCHAR
STARTCHAR 0034
ENCODING 52
SWIDTH 240 0
DWIDTH 39 0
BBX 35 114 4 -1
BITMAP
0003C1C000
0007C3E000
0007E7F000
0007E7F000
000FE7F000
000FC7F000
000FC7F000
000FC7F000
000FC7F000
001FC7F000
001F87F000
001F87F000
001F87F000
001F87F000
001F87F000
003F87F000
003F07F000
003F07F000
003F07F000
003F07F000
007F07F000
007E07F000
007E07F000
007E07F000
007E07F000
007E07F000
00FE07F000
00FC07F000
00FC07F000
00FC07F000
00FC07F000
01FC07F000
01FC07F000
01F807F000
01F807F000
01F807F000
01F807F000
03F807F000
03F007F000
03F007F000
03F007F000
03F007F000
07F007F000
07F007F000
07E007F000
07E007F000
07E007F000
07E007F000
0FE007F000
0FC007F000
0FC007F000
0FC007F000
0FC007F000
1FC007F000
1FC007F000
1F8007F000
1F8007F000
1F8007F000
1F8007F000
3F8007F000
3F8007F000
3F0007F000
3F0007F000
3F0007F000
7F0007F000
7F0007F000
7E0007F000
7E0007F000
7E0007F000
7E0007F000
FE0007F000
FE0007F000
FC0007F000
FFFFFFFF80
FFFFFFFFE0
FFFFFFFFE0
FFFFFFFFE0
FFFFFFFFE0
7FFFFFFF80
000007F000
000007F000
000007F000
000007F000
000007F000
000007F000
000007F000
000007F000
000007F000
000007F000
000007F000
000007F000
000007F000
000007F000
000007F000
000007F000
000007F000
000007F000
000007F000
000007F000
000007F000
000007F000
000007F000
000007F000
000007F000
000007F000
000007F000
000007F000
000007F000
000007F000
000007F000
000007F000
000007F000
000003E000
000003C000
ENDCHAR
STARTCHAR 0035
ENCODING 53
SWIDTH 240 0
DWIDTH 39 0
BBX 31 115 4 -2
BITMAP
1FFFFFF8
3FFFFFFE
7FFFFFFE
7FFFFFFE
7FFFFFFE
7FFFFFF8
7F000000
7F000000
7F000000
7F000000
7F000000
7F000000
7F000000
7F000000
7F000000
7F000000
7F000000
7F000000
7F000000
7F000000
7F000000
7F000000
7F000000
7F000000
7F000000
7F000000
7F000000
7F000000
7F000000
7F000000
7F000000
7F000000
7F000000
7F000000
7F000000
7F000000
7F000000
7F000000
7F000000
7F000000
7F000000
7F000000
7F000000
7FFFFE00
7FFFFF80
7FFFFFE0
7FFFFFF0
7FFFFFF8
00000FF8
000003FC
000001FC
000001FC
000001FE
000000FE
000000FE
000000FE
000000FE
000000FE
000000FE
000000FE
000000FE
000000FE
000000FE
000000FE
000000FE
000000FE
000000FE
000000FE
000000FE
000000FE
000000FE
000000FE
000000FE
000000FE
000000FE
000000FE
000000FE
000000FE
000000FE
000000FE
000000FE
000000FE
000000FE
000000FE
000000FE
000000FE
000000FE
380000FE
7C0000FE
7E0000FE
FE0000FE
FE0000FE
FE0000FE
FE0000FE
FE0000FE
FE0000FE
FE0000FE
FE0000FE
FE0000FE
FE0000FE
FE0000FE
7E0000FE
7E0000FE
7E0001FE
7F0001FC
7F0001FC
3F0003FC
3F8007F8
1FE01FF8
0FFFFFF0
0FFFFFE0
07FFFFC0
01FFFF80
00FFFE00
001FF000
ENDCHAR
STARTCHAR 0036
ENCODING 54
SWIDTH 240 0
DWIDTH 39 0
BBX 31 116 4 -2
BITMAP
003FF000
01FFFE00
07FFFF80
0FFFFFC0
1FFFFFE0
3FFFFFF0
3FF01FF8
7FC007F8
7F8003FC
7F0001FC
7F0001FC
FE0000FE
FE0000FE
FE0000FE
FE0000FE
FE0000FE
FE0000FE
FE0000FE
FE0000FE
FE0000FE
FE0000FE
FE0000FE
FE0000FE
FE0000FE
FE0000FE
FE0000FE
FE0000FE
FE0000FC
FE000038
FE000000
FE000000
FE000000
FE000000
FE000000
FE000000
FE000000
FE000000
FE000000
FE000000
FE000000
FE000000
FE000000
FE000000
FE000000
FE1FF000
FEFFFE00
FFFFFF80
FFFFFFC0
FFFFFFE0
FFFFFFF0
FFE01FF8
FF8007F8
FF0001FC
FF0001FC
FE0000FC
FE0000FC
FE0000FE
FE0000FE
FE0000FE
FE0000FE
FE0000FE
FE0000FE
FE0000FE
FE0000FE
FE0000FE
FE0000FE
FE0000FE
FE0000FE
FE0000FE
FE0000FE
FE0000FE
FE0000FE
FE0000FE
FE0000FE
FE0000FE
FE0000FE
FE0000FE
FE0000FE
FE0000FE
FE0000FE
FE0000FE
FE0000FE
FE0000FE
FE0000FE
FE0000FE
FE0000FE
FE0000FE
FE0000FE
FE0000FE
FE0000FE
FE0000FE
FE0000FE
FE0000FE
FE0000FE
FE0000FE
FE0000FE
FE0000FE
FE0000FE
FE0000FE
FE0000FE
FE0000FE
FE0000FE
FE0000FE
FE0000FE
FE0001FE
7F0001FC
7F0001FC
7F0003FC
3F8007F8
3FE01FF8
1FFFFFF0
0FFFFFE0
07FFFFC0
03FFFF80
00FFFE00
001FF000
ENDCHAR
STARTCHAR 0037
ENCODING 55
SWIDTH 240 0
DWIDTH 39 0
BBX 30 114 5 -1
BITMAP
3FFFFFF0
FFFFFFFC
FFFFFFFC
FFFFFFFC
FFFFFFFC
3FFFFFFC
000001FC
000003F8
000003F8
000003F8
000003F8
000003F8
000007F0
000007F0
000007F0
000007F0
00000FF0
00000FE0
00000FE0
00000FE0
00000FE0
00001FC0
00001FC0
00001FC0
00001FC0
00001FC0
00003F80
00003F80
00003F80
00003F80
00007F80
00007F00
00007F00
00007F00
00007F00
0000FE00
0000FE00
0000FE00
0000FE00
0000FE00
0001FC00
0001FC00
0001FC00
0001FC00
0003FC00
0003F800
0003F800
0003F800
0003F800
0007F000
0007F000
0007F000
0007F000
0007F000
000FE000
000FE000
000FE000
000FE000
001FE000
001FC000
001FC000
001FC000
001FC000
003F8000
003F8000
003F8000
003F8000
003F8000
007F0000
007F0000
007F0000
007F0000
00FF0000
00FE0000
00FE0000
00FE0000
00FE0000
01FC0000
01FC0000
01FC0000
01FC0000
01FC0000
03F80000
03F80000
03F80000
03F80000
03F80000
07F00000
07F00000
07F00000
07F00000
0FE00000
0FE00000
0FE00000
0FE00000
0FE00000
1FC00000
1FC00000
1FC00000
1FC00000
1FC00000
3F800000
3F800000
3F800000
3F800000
7F000000
7F000000
7F000000
7F000000
7F000000
7E000000
7E000000
7E000000
3C000000
ENDCHAR
STARTCHAR 0038
ENCODING 56
SWIDTH 240 0
DWIDTH 39 0
BBX 31 116 4 -2
BITMAP
001FF000
00FFFE00
03FFFF80
07FFFFC0
0FFFFFE0
1FFFFFF0
3FF01FF8
3F8007F8
7F8003FC
7F0001FC
7F0001FC
FE0001FE
FE0000FE
FE0000FE
FE0000FE
FE0000FE
FE0000FE
FE0000FE
FE0000FE
FE0000FE
FE0000FE
FE0000FE
FE0000FE
FE0000FE
FE0000FE
FE0000FE
FE0000FE
FE0000FE
FE0000FE
FE0000FE
FE0000FE
FE0000FE
FE0000FE
FE0000FE
FE0000FE
FE0000FE
FE0000FE
FE0000FE
FE0000FE
FE0000FE
FE0000FE
FE0000FE
FE0000FE
FE0000FE
FE0000FE
FE0000FE
FE0000FE
FE0000FE
FE0000FE
FF0001FE
FF0001FC
FF0001FC
7F8003FC
7FC007F8
3FF01FF8
3FFFFFF0
0FFFFFE0
07FFFFC0
0FFFFFE0
1FFFFFF0
3FFFFFF8
7FE01FF8
7F8007FC
7F0003FC
FF0001FC
FF0001FE
FE0000FE
FE0000FE
FE0000FE
FE0000FE
FE0000FE
FE0000FE
FE0000FE
FE0000FE
FE0000FE
FE0000FE
FE0000FE
FE0000FE
FE0000FE
FE0000FE
FE0000FE
FE0000FE
FE0000FE
FE0000FE
FE0000FE
FE0000FE
FE0000FE
FE0000FE
FE0000FE
FE0000FE
FE0000FE
FE0000FE
FE0000FE
FE0000FE
FE0000FE
FE0000FE
FE0000FE
FE0000FE
FE0000FE
FE0000FE
FE0000FE
FE0000FE
FE0000FE
FE0000FE
7E0000FE
7F0001FC
7F0001FC
7F8003FC
3F8007F8
3FE00FF8
1FFFFFF0
0FFFFFE0
07FFFFC0
03FFFF80
00FFFE00
001FF000
ENDCHAR
STARTCHAR 0039
ENCODING 57
SWIDTH 240 0
DWIDTH 39 0
BBX 31 116 4 -2
BITMAP
003FF000
01FFFE00
03FFFF80
0FFFFFC0
1FFFFFE0
1FFFFFF0
3FE00FF8
3F8003F8
7F0001FC
7F0001FC
7F0000FC
FE0000FC
FE0000FE
FE0000FE
FE0000FE
FE0000FE
FE0000FE
FE0000FE
FE0000FE
FE0000FE
FE0000FE
FE0000FE
FE0000FE
FE0000FE
FE0000FE
FE0000FE
FE0000FE
FE0000FE
FE0000FE
FE0000FE
FE0000FE
FE0000FE
FE0000FE
FE0000FE
FE0000FE
FE0000FE
FE0000FE
FE0000FE
FE0000FE
FE0000FE
FE0000FE
FE0000FE
FE0000FE
FE0000FE
FE0000FE
FE0000FE
FE0000FE
FE0000FE
FE0000FE
FE0000FE
FE0000FE
FE0000FE
FE0000FE
FE0000FE
FE0000FE
FE0000FE
FE0000FE
FE0000FE
FE0000FE
FE0000FE
7F0001FE
7F0001FE
7F8003FE
3F8007FE
3FF01FFE
1FFFFFFE
0FFFFFFE
0FFFFFFE
03FFFFFE
01FFFFFE
003FF8FE
000000FE
000000FE
000000FE
000000FE
000000FE
000000FE
000000FE
000000FE
000000FE
000000FE
000000FE
000000FE
000000FE
000000FE
000000FE
100000FE
7C0000FE
FE0000FE
FE0000FE
FE0000FE
FE0000FE
FE0000FE
FE0000FE
FE0000FE
FE0000FE
FE0000FE
FE0000FE
FE0000FE
FE0000FE
FE0000FE
FE0000FE
FE0000FE
FE0000FE
FF0000FE
7F0001FC
7F0001FC
7F8003FC
3FC007F8
3FF01FF8
1FFFFFF0
0FFFFFE0
07FFFFC0
03FFFF80
00FFFE00
001FF000
ENDCHAR
STARTCHAR 003A
ENCODING 58
SWIDTH 141 0
DWIDTH 23 0
BBX 11 68 6 -1
BITMAP
0E00
3F80
7FC0
FFE0
FFE0
FFE0
FFE0
7FE0
7FC0
3F80
0000
0000
0000
0000
0000
0000
0000
0000
0000
0000
0000
0000
0000
0000
0000
0000
0000
0000
0000
0000
0000
0000
0000
0000
0000
0000
0000
0000
0000
0000
0000
0000
0000
0000
0000
0000
0000
0000
0000
0000
0000
0000
0000
0000
0000
0000
0000
0000
3F80
7FC0
FFC0
FFE0
FFE0
FFE0
FFE0
FFC0
7FC0
1F00
ENDCHAR
STARTCHAR 003B
ENCODING 59
SWIDTH 141 0
DWIDTH 23 0
BBX 16 73 4 -7
BITMAP
0380
0FE0
1FF0
1FF8
1FF8
1FF8
1FF8
1FF8
1FF0
0FE0
0000
0000
0000
0000
0000
0000
0000
0000
0000
0000
0000
0000
0000
0000
0000
0000
0000
0000
0000
0000
0000
0000
0000
0000
0000
0000
0000
0000
0000
0000
0000
0000
0000
0000
0000
0000
001E
003F
007F
00FF
00FF
00FE
01FE
01FC
03FC
03F8
07F8
07F0
07F0
0FF0
0FE0
1FE0
1FC0
3FC0
3F80
7F80
7F00
7F00
FE00
FE00
FC00
FC00
7800
ENDCHAR
STARTCHAR 003C
ENCODING 60
SWIDTH 277 0
DWIDTH 45 0
BBX 39 59 2 9
BITMAP
000000007C
00000000FE
00000003FE
00000007FE
0000000FFE
0000001FFC
0000003FF8
0000007FF0
000000FFE0
000001FF80
000007FF00
00000FFE00
00001FFC00
00003FF800
00007FF000
0000FFC000
0001FF8000
0007FF0000
000FFE0000
001FFC0000
003FF80000
007FE00000
00FFC00000
01FF800000
03FF000000
0FFE000000
1FF8000000
3FF0000000
7FE0000000
FFC0000000
7FE0000000
3FF0000000
0FF8000000
07FC000000
03FF000000
01FF800000
00FFC00000
007FE00000
003FF00000
000FFC0000
0007FE0000
0003FF0000
0001FF8000
0000FFC000
00007FE000
00003FF800
00000FFC00
000007FE00
000003FF00
000001FF80
000000FFC0
0000007FF0
0000003FF8
0000000FFC
00000007FC
00000003FC
00000001FC
00000000FC
0000000038
ENDCHAR
STARTCHAR 003D
ENCODING 61
SWIDTH 506 0
DWIDTH 82 0
BBX 75 28 4 23
BITMAP
3FFFFFFFFFFFFFFFFF80
FFFFFFFFFFFFFFFFFFE0
FFFFFFFFFFFFFFFFFFE0
FFFFFFFFFFFFFFFFFFE0
FFFFFFFFFFFFFFFFFFE0
3FFFFFFFFFFFFFFFFF80
00000000000000000000
00000000000000000000
00000000000000000000
00000000000000000000
00000000000000000000
00000000000000000000
00000000000000000000
00000000000000000000
00000000000000000000
00000000000000000000
00000000000000000000
00000000000000000000
00000000000000000000
00000000000000000000
00000000000000000000
00000000000000000000
3FFFFFFFFFFFFFFFFF80
FFFFFFFFFFFFFFFFFFE0
FFFFFFFFFFFFFFFFFFE0
FFFFFFFFFFFFFFFFFFE0
FFFFFFFFFFFFFFFFFFE0
3FFFFFFFFFFFFFFFFF80
ENDCHAR
STARTCHAR 003E
ENCODING 62
SWIDTH 277 0
DWIDTH 45 0
BBX 39 59 4 8
BITMAP
7C00000000
FE00000000
FF00000000
FF80000000
FFE0000000
7FF0000000
3FF8000000
1FFC000000
0FFE000000
07FF000000
01FF800000
00FFE00000
007FF00000
003FF80000
001FFC0000
000FFE0000
0003FF0000
0001FF8000
0000FFC000
00007FF000
00003FF800
00000FFC00
000007FE00
000003FF00
000001FF80
000000FFC0
0000007FF0
0000001FF8
0000000FFC
00000007FE
0000000FFC
0000001FF8
0000003FF0
0000007FE0
000000FF80
000003FF00
000007FE00
00000FFC00
00001FF800
00003FF000
0000FFE000
0001FF8000
0003FF0000
0007FE0000
000FFC0000
001FF80000
007FF00000
00FFE00000
01FF800000
03FF000000
07FE000000
1FFC000000
3FF8000000
7FF0000000
7FE0000000
7F80000000
7F00000000
7E00000000
3C00000000
ENDCHAR
STARTCHAR 003F
ENCODING 63
SWIDTH 222 0
DWIDTH 36 0
BBX 31 115 3 -1
BITMAP
001FF800
00FFFF00
03FFFF80
07FFFFE0
0FFFFFF0
1FFFFFF0
3FE00FF8
3F8003F8
7F0001FC
7F0001FC
7F0001FC
FE0000FE
FE0000FE
FE0000FE
FE0000FE
FE0000FE
FE0000FE
FE0000FE
FE0000FE
FE0000FE
FE0000FE
FE0000FE
FE0000FE
FE0000FE
FE0000FE
FE0000FE
FE0000FE
7C0000FE
000000FE
000000FE
000000FE
000000FE
000000FE
000000FE
000000FE
000000FE
000000FE
000000FE
000000FE
000000FE
000000FE
000000FE
000000FE
000000FE
000000FE
000000FE
000000FE
000000FE
000000FE
000000FE
000000FE
000000FE
000000FE
000000FE
000000FE
000000FE
000000FE
000000FE
000000FE
000000FE
000000FE
000000FE
000000FE
000000FE
000000FE
000000FE
000000FE
000000FE
000000FE
000000FE
000000FE
000000FE
000000FE
000000FE
000001FE
000001FC
000001FC
000003FC
000007FC
00007FF8
000FFFF8
000FFFF0
000FFFE0
000FFF80
000FFE00
000FE000
000FE000
000FE000
000FE000
000FE000
000FE000
000FE000
000FE000
000FE000
000FE000
000FE000
000FE000
000FE000
000FE000
000FE000
000FE000
000FE000
0007C000
00000000
00010000
000FE000
001FF000
001FF000
003FF800
003FF800
003FF800
003FF800
001FF000
000FE000
0007C000
ENDCHAR
STARTCHAR 0040
ENCODING 64
SWIDTH 561 0
DWIDTH 91 0
BBX 80 105 5 -2
BITMAP
000001FFFFFFFFC00000
00001FFFFFFFFFF80000
0000FFFFFFFFFFFF0000
0003FFFFFFFFFFFFC000
0007FFFFFFFFFFFFF000
001FFFFFFFFFFFFFF800
003FFF00000000FFFC00
007FF0000000001FFE00
00FFC00000000007FF00
01FF800000000001FF80
03FE000000000000FFC0
07FC0000000000003FE0
0FF80000000000001FF0
0FF00000000000001FF0
1FF00000000000000FF8
1FE000000000000007F8
3FC000000000000003FC
3FC000000000000003FC
7F8000000000000001FE
7F8000000000000001FE
7F0000000000000000FE
7F0000000000000000FE
FF0000001FFFFE0000FF
FE0000007FFFFE00007F
FE000001FFFFFE00007F
FE000003FFFFFE00007F
FE000007FFFFFE00007F
FE00000FFFFFFE00007F
FE00001FFFFFFE00007F
FE00003FF800FE00007F
FE00003FE000FE00007F
FE00007F8000FE00007F
FE00007F0000FE00007F
FE00007F0000FE00007F
FE0000FE0000FE00007F
FE0000FE0000FE00007F
FE0000FC0000FE00007F
FE0000FC0000FE00007F
FE0000FC0000FE00007F
FE0000FC0000FE00007F
FE0000FC0000FE00007F
FE0000FC0000FE00007F
FE0000FC0000FE00007F
FE0000FC0000FE00007F
FE0000FC0000FE00007F
FE0000FC0000FE00007F
FE0000FC0000FE00007F
FE0000FC0000FE00007F
FE0000FC0000FE00007F
FE0000FC0000FE00007F
FE0000FC0000FE00007F
FE0000FC0000FE00007F
FE0000FC0000FE00007F
FE0000FC0000FE00007F
FE0000FC0000FE00007F
FE0000FC0000FE00007F
FE0000FC0000FE00007F
FE0000FC0000FE00007F
FE0000FC0000FE00007F
FE0000FC0000FE00007F
FE0000FC0000FE00007F
FE0000FC0000FE00007F
FE0000FC0000FE00007F
FE0000FC0000FE00007F
FE0000FC0000FE00007F
FE0000FC0000FE00007F
FE0000FC0000FE00007F
FE0000FC0000FE00007F
FE0000FC0000FE00007F
FE0000FC0000FE00007F
FE0000FC0000FE00007F
FE0000FC0000FE00007F
FE0000FC0000FE00007F
FE0000FC0000FE00007F
FE0000FC0000FE00007F
FE0000FC0000FE00007F
FE0000FC0000FE00007F
FE0000FC0000FE00007F
FE0000FC0000FE00007F
FE0000FC0000FE00007F
FE0000FC0000FE00007F
FE0000FC0000FE00007F
FE0000FC0000FE00007F
FE0000FC0000FE00007F
FE0000FC0000FE00007F
FE0000FC0000FE00007F
FE0000FC0000FE00007F
FE0000FC0000FE00007F
FE0000FC0000FE00007F
FE0000FC0000FE00007F
FE0000FC0000FE00007F
FE0000FC0000FE00007F
FF0000FE0001FF0000FF
7F0000FE0001FF0000FE
7F80007F0003FF8001FE
7FC0007F8007FF8003FE
3FE0007FC00FFFE007FC
3FF0003FF01FFFF01FFC
1FFF001FFFFFFFFFFFF8
0FFF001FFFFFEFFFFFF0
07FF000FFFFFC7FFFFE0
03FF0007FFFF83FFFFC0
01FF0001FFFE00FFFF80
007F0000FFFC003FFE00
000F00001FE00007F000
ENDCHAR
STARTCHAR 0041
ENCODING 65
SWIDTH 259 0
DWIDTH 42 0
BBX 37 115 0 -1
BITMAP
00007FE000
0003FFFC00
0007FFFF00
001FFFFF80
001FFFFFC0
003FFFFFC0
007F803FE0
007E000FE0
00FE0007F0
00FE0007F0
00FC0007F0
01FC0003F8
01FC0003F8
01FC0003F8
01FC0003F8
01FC0003F8
01FC0003F8
01FC0003F8
01FC0003F8
01FC0003F8
01FC0003F8
01FC0003F8
01FC0003F8
01FC0003F8
01FC0003F8
01FC0003F8
01FC0003F8
01FC0003F8
01FC0003F8
01FC0003F8
01FC0003F8
01FC0003F8
01FC0003F8
01FC0003F8
01FC0003F8
01FC0003F8
01FC0003F8
01FC0003F8
01FC0003F8
01FC0003F8
01FC0003F8
01FC0003F8
01FC0003F8
01FC0003F8
01FC0003F8
01FC0003F8
01FC0003F8
01FC0003F8
01FC0003F8
01FC0003F8
01FC0003F8
01FC0003F8
01FC0003F8
01FC0003F8
01FC0003F8
01FC0003F8
01FC0003F8
01FC0003F8
01FC0003F8
01FC0003F8
01FC0003F8
01FC0003F8
01FC0003F8
01FC0003F8
7FFFFFFFF8
FFFFFFFFF8
FFFFFFFFF8
FFFFFFFFF8
FFFFFFFFF8
7FFFFFFFF8
01FC0003F8
01FC0003F8
01FC0003F8
01FC0003F8
01FC0003F8
01FC0003F8
01FC0003F8
01FC0003F8
01FC0003F8
01FC0003F8
01FC0003F8
01FC0003F8
01FC0003F8
01FC0003F8
01FC0003F8
01FC0003F8
01FC0003F8
01FC0003F8
01FC0003F8
01FC0003F8
01FC0003F8
01FC0003F8
01FC0003F8
01FC0003F8
01FC0003F8
01FC0003F8
01FC0003F8
01FC0003F8
01FC0003F8
01FC0003F8
01FC0003F8
01FC0003F8
01FC0003F8
01FC0003F8
01FC0003F8
01FC0003F8
01FC0003F8
01FC0003F8
01FC0003F8
01FC0003F8
01FC0003F8
01FC0003F8
01FC0003F8
00F80001F0
00700000F0
ENDCHAR
STARTCHAR 0042
ENCODING 66
SWIDTH 259 0
DWIDTH 42 0
BBX 39 113 -1 0
BITMAP
00FFFFF000
00FFFFFF00
00FFFFFF80
00FFFFFFE0
00FFFFFFF0
00FFFFFFF0
00FE001FF8
00FE0007F8
00FE0003FC
00FE0001FC
00FE0001FC
00FE0001FE
00FE0000FE
00FE0000FE
00FE0000FE
00FE0000FE
00FE0000FE
00FE0000FE
00FE0000FE
00FE0000FE
00FE0000FE
00FE0000FE
00FE0000FE
00FE0000FE
00FE0000FE
00FE0000FE
00FE0000FE
00FE0000FE
00FE0000FE
00FE0000FE
00FE0000FE
00FE0000FE
00FE0000FE
00FE0000FE
00FE0000FE
00FE0000FE
00FE0000FE
00FE0000FE
00FE0000FE
00FE0000FE
00FE0000FE
00FE0000FE
00FE0000FE
00FE0000FE
00FE0000FE
00FE0000FE
00FE0000FE
00FE0000FE
00FE0000FE
00FE0000FE
00FE0000FE
00FE0000FE
00FE0000FE
00FE0000FE
00FE0000FE
00FE0000FE
00FE0000FE
00FE0001FE
00FE0001FE
00FE0001FC
00FE0003FC
00FE0007F8
00FE001FF8
3FFFFFFFF0
7FFFFFFFE0
FFFFFFFFC0
FFFFFFFFE0
7FFFFFFFF0
3FFFFFFFF8
00FE001FF8
00FE0007FC
00FE0003FC
00FE0001FC
00FE0001FE
00FE0000FE
00FE0000FE
00FE0000FE
00FE0000FE
00FE0000FE
00FE0000FE
00FE0000FE
00FE0000FE
00FE0000FE
00FE0000FE
00FE0000FE
00FE0000FE
00FE0000FE
00FE0000FE
00FE0000FE
00FE0000FE
00FE0000FE
00FE0000FE
00FE0000FE
00FE0000FE
00FE0000FE
00FE0000FE
00FE0000FE
00FE0000FE
00FE0000FE
00FE0000FE
00FE0000FE
00FE0001FE
00FE0001FC
00FE0001FC
00FE0003FC
00FE0007F8
00FE000FF8
00FFFFFFF0
00FFFFFFE0
00FFFFFFC0
00FFFFFF80
00FFFFFE00
00FFFFF000
ENDCHAR
STARTCHAR 0043
ENCODING 67
SWIDTH 228 0
DWIDTH 37 0
BBX 31 116 3 -2
BITMAP
001FF000
01FFFE00
03FFFF80
0FFFFFE0
1FFFFFE0
1FFFFFF0
3FF01FF8
3F8003F8
7F8001FC
7F0001FC
7F0001FC
FE0000FE
FE0000FE
FE0000FE
FE0000FE
FE0000FE
FE0000FE
FE0000FE
FE0000FE
FE0000FE
FE0000FE
FE0000FE
FE0000FE
FE0000FE
FE0000FE
FE0000FE
FE0000FE
FE00007C
FE00007C
FE000000
FE000000
FE000000
FE000000
FE000000
FE000000
FE000000
FE000000
FE000000
FE000000
FE000000
FE000000
FE000000
FE000000
FE000000
FE000000
FE000000
FE000000
FE000000
FE000000
FE000000
FE000000
FE000000
FE000000
FE000000
FE000000
FE000000
FE000000
FE000000
FE000000
FE000000
FE000000
FE000000
FE000000
FE000000
FE000000
FE000000
FE000000
FE000000
FE000000
FE000000
FE000000
FE000000
FE000000
FE000000
FE000000
FE000000
FE000000
FE000000
FE000000
FE000000
FE000000
FE000000
FE000000
FE000000
FE000000
FE000000
FE000000
FE00007C
FE0000FC
FE0000FE
FE0000FE
FE0000FE
FE0000FE
FE0000FE
FE0000FE
FE0000FE
FE0000FE
FE0000FE
FE0000FE
FE0000FE
FE0000FE
FE0000FE
FE0000FE
FE0000FE
FE0001FE
7F0001FC
7F0001FC
7F0003FC
3F8007F8
3FF01FF8
1FFFFFF0
1FFFFFF0
0FFFFFE0
07FFFF80
01FFFF00
003FF000
ENDCHAR
STARTCHAR 0044
ENCODING 68
SWIDTH 246 0
DWIDTH 40 0
BBX 31 113 4 0
BITMAP
FFFFF000
FFFFFE00
FFFFFF80
FFFFFFE0
FFFFFFF0
FFFFFFF0
FE001FF8
FE0007F8
FE0003FC
FE0001FC
FE0001FC
FE0001FE
FE0000FE
FE0000FE
FE0000FE
FE0000FE
FE0000FE
FE0000FE
FE0000FE
FE0000FE
FE0000FE
FE0000FE
FE0000FE
FE0000FE
FE0000FE
FE0000FE
FE0000FE
FE0000FE
FE0000FE
FE0000FE
FE0000FE
FE0000FE
FE0000FE
FE0000FE
FE0000FE
FE0000FE
FE0000FE
FE0000FE
FE0000FE
FE0000FE
FE0000FE
FE0000FE
FE0000FE
FE0000FE
FE0000FE
FE0000FE
FE0000FE
FE0000FE
FE0000FE
FE0000FE
FE0000FE
FE0000FE
FE0000FE
FE0000FE
FE0000FE
FE0000FE
FE0000FE
FE0000FE
FE0000FE
FE0000FE
FE0000FE
FE0000FE
FE0000FE
FE0000FE
FE0000FE
FE0000FE
FE0000FE
FE0000FE
FE0000FE
FE0000FE
FE0000FE
FE0000FE
FE0000FE
FE0000FE
FE0000FE
FE0000FE
FE0000FE
FE0000FE
FE0000FE
FE0000FE
FE0000FE
FE0000FE
FE0000FE
FE0000FE
FE0000FE
FE0000FE
FE0000FE
FE0000FE
FE0000FE
FE0000FE
FE0000FE
FE0000FE
FE0000FE
FE0000FE
FE0000FE
FE0000FE
FE0000FE
FE0000FE
FE0000FE
FE0000FE
FE0000FE
FE0000FE
FE0001FC
FE0001FC
FE0001FC
FE0003F8
FE001FF8
FFFFFFF0
FFFFFFE0
FFFFFFC0
FFFFFF80
FFFFFE00
FFFFF000
ENDCHAR
STARTCHAR 0045
ENCODING 69
SWIDTH 228 0
DWIDTH 37 0
BBX 36 114 0 -1
BITMAP
007FFFFFC0
00FFFFFFE0
01FFFFFFF0
01FFFFFFF0
01FFFFFFE0
01FFFFFFC0
01FC000000
01FC000000
01FC000000
01FC000000
01FC000000
01FC000000
01FC000000
01FC000000
01FC000000
01FC000000
01FC000000
01FC000000
01FC000000
01FC000000
01FC000000
01FC000000
01FC000000
01FC000000
01FC000000
01FC000000
01FC000000
01FC000000
01FC000000
01FC000000
01FC000000
01FC000000
01FC000000
01FC000000
01FC000000
01FC000000
01FC000000
01FC000000
01FC000000
01FC000000
01FC000000
01FC000000
01FC000000
01FC000000
01FC000000
01FC000000
01FC000000
01FC000000
01FC000000
01FC000000
01FC000000
01FC000000
01FC000000
01FC000000
01FC000000
01FC000000
01FC000000
01FC000000
01FC000000
01FC000000
01FC000000
01FC000000
01FC000000
7FFFFFFFC0
FFFFFFFFE0
FFFFFFFFF0
FFFFFFFFF0
FFFFFFFFE0
7FFFFFFFC0
01FC000000
01FC000000
01FC000000
01FC000000
01FC000000
01FC000000
01FC000000
01FC000000
01FC000000
01FC000000
01FC000000
01FC000000
01FC000000
01FC000000
01FC000000
01FC000000
01FC000000
01FC000000
01FC000000
01FC000000
01FC000000
01FC000000
01FC000000
01FC000000
01FC000000
01FC000000
01FC000000
01FC000000
01FC000000
01FC000000
01FC000000
01FC000000
01FC000000
01FC000000
01FC000000
01FC000000
01FC000000
01FC000000
01FC000000
01FFFFFFC0
01FFFFFFE0
01FFFFFFF0
01FFFFFFF0
00FFFFFFE0
007FFFFFC0
ENDCHAR
STARTCHAR 0046
ENCODING 70
SWIDTH 228 0
DWIDTH 37 0
BBX 36 114 0 -1
BITMAP
007FFFFFE0
00FFFFFFE0
01FFFFFFF0
01FFFFFFE0
01FFFFFFE0
01FFFFFFC0
01FC000000
01FC000000
01FC000000
01FC000000
01FC000000
01FC000000
01FC000000
01FC000000
01FC000000
01FC000000
01FC000000
01FC000000
01FC000000
01FC000000
01FC000000
01FC000000
01FC000000
01FC000000
01FC000000
01FC000000
01FC000000
01FC000000
01FC000000
01FC000000
01FC000000
01FC000000
01FC000000
01FC000000
01FC000000
01FC000000
01FC000000
01FC000000
01FC000000
01FC000000
01FC000000
01FC000000
01FC000000
01FC000000
01FC000000
01FC000000
01FC000000
01FC000000
01FC000000
01FC000000
01FC000000
01FC000000
01FC000000
01FC000000
01FC000000
01FC000000
01FC000000
01FC000000
01FC000000
01FC000000
01FC000000
01FC000000
01FC000000
7FFFFFFFC0
FFFFFFFFE0
FFFFFFFFF0
FFFFFFFFF0
FFFFFFFFE0
7FFFFFFFC0
01FC000000
01FC000000
01FC000000
01FC000000
01FC000000
01FC000000
01FC000000
01FC000000
01FC000000
01FC000000
01FC000000
01FC000000
01FC000000
01FC000000
01FC000000
01FC000000
01FC000000
01FC000000
01FC000000
01FC000000
01FC000000
01FC000000
01FC000000
01FC000000
01FC000000
01FC000000
01FC000000
01FC000000
01FC000000
01FC000000
01FC000000
01FC000000
01FC000000
01FC000000
01FC000000
01FC000000
01FC000000
01FC000000
01FC000000
01FC000000
01FC000000
01FC000000
01FC000000
00F8000000
0070000000
ENDCHAR
STARTCHAR 0047
ENCODING 71
SWIDTH 246 0
DWIDTH 40 0
BBX 31 116 4 -2
BITMAP
001FF000
00FFFE00
03FFFF80
0FFFFFC0
1FFFFFE0
1FFFFFF0
3FF00FF8
3FC003F8
7F8001FC
7F0001FC
7F0000FC
FE0000FC
FE0000FE
FE0000FE
FE0000FE
FE0000FE
FE00007E
FE00007E
FE00007E
FE00007E
FE00007E
FE00007E
FE00007E
FE00007E
FE00007E
FE00007E
FE00007E
FE00007C
FE000018
FE000000
FE000000
FE000000
FE000000
FE000000
FE000000
FE000000
FE000000
FE000000
FE000000
FE000000
FE000000
FE000000
FE000000
FE000000
FE000000
FE000000
FE000000
FE000000
FE000000
FE000000
FE000000
FE000000
FE000000
FE000000
FE000000
FE000000
FE000000
FE000000
FE000000
FE000000
FE000000
FE000000
FE000000
FE000000
FE00FFFC
FE01FFFC
FE01FFFE
FE01FFFE
FE01FFFE
FE00FFFE
FE0000FE
FE0000FE
FE0000FE
FE0000FE
FE0000FE
FE0000FE
FE0000FE
FE0000FE
FE0000FE
FE0000FE
FE0000FE
FE0000FE
FE0000FE
FE0000FE
FE0000FE
FE0000FE
FE0000FE
FE0000FE
FE0000FE
FE0000FE
FE0000FE
FE0000FE
FE0000FE
FE0000FE
FE0000FE
FE0000FE
FE0000FE
FE0000FE
FE0000FE
FE0000FE
FE0000FE
FE0000FE
FE0000FE
FE0000FE
FF0000FE
7F0001FC
7F0001FC
7F8003FC
3FC007F8
3FF01FF8
1FFFFFF0
0FFFFFE0
07FFFFC0
03FFFF80
00FFFF00
001FF800
ENDCHAR
STARTCHAR 0048
ENCODING 72
SWIDTH 259 0
DWIDTH 42 0
BBX 37 114 0 -1
BITMAP
00700000E0
00F80001F0
01FC0003F8
01FC0003F8
01FC0003F8
01FC0003F8
01FC0003F8
01FC0003F8
01FC0003F8
01FC0003F8
01FC0003F8
01FC0003F8
01FC0003F8
01FC0003F8
01FC0003F8
01FC0003F8
01FC0003F8
01FC0003F8
01FC0003F8
01FC0003F8
01FC0003F8
01FC0003F8
01FC0003F8
01FC0003F8
01FC0003F8
01FC0003F8
01FC0003F8
01FC0003F8
01FC0003F8
01FC0003F8
01FC0003F8
01FC0003F8
01FC0003F8
01FC0003F8
01FC0003F8
01FC0003F8
01FC0003F8
01FC0003F8
01FC0003F8
01FC0003F8
01FC0003F8
01FC0003F8
01FC0003F8
01FC0003F8
01FC0003F8
01FC0003F8
01FC0003F8
01FC0003F8
01FC0003F8
01FC0003F8
01FC0003F8
01FC0003F8
01FC0003F8
01FC0003F8
01FC0003F8
01FC0003F8
01FC0003F8
01FC0003F8
01FC0003F8
01FC0003F8
01FC0003F8
01FC0003F8
01FC0003F8
7FFFFFFFF8
FFFFFFFFF8
FFFFFFFFF8
FFFFFFFFF8
FFFFFFFFF8
7FFFFFFFF8
01FC0003F8
01FC0003F8
01FC0003F8
01FC0003F8
01FC0003F8
01FC0003F8
01FC0003F8
01FC0003F8
01FC0003F8
01FC0003F8
01FC0003F8
01FC0003F8
01FC0003F8
01FC0003F8
01FC0003F8
01FC0003F8
01FC0003F8
01FC0003F8
01FC0003F8
01FC0003F8
01FC0003F8
01FC0003F8
01FC0003F8
01FC0003F8
01FC0003F8
01FC0003F8
01FC0003F8
01FC0003F8
01FC0003F8
01FC0003F8
01FC0003F8
01FC0003F8
01FC0003F8
01FC0003F8
01FC0003F8
01FC0003F8
01FC0003F8
01FC0003F8
01FC0003F8
01FC0003F8
01FC0003F8
01FC0003F8
01FC0003F8
00F80001F0
00700000F0
ENDCHAR
STARTCHAR 0049
ENCODING 73
SWIDTH 86 0
DWIDTH 14 0
BBX 7 114 3 -1
BITMAP
38
7C
FE
FE
FE
FE
FE
FE
FE
FE
FE
FE
FE
FE
FE
FE
FE
FE
FE
FE
FE
FE
FE
FE
FE
FE
FE
FE
FE
FE
FE
FE
FE
FE
FE
FE
FE
FE
FE
FE
FE
FE
FE
FE
FE
FE
FE
FE
FE
FE
FE
FE
FE
FE
FE
FE
FE
FE
FE
FE
FE
FE
FE
FE
FE
FE
FE
FE
FE
FE
FE
FE
FE
FE
FE
FE
FE
FE
FE
FE
FE
FE
FE
FE
FE
FE
FE
FE
FE
FE
FE
FE
FE
FE
FE
FE
FE
FE
FE
FE
FE
FE
FE
FE
FE
FE
FE
FE
FE
FE
FE
FE
FC
38
ENDCHAR
STARTCHAR 004A
ENCODING 74
SWIDTH 216 0
DWIDTH 35 0
BBX 31 115 0 -2
BITMAP
00000038
0000007C
000000FE
000000FE
000000FE
000000FE
000000FE
000000FE
000000FE
000000FE
000000FE
000000FE
000000FE
000000FE
000000FE
000000FE
000000FE
000000FE
000000FE
000000FE
000000FE
000000FE
000000FE
000000FE
000000FE
000000FE
000000FE
000000FE
000000FE
000000FE
000000FE
000000FE
000000FE
000000FE
000000FE
000000FE
000000FE
000000FE
000000FE
000000FE
000000FE
000000FE
000000FE
000000FE
000000FE
000000FE
000000FE
000000FE
000000FE
000000FE
000000FE
000000FE
000000FE
000000FE
000000FE
000000FE
000000FE
000000FE
000000FE
000000FE
000000FE
000000FE
000000FE
000000FE
000000FE
000000FE
000000FE
000000FE
000000FE
000000FE
000000FE
000000FE
000000FE
000000FE
000000FE
000000FE
000000FE
000000FE
000000FE
000000FE
000000FE
000000FE
000000FE
000000FE
000000FE
000000FE
380000FE
7C0000FE
FE0000FE
FE0000FE
FE0000FE
FE0000FE
FE0000FE
FE0000FE
FE0000FE
FE0000FE
FE0000FE
FE0000FE
FE0000FE
FE0000FE
FE0000FE
FE0000FE
FE0000FE
FE0001FE
7F0001FC
7F0001FC
7F8003FC
3FC007F8
3FF01FF8
1FFFFFF0
0FFFFFE0
07FFFFC0
03FFFF80
00FFFE00
001FF000
ENDCHAR
STARTCHAR 004B
ENCODING 75
SWIDTH 290 0
DWIDTH 47 0
BBX 48 114 0 -1
BITMAP
00700000F800
00F80001F800
01FC0001FC00
01FC0001FC00
01FC0001FC00
01FC0001FC00
01FC0001FC00
01FC0001FC00
01FC0001FC00
01FC0001FC00
01FC0001FC00
01FC0001FC00
01FC0001FC00
01FC0001FC00
01FC0001FC00
01FC0001FC00
01FC0001FC00
01FC0001FC00
01FC0001FC00
01FC0001FC00
01FC0001FC00
01FC0001FC00
01FC0001FC00
01FC0001FC00
01FC0001FC00
01FC0001FC00
01FC0001FC00
01FC0001FC00
01FC0001FC00
01FC0001FC00
01FC0001FC00
01FC0001FC00
01FC0001FC00
01FC0001FC00
01FC0001FC00
01FC0001FC00
01FC0001FC00
01FC0001FC00
01FC0001FC00
01FC0001FC00
01FC0001FC00
01FC0001FC00
01FC0001FC00
01FC0001FC00
01FC0001FC00
01FC0001FC00
01FC0001FC00
01FC0001FC00
01FC0001FC00
01FC0001FC00
01FC0001FC00
01FC0001FC00
01FC0001FC00
01FC0001FC00
01FC0001FC00
01FC0001FC00
01FC0001FC00
01FC0001FC00
01FC0003FC00
01FC0003F800
01FC0007F800
01FC000FF000
01FC003FF000
7FFFFFFFE000
FFFFFFFFC000
FFFFFFFF8000
FFFFFFFFC000
FFFFFFFFE000
7FFFFFFFF000
01FC003FF000
01FC0007F800
01FC0003F800
01FC0003F800
01FC0003FC00
01FC0001FC00
01FC0001FC00
01FC0001FC00
01FC0001FC00
01FC0001FC00
01FC0001FC00
01FC0001FC00
01FC0001FC00
01FC0001FC00
01FC0001FC00
01FC0001FC00
01FC0001FC00
01FC0001FC00
01FC0001FC00
01FC0001FC00
01FC0001FC00
01FC0001FC00
01FC0001FC00
01FC0001FC00
01FC0001FC00
01FC0001FC00
01FC0001FC00
01FC0001FC00
01FC0001FC00
01FC0001FC00
01FC0001FC00
01FC0001FC00
01FC0001FC00
01FC0001FC00
01FC0001FE00
01FC0000FE00
01FC0000FF00
01FC00007FC0
01FC00007FF0
01FC00003FFC
01FC00001FFF
01FC00000FFF
01FC000007FF
00F8000003FF
00700000007E
ENDCHAR
STARTCHAR 004C
ENCODING 76
SWIDTH 203 0
DWIDTH 33 0
BBX 29 114 3 -1
BITMAP
38000000
7C000000
FE000000
FE000000
FE000000
FE000000
FE000000
FE000000
FE000000
FE000000
FE000000
FE000000
FE000000
FE000000
FE000000
FE000000
FE000000
FE000000
FE000000
FE000000
FE000000
FE000000
FE000000
FE000000
FE000000
FE000000
FE000000
FE000000
FE000000
FE000000
FE000000
FE000000
FE000000
FE000000
FE000000
FE000000
FE000000
FE000000
FE000000
FE000000
FE000000
FE000000
FE000000
FE000000
FE000000
FE000000
FE000000
FE000000
FE000000
FE000000
FE000000
FE000000
FE000000
FE000000
FE000000
FE000000
FE000000
FE000000
FE000000
FE000000
FE000000
FE000000
FE000000
FE000000
FE000000
FE000000
FE000000
FE000000
FE000000
FE000000
FE000000
FE000000
FE000000
FE000000
FE000000
FE000000
FE000000
FE000000
FE000000
FE000000
FE000000
FE000000
FE000000
FE000000
FE000000
FE000000
FE000000
FE000000
FE000000
FE000000
FE000000
FE000000
FE000000
FE000000
FE000000
FE000000
FE000000
FE000000
FE000000
FE000000
FE000000
FE000000
FE000000
FE000000
FE000000
FE000000
FE000000
FE000000
FFFFFFF0
FFFFFFF8
FFFFFFF8
FFFFFFF8
7FFFFFF8
7FFFFFF0
ENDCHAR
STARTCHAR 004D
ENCODING 77
SWIDTH 388 0
DWIDTH 63 0
BBX 55 115 3 -1
BITMAP
003FF8001FF000
01FFFF007FFE00
07FFFF81FFFF80
0FFFFFC3FFFFC0
1FFFFFEFFFFFE0
3FFFFFFFFFFFF0
3FF01FFFF00FF8
7FC007FFC003F8
7F8003FF8001FC
7F0001FF8001FC
7F0001FF0001FC
FF0001FF0000FC
FE0000FE0000FE
FE0000FE0000FE
FE0000FE0000FE
FE0000FE0000FE
FE0000FE0000FE
FE0000FE0000FE
FE0000FE0000FE
FE0000FE0000FE
FE0000FE0000FE
FE0000FE0000FE
FE0000FE0000FE
FE0000FE0000FE
FE0000FE0000FE
FE0000FE0000FE
FE0000FE0000FE
FE0000FE0000FE
FE0000FE0000FE
FE0000FE0000FE
FE0000FE0000FE
FE0000FE0000FE
FE0000FE0000FE
FE0000FE0000FE
FE0000FE0000FE
FE0000FE0000FE
FE0000FE0000FE
FE0000FE0000FE
FE0000FE0000FE
FE0000FE0000FE
FE0000FE0000FE
FE0000FE0000FE
FE0000FE0000FE
FE0000FE0000FE
FE0000FE0000FE
FE0000FE0000FE
FE0000FE0000FE
FE0000FE0000FE
FE0000FE0000FE
FE0000FE0000FE
FE0000FE0000FE
FE0000FE0000FE
FE0000FE0000FE
FE0000FE0000FE
FE0000FE0000FE
FE0000FE0000FE
FE0000FE0000FE
FE0000FE0000FE
FE0000FE0000FE
FE0000FE0000FE
FE0000FE0000FE
FE0000FE0000FE
FE0000FE0000FE
FE0000FE0000FE
FE0000FE0000FE
FE0000FE0000FE
FE0000FE0000FE
FE0000FE0000FE
FE0000FE0000FE
FE0000FE0000FE
FE0000FE0000FE
FE0000FE0000FE
FE0000FE0000FE
FE0000FE0000FE
FE0000FE0000FE
FE0000FE0000FE
FE0000FE0000FE
FE0000FE0000FE
FE0000FE0000FE
FE0000FE0000FE
FE0000FE0000FE
FE0000FE0000FE
FE0000FE0000FE
FE0000FE0000FE
FE0000FE0000FE
FE0000FE0000FE
FE0000FE0000FE
FE0000FE0000FE
FE0000FE0000FE
FE0000FE0000FE
FE0000FE0000FE
FE0000FE0000FE
FE0000FE0000FE
FE0000FE0000FE
FE0000FE0000FE
FE0000FE0000FE
FE0000FE0000FE
FE0000FE0000FE
FE0000FE0000FE
FE0000FE0000FE
FE0000FE0000FE
FE0000FE0000FE
FE0000FE0000FE
FE0000FE0000FE
FE0000FE0000FE
FE0000FE0000FE
FE0000FE0000FE
FE0000FE0000FE
FE0000FE0000FE
FE0000FE0000FE
FE0000FE0000FE
FE0000FE0000FE
FE0000FE0000FE
7C0000FC00007C
78000078000078
ENDCHAR
STARTCHAR 004E
ENCODING 78
SWIDTH 246 0
DWIDTH 40 0
BBX 33 115 3 -1
BITMAP
003FFC0000
3DFFFF8000
7FFFFFE000
FFFFFFF000
FFFFFFF800
FFFFFFFC00
FFF807FE00
FFE001FE00
FFC000FF00
FF80007F00
FF00007F00
FF00007F00
FF00003F80
FE00003F80
FE00003F80
FE00003F80
FE00003F80
FE00003F80
FE00003F80
FE00003F80
FE00003F80
FE00003F80
FE00003F80
FE00003F80
FE00003F80
FE00003F80
FE00003F80
FE00003F80
FE00003F80
FE00003F80
FE00003F80
FE00003F80
FE00003F80
FE00003F80
FE00003F80
FE00003F80
FE00003F80
FE00003F80
FE00003F80
FE00003F80
FE00003F80
FE00003F80
FE00003F80
FE00003F80
FE00003F80
FE00003F80
FE00003F80
FE00003F80
FE00003F80
FE00003F80
FE00003F80
FE00003F80
FE00003F80
FE00003F80
FE00003F80
FE00003F80
FE00003F80
FE00003F80
FE00003F80
FE00003F80
FE00003F80
FE00003F80
FE00003F80
FE00003F80
FE00003F80
FE00003F80
FE00003F80
FE00003F80
FE00003F80
FE00003F80
FE00003F80
FE00003F80
FE00003F80
FE00003F80
FE00003F80
FE00003F80
FE00003F80
FE00003F80
FE00003F80
FE00003F80
FE00003F80
FE00003F80
FE00003F80
FE00003F80
FE00003F80
FE00003F80
FE00003F80
FE00003F80
FE00003F80
FE00003F80
FE00003F80
FE00003F80
FE00003F80
FE00003F80
FE00003F80
FE00003F80
FE00003F80
FE00003F80
FE00003F80
FE00003F80
FE00003F80
FE00003F80
FE00003F80
FE00003F80
FE00003F80
FE00003F80
FE00003F80
FE00003F80
FE00003F80
FE00003F80
FE00003F80
FE00003F80
FE00003F80
7C00003F80
7800001F00
ENDCHAR
STARTCHAR 004F
ENCODING 79
SWIDTH 246 0
DWIDTH 40 0
BBX 31 116 4 -2
BITMAP
003FF000
01FFFE00
07FFFF80
0FFFFFC0
1FFFFFE0
1FFFFFF0
3FE00FF8
3F8003F8
7F0001FC
7F0001FC
7F0001FC
FE0000FC
FE0000FE
FE0000FE
FE0000FE
FE0000FE
FE0000FE
FE0000FE
FE0000FE
FE0000FE
FE0000FE
FE0000FE
FE0000FE
FE0000FE
FE0000FE
FE0000FE
FE0000FE
FE0000FE
FE0000FE
FE0000FE
FE0000FE
FE0000FE
FE0000FE
FE0000FE
FE0000FE
FE0000FE
FE0000FE
FE0000FE
FE0000FE
FE0000FE
FE0000FE
FE0000FE
FE0000FE
FE0000FE
FE0000FE
FE0000FE
FE0000FE
FE0000FE
FE0000FE
FE0000FE
FE0000FE
FE0000FE
FE0000FE
FE0000FE
FE0000FE
FE0000FE
FE0000FE
FE0000FE
FE0000FE
FE0000FE
FE0000FE
FE0000FE
FE0000FE
FE0000FE
FE0000FE
FE0000FE
FE0000FE
FE0000FE
FE0000FE
FE0000FE
FE0000FE
FE0000FE
FE0000FE
FE0000FE
FE0000FE
FE0000FE
FE0000FE
FE0000FE
FE0000FE
FE0000FE
FE0000FE
FE0000FE
FE0000FE
FE0000FE
FE0000FE
FE0000FE
FE0000FE
FE0000FE
FE0000FE
FE0000FE
FE0000FE
FE0000FE
FE0000FE
FE0000FE
FE0000FE
FE0000FE
FE0000FE
FE0000FE
FE0000FE
FE0000FE
FE0000FE
FE0000FE
FE0000FE
FE0000FE
FF0001FE
7F0001FC
7F0001FC
7F8003FC
3FC007F8
3FF01FF8
1FFFFFF0
1FFFFFE0
0FFFFFC0
03FFFF80
01FFFE00
003FF000
ENDCHAR
STARTCHAR 0050
ENCODING 80
SWIDTH 246 0
DWIDTH 40 0
BBX 38 114 0 -1
BITMAP
01FFFFE000
01FFFFFE00
01FFFFFF00
01FFFFFFC0
01FFFFFFE0
01FFFFFFE0
01FC003FF0
01FC000FF0
01FC0007F8
01FC0003F8
01FC0003F8
01FC0003FC
01FC0001FC
01FC0001FC
01FC0001FC
01FC0001FC
01FC0001FC
01FC0001FC
01FC0001FC
01FC0001FC
01FC0001FC
01FC0001FC
01FC0001FC
01FC0001FC
01FC0001FC
01FC0001FC
01FC0001FC
01FC0001FC
01FC0001FC
01FC0001FC
01FC0001FC
01FC0001FC
01FC0001FC
01FC0001FC
01FC0001FC
01FC0001FC
01FC0001FC
01FC0001FC
01FC0001FC
01FC0001FC
01FC0001FC
01FC0001FC
01FC0001FC
01FC0001FC
01FC0001FC
01FC0001FC
01FC0001FC
01FC0001FC
01FC0001FC
01FC0001FC
01FC0001FC
01FC0001FC
01FC0001FC
01FC0001FC
01FC0001FC
01FC0001FC
01FC0001FC
01FC0003F8
01FC0003F8
01FC0003F8
01FC0007F8
01FC000FF0
01FC003FF0
7FFFFFFFE0
FFFFFFFFC0
FFFFFFFF80
FFFFFFFF00
FFFFFFFC00
7FFFFFE000
01FC000000
01FC000000
01FC000000
01FC000000
01FC000000
01FC000000
01FC000000
01FC000000
01FC000000
01FC000000
01FC000000
01FC000000
01FC000000
01FC000000
01FC000000
01FC000000
01FC000000
01FC000000
01FC000000
01FC000000
01FC000000
01FC000000
01FC000000
01FC000000
01FC000000
01FC000000
01FC000000
01FC000000
01FC000000
01FC000000
01FC000000
01FC000000
01FC000000
01FC000000
01FC000000
01FC000000
01FC000000
01FC000000
01FC000000
01FC000000
01FC000000
01FC000000
01FC000000
00F8000000
0070000000
ENDCHAR
STARTCHAR 0051
ENCODING 81
SWIDTH 246 0
DWIDTH 40 0
BBX 35 117 4 -3
BITMAP
003FF00000
01FFFE0000
07FFFF8000
0FFFFFC000
1FFFFFE000
3FFFFFF000
3FE01FF800
7F8007F800
7F0003FC00
7F0001FC00
7F0001FC00
FE0001FC00
FE0000FE00
FE0000FE00
FE0000FE00
FE0000FE00
FE0000FE00
FE0000FE00
FE0000FE00
FE0000FE00
FE0000FE00
FE0000FE00
FE0000FE00
FE0000FE00
FE0000FE00
FE0000FE00
FE0000FE00
FE0000FE00
FE0000FE00
FE0000FE00
FE0000FE00
FE0000FE00
FE0000FE00
FE0000FE00
FE0000FE00
FE0000FE00
FE0000FE00
FE0000FE00
FE0000FE00
FE0000FE00
FE0000FE00
FE0000FE00
FE0000FE00
FE0000FE00
FE0000FE00
FE0000FE00
FE0000FE00
FE0000FE00
FE0000FE00
FE0000FE00
FE0000FE00
FE0000FE00
FE0000FE00
FE0000FE00
FE0000FE00
FE0000FE00
FE0000FE00
FE0000FE00
FE0000FE00
FE0000FE00
FE0000FE00
FE0000FE00
FE0000FE00
FE0000FE00
FE0000FE00
FE0000FE00
FE0000FE00
FE0000FE00
FE0000FE00
FE0000FE00
FE0000FE00
FE0000FE00
FE0000FE00
FE0000FE00
FE0000FE00
FE0000FE00
FE0000FE00
FE0000FE00
FE0000FE00
FE0000FE00
FE0000FE00
FE0000FE00
FE0000FE00
FE0000FE00
FE0000FE00
FE0000FE00
FE0000FE00
FE0000FE00
FE0000FE00
FE0000FE00
FE0000FE00
FE0000FE00
FE0000FE00
FE0000FE00
FE0000FE00
FE0000FE00
FE0000FE00
FE0000FE00
FE0000FE00
FE03C0FE00
FE07F0FE00
FE07F8FE00
FE03FDFE00
FE03FFFE00
FE01FFFE00
7F007FFC00
7F003FFC00
7F801FFC00
3FC00FFC00
3FE01FFE00
1FFFFFFF00
0FFFFFFF80
07FFFFFFC0
03FFFF1FE0
00FFFE0FE0
001FF007E0
00000001C0
ENDCHAR
STARTCHAR 0052
ENCODING 82
SWIDTH 290 0
DWIDTH 47 0
BBX 48 114 0 -1
BITMAP
01FFFFF00000
01FFFFFE0000
01FFFFFF8000
01FFFFFFC000
01FFFFFFE000
01FFFFFFE000
01FC003FF000
01FC000FF000
01FC0007F800
01FC0003F800
01FC0003F800
01FC0003FC00
01FC0001FC00
01FC0001FC00
01FC0001FC00
01FC0001FC00
01FC0001FC00
01FC0001FC00
01FC0001FC00
01FC0001FC00
01FC0001FC00
01FC0001FC00
01FC0001FC00
01FC0001FC00
01FC0001FC00
01FC0001FC00
01FC0001FC00
01FC0001FC00
01FC0001FC00
01FC0001FC00
01FC0001FC00
01FC0001FC00
01FC0001FC00
01FC0001FC00
01FC0001FC00
01FC0001FC00
01FC0001FC00
01FC0001FC00
01FC0001FC00
01FC0001FC00
01FC0001FC00
01FC0001FC00
01FC0001FC00
01FC0001FC00
01FC0001FC00
01FC0001FC00
01FC0001FC00
01FC0001FC00
01FC0001FC00
01FC0001FC00
01FC0001FC00
01FC0001FC00
01FC0001FC00
01FC0001FC00
01FC0001FC00
01FC0001FC00
01FC0001FC00
01FC0003FC00
01FC0003F800
01FC0003F800
01FC0007F800
01FC000FF000
01FC003FF000
7FFFFFFFE000
FFFFFFFFC000
FFFFFFFF8000
FFFFFFFFC000
FFFFFFFFE000
7FFFFFFFF000
01FC003FF000
01FC000FF800
01FC0007F800
01FC0003F800
01FC0003FC00
01FC0003FC00
01FC0001FC00
01FC0001FC00
01FC0001FC00
01FC0001FC00
01FC0001FC00
01FC0001FC00
01FC0001FC00
01FC0001FC00
01FC0001FC00
01FC0001FC00
01FC0001FC00
01FC0001FC00
01FC0001FC00
01FC0001FC00
01FC0001FC00
01FC0001FC00
01FC0001FC00
01FC0001FC00
01FC0001FC00
01FC0001FC00
01FC0001FC00
01FC0001FC00
01FC0001FC00
01FC0001FC00
01FC0001FC00
01FC0001FC00
01FC0001FC00
01FC0000FE00
01FC0000FE00
01FC0000FF00
01FC00007F00
01FC00007F80
01FC00003FE0
01FC00001FF8
01FC00001FFE
01FC00000FFF
01FC000007FF
00F8000001FF
00700000007E
ENDCHAR
STARTCHAR 0053
ENCODING 83
SWIDTH 228 0
DWIDTH 37 0
BBX 32 116 3 -2
BITMAP
001FF800
00FFFF00
03FFFFC0
0FFFFFE0
1FFFFFF0
1FFFFFF8
3FF00FFC
3FC003FC
7F8001FE
7F0000FE
7F0000FE
FE0000FE
FE00007F
FE00007F
FE00007F
FE00007F
FE00007F
FE00007F
FE00007F
FE00007F
FE00007F
FE00007F
FE00007F
FE00007F
FE00007F
FE00003E
FE00001C
FE000000
FE000000
FE000000
FE000000
FE000000
FE000000
FE000000
FE000000
FE000000
FE000000
FE000000
FE000000
FE000000
FE000000
FE000000
FE000000
FE000000
FE000000
FE000000
FE000000
FE000000
FE000000
FE000000
FE000000
FE000000
FE000000
FE000000
FE000000
FE000000
FE000000
FE000000
FF000000
FF000000
7F800000
7FE00000
7FF80000
3FFF0000
3FFFFC00
1FFFFF00
0FFFFFC0
03FFFFE0
00FFFFF0
001FFFF8
0000FFFC
00001FFC
000007FE
000003FE
000001FE
000000FE
0000007F
0000007F
0000007F
0000007F
0000007F
0000007F
0000007F
0000007F
0000007F
0000007F
0000007F
3E00007F
7E00007F
7F00007F
7F00007F
7F00007F
7F00007F
7F00007F
7F00007F
7F00007F
7F00007F
7F00007F
7F00007F
7F00007F
7F00007F
7F00007F
7F00007F
7F00007F
7F00007F
3F8000FE
3F8000FE
3FC001FE
1FC003FC
1FF80FFC
0FFFFFF8
07FFFFF8
03FFFFF0
01FFFFC0
007FFF80
000FF800
ENDCHAR
STARTCHAR 0054
ENCODING 84
SWIDTH 185 0
DWIDTH 30 0
BBX 29 114 0 -1
BITMAP
7FFFFFF0
FFFFFFF8
FFFFFFF8
FFFFFFF8
FFFFFFF8
7FFFFFF0
001FC000
001FC000
001FC000
001FC000
001FC000
001FC000
001FC000
001FC000
001FC000
001FC000
001FC000
001FC000
001FC000
001FC000
001FC000
001FC000
001FC000
001FC000
001FC000
001FC000
001FC000
001FC000
001FC000
001FC000
001FC000
001FC000
001FC000
001FC000
001FC000
001FC000
001FC000
001FC000
001FC000
001FC000
001FC000
001FC000
001FC000
001FC000
001FC000
001FC000
001FC000
001FC000
001FC000
001FC000
001FC000
001FC000
001FC000
001FC000
001FC000
001FC000
001FC000
001FC000
001FC000
001FC000
001FC000
001FC000
001FC000
001FC000
001FC000
001FC000
001FC000
001FC000
001FC000
001FC000
001FC000
001FC000
001FC000
001FC000
001FC000
001FC000
001FC000
001FC000
001FC000
001FC000
001FC000
001FC000
001FC000
001FC000
001FC000
001FC000
001FC000
001FC000
001FC000
001FC000
001FC000
001FC000
001FC000
001FC000
001FC000
001FC000
001FC000
001FC000
001FC000
001FC000
001FC000
001FC000
001FC000
001FC000
001FC000
001FC000
001FC000
001FC000
001FC000
001FC000
001FC000
001FC000
000F8000
00070000
ENDCHAR
STARTCHAR 0055
ENCODING 85
SWIDTH 228 0
DWIDTH 37 0
BBX 30 115 3 -2
BITMAP
38000070
7C0000F8
FE0001FC
FE0001FC
FE0001FC
FE0001FC
FE0001FC
FE0001FC
FE0001FC
FE0001FC
FE0001FC
FE0001FC
FE0001FC
FE0001FC
FE0001FC
FE0001FC
FE0001FC
FE0001FC
FE0001FC
FE0001FC
FE0001FC
FE0001FC
FE0001FC
FE0001FC
FE0001FC
FE0001FC
FE0001FC
FE0001FC
FE0001FC
FE0001FC
FE0001FC
FE0001FC
FE0001FC
FE0001FC
FE0001FC
FE0001FC
FE0001FC
FE0001FC
FE0001FC
FE0001FC
FE0001FC
FE0001FC
FE0001FC
FE0001FC
FE0001FC
FE0001FC
FE0001FC
FE0001FC
FE0001FC
FE0001FC
FE0001FC
FE0001FC
FE0001FC
FE0001FC
FE0001FC
FE0001FC
FE0001FC
FE0001FC
FE0001FC
FE0001FC
FE0001FC
FE0001FC
FE0001FC
FE0001FC
FE0001FC
FE0001FC
FE0001FC
FE0001FC
FE0001FC
FE0001FC
FE0001FC
FE0001FC
FE0001FC
FE0001FC
FE0001FC
FE0001FC
FE0001FC
FE0001FC
FE0001FC
FE0001FC
FE0001FC
FE0001FC
FE0001FC
FE0001FC
FE0001FC
FE0001FC
FE0001FC
FE0001FC
FE0001FC
FE0001FC
FE0001FC
FE0001FC
FE0001FC
FE0001FC
FE0001FC
FE0001FC
FE0001FC
FE0001FC
FE0001FC
FE0001FC
FE0001FC
FE0001FC
FE0001FC
FE0003FC
7F0003F8
7F0003F8
7F0007F8
3F800FF0
3FE03FF0
1FFFFFE0
1FFFFFE0
0FFFFFC0
03FFFF00
01FFFE00
003FF000
ENDCHAR
STARTCHAR 0056
ENCODING 86
SWIDTH 216 0
DWIDTH 35 0
BBX 35 114 0 -1
BITMAP
70000003C0
F8000007E0
FC000007E0
FC000007E0
FC00000FE0
FE00000FE0
FE00000FE0
FE00000FE0
7E00000FC0
7E00000FC0
7E00000FC0
7E00001FC0
7E00001FC0
7F00001FC0
7F00001FC0
7F00001FC0
3F00001F80
3F00001F80
3F00001F80
3F00001F80
3F00003F80
3F80003F80
3F80003F80
3F80003F80
1F80003F00
1F80003F00
1F80003F00
1F80003F00
1FC0007F00
1FC0007F00
1FC0007F00
1FC0007F00
0FC0007E00
0FC0007E00
0FC0007E00
0FC0007E00
0FE000FE00
0FE000FE00
0FE000FE00
0FE000FE00
07E000FC00
07E000FC00
07E000FC00
07E000FC00
07F001FC00
07F001FC00
07F001FC00
07F001FC00
03F001F800
03F001F800
03F001F800
03F001F800
03F803F800
03F803F800
03F803F800
03F803F000
01F803F000
01F803F000
01F803F000
01F803F000
01FC03F000
01FC07F000
01FC07F000
01FC07E000
00FC07E000
00FC07E000
00FC07E000
00FC07E000
00FE07E000
00FE0FE000
00FE0FE000
00FE0FC000
007E0FC000
007E0FC000
007E0FC000
007E0FC000
007F0FC000
007F1FC000
007F1FC000
007F1F8000
003F1F8000
003F1F8000
003F1F8000
003F1F8000
003F9F8000
003FBF8000
003FBF8000
003FBF0000
001FBF0000
001FBF0000
001FBF0000
001FFF0000
001FFF0000
001FFF0000
001FFF0000
001FFE0000
000FFE0000
000FFE0000
000FFE0000
000FFE0000
000FFE0000
000FFE0000
000FFE0000
000FFC0000
0007FC0000
0007FC0000
0007FC0000
0007FC0000
0007FC0000
0007FC0000
0007F80000
0003F80000
0003F00000
0000E00000
ENDCHAR
STARTCHAR 0057
ENCODING 87
SWIDTH 388 0
DWIDTH 63 0
BBX 55 115 3 -2
BITMAP
38000038000038
7C00007C00007C
FE0000FE0000FE
FE0000FE0000FE
FE0000FE0000FE
FE0000FE0000FE
FE0000FE0000FE
FE0000FE0000FE
FE0000FE0000FE
FE0000FE0000FE
FE0000FE0000FE
FE0000FE0000FE
FE0000FE0000FE
FE0000FE0000FE
FE0000FE0000FE
FE0000FE0000FE
FE0000FE0000FE
FE0000FE0000FE
FE0000FE0000FE
FE0000FE0000FE
FE0000FE0000FE
FE0000FE0000FE
FE0000FE0000FE
FE0000FE0000FE
FE0000FE0000FE
FE0000FE0000FE
FE0000FE0000FE
FE0000FE0000FE
FE0000FE0000FE
FE0000FE0000FE
FE0000FE0000FE
FE0000FE0000FE
FE0000FE0000FE
FE0000FE0000FE
FE0000FE0000FE
FE0000FE0000FE
FE0000FE0000FE
FE0000FE0000FE
FE0000FE0000FE
FE0000FE0000FE
FE0000FE0000FE
FE0000FE0000FE
FE0000FE0000FE
FE0000FE0000FE
FE0000FE0000FE
FE0000FE0000FE
FE0000FE0000FE
FE0000FE0000FE
FE0000FE0000FE
FE0000FE0000FE
FE0000FE0000FE
FE0000FE0000FE
FE0000FE0000FE
FE0000FE0000FE
FE0000FE0000FE
FE0000FE0000FE
FE0000FE0000FE
FE0000FE0000FE
FE0000FE0000FE
FE0000FE0000FE
FE0000FE0000FE
FE0000FE0000FE
FE0000FE0000FE
FE0000FE0000FE
FE0000FE0000FE
FE0000FE0000FE
FE0000FE0000FE
FE0000FE0000FE
FE0000FE0000FE
FE0000FE0000FE
FE0000FE0000FE
FE0000FE0000FE
FE0000FE0000FE
FE0000FE0000FE
FE0000FE0000FE
FE0000FE0000FE
FE0000FE0000FE
FE0000FE0000FE
FE0000FE0000FE
FE0000FE0000FE
FE0000FE0000FE
FE0000FE0000FE
FE0000FE0000FE
FE0000FE0000FE
FE0000FE0000FE
FE0000FE0000FE
FE0000FE0000FE
FE0000FE0000FE
FE0000FE0000FE
FE0000FE0000FE
FE0000FE0000FE
FE0000FE0000FE
FE0000FE0000FE
FE0000FE0000FE
FE0000FE0000FE
FE0000FE0000FE
FE0000FE0000FE
FE0000FE0000FE
FE0000FE0000FE
FE0000FE0000FE
FE0000FE0000FE
FE0000FE0000FE
FE0000FE0000FE
FE0001FF0001FE
7F0001FF0001FC
7F0001FF8001FC
7F8003FF8003FC
7FC007FFC007F8
3FF01FFFF01FF8
3FFFFFEFFFFFF0
1FFFFFC7FFFFF0
0FFFFF87FFFFE0
07FFFF03FFFF80
01FFFC00FFFF00
003FE0001FF800
ENDCHAR
STARTCHAR 0058
ENCODING 88
SWIDTH 216 0
DWIDTH 35 0
BBX 34 114 0 -1
BITMAP
7800000780
FC00000FC0
FC00000FC0
FC00000FC0
FE00001FC0
FE00001FC0
FE00001FC0
FE00001FC0
7F00001F80
7F00003F80
7F00003F80
7F00003F80
3F80003F00
3F80007F00
3F80007F00
3F80007F00
1FC0007E00
1FC000FE00
1FC000FE00
1FC000FE00
0FE000FC00
0FE001FC00
0FE001FC00
0FE001FC00
07F001F800
07F001F800
07F003F800
07F003F800
03F003F000
03F803F000
03F807F000
03F807F000
01F807E000
01FC07E000
01FC0FE000
01FC0FE000
00FC0FC000
00FE0FC000
00FE1FC000
00FE1FC000
007E1F8000
007F1F8000
007F1F8000
007F3F8000
003F3F0000
003FBF0000
003FBF0000
003FFF0000
001FFE0000
001FFE0000
001FFE0000
001FFE0000
000FFC0000
000FFC0000
000FFC0000
000FFC0000
0007FC0000
0007F80000
000FFC0000
000FFC0000
000FFC0000
000FFC0000
001FFE0000
001FFE0000
001FFE0000
001FFE0000
003FBF0000
003FBF0000
003FBF0000
003F3F0000
007F1F8000
007F1F8000
007F1F8000
007E1F8000
00FE1FC000
00FE0FC000
00FE0FC000
00FC0FC000
01FC0FE000
01FC07E000
01FC07E000
01FC07E000
03F807F000
03F803F000
03F803F000
03F803F000
07F003F800
07F003F800
07F001F800
07F001F800
0FE001FC00
0FE001FC00
0FE000FC00
0FE000FC00
1FC000FE00
1FC000FE00
1FC0007E00
1FC0007E00
3F80007F00
3F80007F00
3F80007F00
3F80003F00
7F00003F80
7F00003F80
7F00003F80
7F00001F80
FE00001FC0
FE00001FC0
FE00001FC0
FE00001FC0
FC00000FC0
FC00000FC0
F800000FC0
7000000780
ENDCHAR
STARTCHAR 0059
ENCODING 89
SWIDTH 228 0
DWIDTH 37 0
BBX 30 115 3 -2
BITMAP
78000078
7C0000F8
FE0000FC
FE0000FC
FE0000FC
FE0000FC
FE0000FC
FE0000FC
FE0000FC
FE0000FC
FE0000FC
FE0000FC
FE0000FC
FE0000FC
FE0000FC
FE0000FC
FE0000FC
FE0000FC
FE0000FC
FE0000FC
FE0000FC
FE0000FC
FE0000FC
FE0000FC
FE0000FC
FE0000FC
FE0000FC
FE0000FC
FE0000FC
FE0000FC
FE0000FC
FE0000FC
FE0000FC
FE0000FC
FE0000FC
FE0000FC
FE0000FC
FE0000FC
FE0000FC
FE0000FC
FE0000FC
FE0000FC
FE0000FC
FE0000FC
FE0000FC
FE0000FC
FE0000FC
FE0000FC
FE0000FC
FE0000FC
FE0000FC
FE0000FC
FE0000FC
FE0000FC
FE0000FC
FE0000FC
FE0001FC
FE0001FC
7F0001FC
7F0001FC
7F0003FC
3F8007FC
3FE00FFC
1FFFFFFC
1FFFFFFC
0FFFFFFC
07FFFFFC
01FFFDFC
007FF1FC
000001FC
000001FC
000001FC
000001FC
000001FC
000001FC
000001FC
000001FC
000001FC
000001FC
000001FC
000001FC
000001FC
000001FC
000001FC
000001FC
000001FC
7C0001FC
FE0001FC
FE0001FC
FE0001FC
FE0001FC
FE0001FC
FE0001FC
FE0001FC
FE0001FC
FE0001FC
FE0001FC
FE0001FC
FE0001FC
FE0001FC
FE0001FC
FE0001FC
FE0001FC
FE0001FC
7F0003F8
7F0003F8
7F0007F8
7F8007F0
3FE01FF0
3FFFFFE0
1FFFFFC0
0FFFFF80
07FFFF00
01FFFC00
003FF000
ENDCHAR
STARTCHAR 005A
ENCODING 90
SWIDTH 203 0
DWIDTH 33 0
BBX 30 114 1 -1
BITMAP
3FFFFFE0
FFFFFFF0
FFFFFFF8
FFFFFFF8
FFFFFFF8
3FFFFFF8
000003F8
000003F8
000003F0
000007F0
000007F0
000007F0
000007F0
000007E0
00000FE0
00000FE0
00000FE0
00000FE0
00000FC0
00001FC0
00001FC0
00001FC0
00001FC0
00001F80
00003F80
00003F80
00003F80
00003F00
00003F00
00007F00
00007F00
00007F00
00007E00
0000FE00
0000FE00
0000FE00
0000FE00
0000FC00
0001FC00
0001FC00
0001FC00
0001FC00
0001F800
0003F800
0003F800
0003F800
0003F800
0003F000
0007F000
0007F000
0007F000
0007E000
0007E000
000FE000
000FE000
000FE000
000FC000
000FC000
001FC000
001FC000
001FC000
001F8000
003F8000
003F8000
003F8000
003F8000
003F0000
007F0000
007F0000
007F0000
007F0000
007E0000
00FE0000
00FE0000
00FE0000
00FE0000
00FC0000
01FC0000
01FC0000
01FC0000
01F80000
01F80000
03F80000
03F80000
03F80000
03F00000
07F00000
07F00000
07F00000
07F00000
07E00000
0FE00000
0FE00000
0FE00000
0FE00000
0FC00000
1FC00000
1FC00000
1FC00000
1FC00000
1F800000
3F800000
3F800000
3F800000
3F800000
3F000000
7F000000
7F000000
7FFFFFF0
7FFFFFFC
7FFFFFFC
7FFFFFFC
3FFFFFFC
1FFFFFF0
ENDCHAR
STARTCHAR 005B
ENCODING 91
SWIDTH 141 0
DWIDTH 23 0
BBX 15 114 6 -1
BITMAP
3FF8
FFFE
FFFE
FFFE
FFFE
FFFC
FE00
FE00
FE00
FE00
FE00
FE00
FE00
FE00
FE00
FE00
FE00
FE00
FE00
FE00
FE00
FE00
FE00
FE00
FE00
FE00
FE00
FE00
FE00
FE00
FE00
FE00
FE00
FE00
FE00
FE00
FE00
FE00
FE00
FE00
FE00
FE00
FE00
FE00
FE00
FE00
FE00
FE00
FE00
FE00
FE00
FE00
FE00
FE00
FE00
FE00
FE00
FE00
FE00
FE00
FE00
FE00
FE00
FE00
FE00
FE00
FE00
FE00
FE00
FE00
FE00
FE00
FE00
FE00
FE00
FE00
FE00
FE00
FE00
FE00
FE00
FE00
FE00
FE00
FE00
FE00
FE00
FE00
FE00
FE00
FE00
FE00
FE00
FE00
FE00
FE00
FE00
FE00
FE00
FE00
FE00
FE00
FE00
FE00
FE00
FE00
FE00
FE00
FFF8
FFFE
FFFE
FFFE
FFFE
7FFC
ENDCHAR
STARTCHAR 005C
ENCODING 92
SWIDTH 141 0
DWIDTH 23 0
BBX 20 114 1 -1
BITMAP
780000
FC0000
FC0000
FE0000
FE0000
FE0000
FE0000
7E0000
7E0000
7E0000
7E0000
7F0000
7F0000
7F0000
7F0000
3F0000
3F0000
3F0000
3F0000
3F8000
3F8000
3F8000
3F8000
1F8000
1F8000
1F8000
1F8000
1FC000
1FC000
1FC000
1FC000
0FC000
0FC000
0FC000
0FC000
0FE000
0FE000
0FE000
0FE000
0FE000
07E000
07E000
07E000
07F000
07F000
07F000
07F000
07F000
03F000
03F000
03F000
03F800
03F800
03F800
03F800
03F800
01F800
01F800
01F800
01FC00
01FC00
01FC00
01FC00
01FC00
00FC00
00FC00
00FC00
00FE00
00FE00
00FE00
00FE00
00FE00
007E00
007E00
007E00
007F00
007F00
007F00
007F00
007F00
003F00
003F00
003F00
003F80
003F80
003F80
003F80
003F80
001F80
001F80
001F80
001FC0
001FC0
001FC0
001FC0
001FC0
000FC0
000FC0
000FC0
000FE0
000FE0
000FE0
000FE0
000FE0
0007E0
0007E0
0007E0
0007F0
0007F0
0007F0
0007F0
0003F0
0003F0
0001E0
ENDCHAR
STARTCHAR 005D
ENCODING 93
SWIDTH 141 0
DWIDTH 23 0
BBX 15 114 2 -1
BITMAP
7FF8
FFFE
FFFE
FFFE
FFFE
7FFE
00FE
00FE
00FE
00FE
00FE
00FE
00FE
00FE
00FE
00FE
00FE
00FE
00FE
00FE
00FE
00FE
00FE
00FE
00FE
00FE
00FE
00FE
00FE
00FE
00FE
00FE
00FE
00FE
00FE
00FE
00FE
00FE
00FE
00FE
00FE
00FE
00FE
00FE
00FE
00FE
00FE
00FE
00FE
00FE
00FE
00FE
00FE
00FE
00FE
00FE
00FE
00FE
00FE
00FE
00FE
00FE
00FE
00FE
00FE
00FE
00FE
00FE
00FE
00FE
00FE
00FE
00FE
00FE
00FE
00FE
00FE
00FE
00FE
00FE
00FE
00FE
00FE
00FE
00FE
00FE
00FE
00FE
00FE
00FE
00FE
00FE
00FE
00FE
00FE
00FE
00FE
00FE
00FE
00FE
00FE
00FE
00FE
00FE
00FE
00FE
00FE
00FE
7FFE
FFFE
FFFE
FFFE
FFFE
7FF8
ENDCHAR
STARTCHAR 005E
ENCODING 94
SWIDTH 407 0
DWIDTH 66 0
BBX 61 42 3 70
BITMAP
0000003FE0000000
0000003FF0000000
0000007FF0000000
000000FFF8000000
000000FFFC000000
000001FFFC000000
000003FFFE000000
000003FFFE000000
000007FFFF000000
000007FDFF800000
00000FF8FF800000
00001FF8FFC00000
00001FF07FE00000
00003FE07FE00000
00007FE03FF00000
00007FC01FF00000
0000FF801FF80000
0001FF800FFC0000
0001FF0007FC0000
0003FF0007FE0000
0003FE0003FF0000
0007FC0001FF0000
000FFC0001FF8000
000FF80000FF8000
001FF00000FFC000
003FF000007FE000
003FE000003FE000
007FE000003FF000
007FC000001FF800
00FF8000000FF800
01FF8000000FFC00
01FF00000007FC00
03FE00000003FE00
07FE00000003FF00
07FC00000001FF00
0FF800000001FF80
1FF800000000FFC0
1FF0000000007FC0
3FF0000000007FE0
3FE0000000003FE0
7FC0000000001FF0
FFC0000000001FF8
ENDCHAR
STARTCHAR 005F
ENCODING 95
SWIDTH 382 0
DWIDTH 62 0
BBX 63 5 0 -13
BITMAP
FFFFFFFFFFFFFFFE
FFFFFFFFFFFFFFFE
FFFFFFFFFFFFFFFE
FFFFFFFFFFFFFFFE
FFFFFFFFFFFFFFFE
ENDCHAR
STARTCHAR 0060
ENCODING 96
SWIDTH 228 0
DWIDTH 37 0
BBX 22 18 5 118
BITMAP
780000
FC0000
FF0000
FF8000
7FC000
3FF000
1FF800
0FFC00
03FF00
01FF80
00FFC0
007FF0
001FF8
000FFC
0007FC
0001FC
0000FC
000078
ENDCHAR
STARTCHAR 0061
ENCODING 97
SWIDTH 259 0
DWIDTH 42 0
BBX 37 115 0 -1
BITMAP
00007FE000
0003FFFC00
0007FFFF00
001FFFFF80
001FFFFFC0
003FFFFFC0
007F803FE0
007E000FE0
00FE0007F0
00FE0007F0
00FC0007F0
01FC0003F8
01FC0003F8
01FC0003F8
01FC0003F8
01FC0003F8
01FC0003F8
01FC0003F8
01FC0003F8
01FC0003F8
01FC0003F8
01FC0003F8
01FC0003F8
01FC0003F8
01FC0003F8
01FC0003F8
01FC0003F8
01FC0003F8
01FC0003F8
01FC0003F8
01FC0003F8
01FC0003F8
01FC0003F8
01FC0003F8
01FC0003F8
01FC0003F8
01FC0003F8
01FC0003F8
01FC0003F8
01FC0003F8
01FC0003F8
01FC0003F8
01FC0003F8
01FC0003F8
01FC0003F8
01FC0003F8
01FC0003F8
01FC0003F8
01FC0003F8
01FC0003F8
01FC0003F8
01FC0003F8
01FC0003F8
01FC0003F8
01FC0003F8
01FC0003F8
01FC0003F8
01FC0003F8
01FC0003F8
01FC0003F8
01FC0003F8
01FC0003F8
01FC0003F8
01FC0003F8
7FFFFFFFF8
FFFFFFFFF8
FFFFFFFFF8
FFFFFFFFF8
FFFFFFFFF8
7FFFFFFFF8
01FC0003F8
01FC0003F8
01FC0003F8
01FC0003F8
01FC0003F8
01FC0003F8
01FC0003F8
01FC0003F8
01FC0003F8
01FC0003F8
01FC0003F8
01FC0003F8
01FC0003F8
01FC0003F8
01FC0003F8
01FC0003F8
01FC0003F8
01FC0003F8
01FC0003F8
01FC0003F8
01FC0003F8
01FC0003F8
01FC0003F8
01FC0003F8
01FC0003F8
01FC0003F8
01FC0003F8
01FC0003F8
01FC0003F8
01FC0003F8
01FC0003F8
01FC0003F8
01FC0003F8
01FC0003F8
01FC0003F8
01FC0003F8
01FC0003F8
01FC0003F8
01FC0003F8
01FC0003F8
01FC0003F8
01FC0003F8
01FC0003F8
00F80001F0
00700000F0
ENDCHAR
STARTCHAR 0062
ENCODING 98
SWIDTH 259 0
DWIDTH 42 0
BBX 39 113 -1 0
BITMAP
00FFFFF000
00FFFFFF00
00FFFFFF80
00FFFFFFE0
00FFFFFFF0
00FFFFFFF0
00FE001FF8
00FE0007F8
00FE0003FC
00FE0001FC
00FE0001FC
00FE0001FE
00FE0000FE
00FE0000FE
00FE0000FE
00FE0000FE
00FE0000FE
00FE0000FE
00FE0000FE
00FE0000FE
00FE0000FE
00FE0000FE
00FE0000FE
00FE0000FE
00FE0000FE
00FE0000FE
00FE0000FE
00FE0000FE
00FE0000FE
00FE0000FE
00FE0000FE
00FE0000FE
00FE0000FE
00FE0000FE
00FE0000FE
00FE0000FE
00FE0000FE
00FE0000FE
00FE0000FE
00FE0000FE
00FE0000FE
00FE0000FE
00FE0000FE
00FE0000FE
00FE0000FE
00FE0000FE
00FE0000FE
00FE0000FE
00FE0000FE
00FE0000FE
00FE0000FE
00FE0000FE
00FE0000FE
00FE0000FE
00FE0000FE
00FE0000FE
00FE0000FE
00FE0001FE
00FE0001FE
00FE0001FC
00FE0003FC
00FE0007F8
00FE001FF8
3FFFFFFFF0
7FFFFFFFE0
FFFFFFFFC0
FFFFFFFFE0
7FFFFFFFF0
3FFFFFFFF8
00FE001FF8
00FE0007FC
00FE0003FC
00FE0001FC
00FE0001FE
00FE0000FE
00FE0000FE
00FE0000FE
00FE0000FE
00FE0000FE
00FE0000FE
00FE0000FE
00FE0000FE
00FE0000FE
00FE0000FE
00FE0000FE
00FE0000FE
00FE0000FE
00FE0000FE
00FE0000FE
00FE0000FE
00FE0000FE
00FE0000FE
00FE0000FE
00FE0000FE
00FE0000FE
00FE0000FE
00FE0000FE
00FE0000FE
00FE0000FE
00FE0000FE
00FE0000FE
00FE0001FE
00FE0001FC
00FE0001FC
00FE0003FC
00FE0007F8
00FE000FF8
00FFFFFFF0
00FFFFFFE0
00FFFFFFC0
00FFFFFF80
00FFFFFE00
00FFFFF000
ENDCHAR
STARTCHAR 0063
ENCODING 99
SWIDTH 228 0
DWIDTH 37 0
BBX 31 116 3 -2
BITMAP
001FF000
01FFFE00
03FFFF80
0FFFFFE0
1FFFFFE0
1FFFFFF0
3FF01FF8
3F8003F8
7F8001FC
7F0001FC
7F0001FC
FE0000FE
FE0000FE
FE0000FE
FE0000FE
FE0000FE
FE0000FE
FE0000FE
FE0000FE
FE0000FE
FE0000FE
FE0000FE
FE0000FE
FE0000FE
FE0000FE
FE0000FE
FE0000FE
FE00007C
FE00007C
FE000000
FE000000
FE000000
FE000000
FE000000
FE000000
FE000000
FE000000
FE000000
FE000000
FE000000
FE000000
FE000000
FE000000
FE000000
FE000000
FE000000
FE000000
FE000000
FE000000
FE000000
FE000000
FE000000
FE000000
FE000000
FE000000
FE000000
FE000000
FE000000
FE000000
FE000000
FE000000
FE000000
FE000000
FE000000
FE000000
FE000000
FE000000
FE000000
FE000000
FE000000
FE000000
FE000000
FE000000
FE000000
FE000000
FE000000
FE000000
FE000000
FE000000
FE000000
FE000000
FE000000
FE000000
FE000000
FE000000
FE000000
FE000000
FE00007C
FE0000FC
FE0000FE
FE0000FE
FE0000FE
FE0000FE
FE0000FE
FE0000FE
FE0000FE
FE0000FE
FE0000FE
FE0000FE
FE0000FE
FE0000FE
FE0000FE
FE0000FE
FE0000FE
FE0001FE
7F0001FC
7F0001FC
7F0003FC
3F8007F8
3FF01FF8
1FFFFFF0
1FFFFFF0
0FFFFFE0
07FFFF80
01FFFF00
003FF000
ENDCHAR
STARTCHAR 0064
ENCODING 100
SWIDTH 246 0
DWIDTH 40 0
BBX 31 113 4 0
BITMAP
FFFFF000
FFFFFE00
FFFFFF80
FFFFFFE0
FFFFFFF0
FFFFFFF0
FE001FF8
FE0007F8
FE0003FC
FE0001FC
FE0001FC
FE0001FE
FE0000FE
FE0000FE
FE0000FE
FE0000FE
FE0000FE
FE0000FE
FE0000FE
FE0000FE
FE0000FE
FE0000FE
FE0000FE
FE0000FE
FE0000FE
FE0000FE
FE0000FE
FE0000FE
FE0000FE
FE0000FE
FE0000FE
FE0000FE
FE0000FE
FE0000FE
FE0000FE
FE0000FE
FE0000FE
FE0000FE
FE0000FE
FE0000FE
FE0000FE
FE0000FE
FE0000FE
FE0000FE
FE0000FE
FE0000FE
FE0000FE
FE0000FE
FE0000FE
FE0000FE
FE0000FE
FE0000FE
FE0000FE
FE0000FE
FE0000FE
FE0000FE
FE0000FE
FE0000FE
FE0000FE
FE0000FE
FE0000FE
FE0000FE
FE0000FE
FE0000FE
FE0000FE
FE0000FE
FE0000FE
FE0000FE
FE0000FE
FE0000FE
FE0000FE
FE0000FE
FE0000FE
FE0000FE
FE0000FE
FE0000FE
FE0000FE
FE0000FE
FE0000FE
FE0000FE
FE0000FE
FE0000FE
FE0000FE
FE0000FE
FE0000FE
FE0000FE
FE0000FE
FE0000FE
FE0000FE
FE0000FE
FE0000FE
FE0000FE
FE0000FE
FE0000FE
FE0000FE
FE0000FE
FE0000FE
FE0000FE
FE0000FE
FE0000FE
FE0000FE
FE0000FE
FE0001FC
FE0001FC
FE0001FC
FE0003F8
FE001FF8
FFFFFFF0
FFFFFFE0
FFFFFFC0
FFFFFF80
FFFFFE00
FFFFF000
ENDCHAR
STARTCHAR 0065
ENCODING 101
SWIDTH 228 0
DWIDTH 37 0
BBX 36 114 0 -1
BITMAP
007FFFFFC0
00FFFFFFE0
01FFFFFFF0
01FFFFFFF0
01FFFFFFE0
01FFFFFFC0
01FC000000
01FC000000
01FC000000
01FC000000
01FC000000
01FC000000
01FC000000
01FC000000
01FC000000
01FC000000
01FC000000
01FC000000
01FC000000
01FC000000
01FC000000
01FC000000
01FC000000
01FC000000
01FC000000
01FC000000
01FC000000
01FC000000
01FC000000
01FC000000
01FC000000
01FC000000
01FC000000
01FC000000
01FC000000
01FC000000
01FC000000
01FC000000
01FC000000
01FC000000
01FC000000
01FC000000
01FC000000
01FC000000
01FC000000
01FC000000
01FC000000
01FC000000
01FC000000
01FC000000
01FC000000
01FC000000
01FC000000
01FC000000
01FC000000
01FC000000
01FC000000
01FC000000
01FC000000
01FC000000
01FC000000
01FC000000
01FC000000
7FFFFFFFC0
FFFFFFFFE0
FFFFFFFFF0
FFFFFFFFF0
FFFFFFFFE0
7FFFFFFFC0
01FC000000
01FC000000
01FC000000
01FC000000
01FC000000
01FC000000
01FC000000
01FC000000
01FC000000
01FC000000
01FC000000
01FC000000
01FC000000
01FC000000
01FC000000
01FC000000
01FC000000
01FC000000
01FC000000
01FC000000
01FC000000
01FC000000
01FC000000
01FC000000
01FC000000
01FC000000
01FC000000
01FC000000
01FC000000
01FC000000
01FC000000
01FC000000
01FC000000
01FC000000
01FC000000
01FC000000
01FC000000
01FC000000
01FC000000
01FFFFFFC0
01FFFFFFE0
01FFFFFFF0
01FFFFFFF0
00FFFFFFE0
007FFFFFC0
ENDCHAR
STARTCHAR 0066
ENCODING 102
SWIDTH 228 0
DWIDTH 37 0
BBX 36 114 0 -1
BITMAP
007FFFFFE0
00FFFFFFE0
01FFFFFFF0
01FFFFFFE0
01FFFFFFE0
01FFFFFFC0
01FC000000
01FC000000
01FC000000
01FC000000
01FC000000
01FC000000
01FC000000
01FC000000
01FC000000
01FC000000
01FC000000
01FC000000
01FC000000
01FC000000
01FC000000
01FC000000
01FC000000
01FC000000
01FC000000
01FC000000
01FC000000
01FC000000
01FC000000
01FC000000
01FC000000
01FC000000
01FC000000
01FC000000
01FC000000
01FC000000
01FC000000
01FC000000
01FC000000
01FC000000
01FC000000
01FC000000
01FC000000
01FC000000
01FC000000
01FC000000
01FC000000
01FC000000
01FC000000
01FC000000
01FC000000
01FC000000
01FC000000
01FC000000
01FC000000
01FC000000
01FC000000
01FC000000
01FC000000
01FC000000
01FC000000
01FC000000
01FC000000
7FFFFFFFC0
FFFFFFFFE0
FFFFFFFFF0
FFFFFFFFF0
FFFFFFFFE0
7FFFFFFFC0
01FC000000
01FC000000
01FC000000
01FC000000
01FC000000
01FC000000
01FC000000
01FC000000
01FC000000
01FC000000
01FC000000
01FC000000
01FC000000
01FC000000
01FC000000
01FC000000
01FC000000
01FC000000
01FC000000
01FC000000
01FC000000
01FC000000
01FC000000
01FC000000
01FC000000
01FC000000
01FC000000
01FC000000
01FC000000
01FC000000
01FC000000
01FC000000
01FC000000
01FC000000
01FC000000
01FC000000
01FC000000
01FC000000
01FC000000
01FC000000
01FC000000
01FC000000
01FC000000
00F8000000
0070000000
ENDCHAR
STARTCHAR 0067
ENCODING 103
SWIDTH 246 0
DWIDTH 40 0
BBX 31 116 4 -2
BITMAP
001FF000
00FFFE00
03FFFF80
0FFFFFC0
1FFFFFE0
1FFFFFF0
3FF00FF8
3FC003F8
7F8001FC
7F0001FC
7F0000FC
FE0000FC
FE0000FE
FE0000FE
FE0000FE
FE0000FE
FE00007E
FE00007E
FE00007E
FE00007E
FE00007E
FE00007E
FE00007E
FE00007E
FE00007E
FE00007E
FE00007E
FE00007C
FE000018
FE000000
FE000000
FE000000
FE000000
FE000000
FE000000
FE000000
FE000000
FE000000
FE000000
FE000000
FE000000
FE000000
FE000000
FE000000
FE000000
FE000000
FE000000
FE000000
FE000000
FE000000
FE000000
FE000000
FE000000
FE000000
FE000000
FE000000
FE000000
FE000000
FE000000
FE000000
FE000000
FE000000
FE000000
FE000000
FE00FFFC
FE01FFFC
FE01FFFE
FE01FFFE
FE01FFFE
FE00FFFE
FE0000FE
FE0000FE
FE0000FE
FE0000FE
FE0000FE
FE0000FE
FE0000FE
FE0000FE
FE0000FE
FE0000FE
FE0000FE
FE0000FE
FE0000FE
FE0000FE
FE0000FE
FE0000FE
FE0000FE
FE0000FE
FE0000FE
FE0000FE
FE0000FE
FE0000FE
FE0000FE
FE0000FE
FE0000FE
FE0000FE
FE0000FE
FE0000FE
FE0000FE
FE0000FE
FE0000FE
FE0000FE
FE0000FE
FE0000FE
FF0000FE
7F0001FC
7F0001FC
7F8003FC
3FC007F8
3FF01FF8
1FFFFFF0
0FFFFFE0
07FFFFC0
03FFFF80
00FFFF00
001FF800
ENDCHAR
STARTCHAR 0068
ENCODING 104
SWIDTH 259 0
DWIDTH 42 0
BBX 37 114 0 -1
BITMAP
00700000E0
00F80001F0
01FC0003F8
01FC0003F8
01FC0003F8
01FC0003F8
01FC0003F8
01FC0003F8
01FC0003F8
01FC0003F8
01FC0003F8
01FC0003F8
01FC0003F8
01FC0003F8
01FC0003F8
01FC0003F8
01FC0003F8
01FC0003F8
01FC0003F8
01FC0003F8
01FC0003F8
01FC0003F8
01FC0003F8
01FC0003F8
01FC0003F8
01FC0003F8
01FC0003F8
01FC0003F8
01FC0003F8
01FC0003F8
01FC0003F8
01FC0003F8
01FC0003F8
01FC0003F8
01FC0003F8
01FC0003F8
01FC0003F8
01FC0003F8
01FC0003F8
01FC0003F8
01FC0003F8
01FC0003F8
01FC0003F8
01FC0003F8
01FC0003F8
01FC0003F8
01FC0003F8
01FC0003F8
01FC0003F8
01FC0003F8
01FC0003F8
01FC0003F8
01FC0003F8
01FC0003F8
01FC0003F8
01FC0003F8
01FC0003F8
01FC0003F8
01FC0003F8
01FC0003F8
01FC0003F8
01FC0003F8
01FC0003F8
7FFFFFFFF8
FFFFFFFFF8
FFFFFFFFF8
FFFFFFFFF8
FFFFFFFFF8
7FFFFFFFF8
01FC0003F8
01FC0003F8
01FC0003F8
01FC0003F8
01FC0003F8
01FC0003F8
01FC0003F8
01FC0003F8
01FC0003F8
01FC0003F8
01FC0003F8
01FC0003F8
01FC0003F8
01FC0003F8
01FC0003F8
01FC0003F8
01FC0003F8
01FC0003F8
01FC0003F8
01FC0003F8
01FC0003F8
01FC0003F8
01FC0003F8
01FC0003F8
01FC0003F8
01FC0003F8
01FC0003F8
01FC0003F8
01FC0003F8
01FC0003F8
01FC0003F8
01FC0003F8
01FC0003F8
01FC0003F8
01FC0003F8
01FC0003F8
01FC0003F8
01FC0003F8
01FC0003F8
01FC0003F8
01FC0003F8
01FC0003F8
01FC0003F8
00F80001F0
00700000F0
ENDCHAR
STARTCHAR 0069
ENCODING 105
SWIDTH 86 0
DWIDTH 14 0
BBX 7 114 3 -1
BITMAP
38
7C
FE
FE
FE
FE
FE
FE
FE
FE
FE
FE
FE
FE
FE
FE
FE
FE
FE
FE
FE
FE
FE
FE
FE
FE
FE
FE
FE
FE
FE
FE
FE
FE
FE
FE
FE
FE
FE
FE
FE
FE
FE
FE
FE
FE
FE
FE
FE
FE
FE
FE
FE
FE
FE
FE
FE
FE
FE
FE
FE
FE
FE
FE
FE
FE
FE
FE
FE
FE
FE
FE
FE
FE
FE
FE
FE
FE
FE
FE
FE
FE
FE
FE
FE
FE
FE
FE
FE
FE
FE
FE
FE
FE
FE
FE
FE
FE
FE
FE
FE
FE
FE
FE
FE
FE
FE
FE
FE
FE
FE
FE
FC
38
ENDCHAR
STARTCHAR 006A
ENCODING 106
SWIDTH 216 0
DWIDTH 35 0
BBX 31 115 0 -2
BITMAP
00000038
0000007C
000000FE
000000FE
000000FE
000000FE
000000FE
000000FE
000000FE
000000FE
000000FE
000000FE
000000FE
000000FE
000000FE
000000FE
000000FE
000000FE
000000FE
000000FE
000000FE
000000FE
000000FE
000000FE
000000FE
000000FE
000000FE
000000FE
000000FE
000000FE
000000FE
000000FE
000000FE
000000FE
000000FE
000000FE
000000FE
000000FE
000000FE
000000FE
000000FE
000000FE
000000FE
000000FE
000000FE
000000FE
000000FE
000000FE
000000FE
000000FE
000000FE
000000FE
000000FE
000000FE
000000FE
000000FE
000000FE
000000FE
000000FE
000000FE
000000FE
000000FE
000000FE
000000FE
000000FE
000000FE
000000FE
000000FE
000000FE
000000FE
000000FE
000000FE
000000FE
000000FE
000000FE
000000FE
000000FE
000000FE
000000FE
000000FE
000000FE
000000FE
000000FE
000000FE
000000FE
000000FE
380000FE
7C0000FE
FE0000FE
FE0000FE
FE0000FE
FE0000FE
FE0000FE
FE0000FE
FE0000FE
FE0000FE
FE0000FE
FE0000FE
FE0000FE
FE0000FE
FE0000FE
FE0000FE
FE0000FE
FE0001FE
7F0001FC
7F0001FC
7F8003FC
3FC007F8
3FF01FF8
1FFFFFF0
0FFFFFE0
07FFFFC0
03FFFF80
00FFFE00
001FF000
ENDCHAR
STARTCHAR 006B
ENCODING 107
SWIDTH 290 0
DWIDTH 47 0
BBX 48 114 0 -1
BITMAP
00700000F800
00F80001F800
01FC0001FC00
01FC0001FC00
01FC0001FC00
01FC0001FC00
01FC0001FC00
01FC0001FC00
01FC0001FC00
01FC0001FC00
01FC0001FC00
01FC0001FC00
01FC0001FC00
01FC0001FC00
01FC0001FC00
01FC0001FC00
01FC0001FC00
01FC0001FC00
01FC0001FC00
01FC0001FC00
01FC0001FC00
01FC0001FC00
01FC0001FC00
01FC0001FC00
01FC0001FC00
01FC0001FC00
01FC0001FC00
01FC0001FC00
01FC0001FC00
01FC0001FC00
01FC0001FC00
01FC0001FC00
01FC0001FC00
01FC0001FC00
01FC0001FC00
01FC0001FC00
01FC0001FC00
01FC0001FC00
01FC0001FC00
01FC0001FC00
01FC0001FC00
01FC0001FC00
01FC0001FC00
01FC0001FC00
01FC0001FC00
01FC0001FC00
01FC0001FC00
01FC0001FC00
01FC0001FC00
01FC0001FC00
01FC0001FC00
01FC0001FC00
01FC0001FC00
01FC0001FC00
01FC0001FC00
01FC0001FC00
01FC0001FC00
01FC0001FC00
01FC0003FC00
01FC0003F800
01FC0007F800
01FC000FF000
01FC003FF000
7FFFFFFFE000
FFFFFFFFC000
FFFFFFFF8000
FFFFFFFFC000
FFFFFFFFE000
7FFFFFFFF000
01FC003FF000
01FC0007F800
01FC0003F800
01FC0003F800
01FC0003FC00
01FC0001FC00
01FC0001FC00
01FC0001FC00
01FC0001FC00
01FC0001FC00
01FC0001FC00
01FC0001FC00
01FC0001FC00
01FC0001FC00
01FC0001FC00
01FC0001FC00
01FC0001FC00
01FC0001FC00
01FC0001FC00
01FC0001FC00
01FC0001FC00
01FC0001FC00
01FC0001FC00
01FC0001FC00
01FC0001FC00
01FC0001FC00
01FC0001FC00
01FC0001FC00
01FC0001FC00
01FC0001FC00
01FC0001FC00
01FC0001FC00
01FC0001FC00
01FC0001FC00
01FC0001FE00
01FC0000FE00
01FC0000FF00
01FC00007FC0
01FC00007FF0
01FC00003FFC
01FC00001FFF
01FC00000FFF
01FC000007FF
00F8000003FF
00700000007E
ENDCHAR
STARTCHAR 006C
ENCODING 108
SWIDTH 203 0
DWIDTH 33 0
BBX 29 114 3 -1
BITMAP
38000000
7C000000
FE000000
FE000000
FE000000
FE000000
FE000000
FE000000
FE000000
FE000000
FE000000
FE000000
FE000000
FE000000
FE000000
FE000000
FE000000
FE000000
FE000000
FE000000
FE000000
FE000000
FE000000
FE000000
FE000000
FE000000
FE000000
FE000000
FE000000
FE000000
FE000000
FE000000
FE000000
FE000000
FE000000
FE000000
FE000000
FE000000
FE000000
FE000000
FE000000
FE000000
FE000000
FE000000
FE000000
FE000000
FE000000
FE000000
FE000000
FE000000
FE000000
FE000000
FE000000
FE000000
FE000000
FE000000
FE000000
FE000000
FE000000
FE000000
FE000000
FE000000
FE000000
FE000000
FE000000
FE000000
FE000000
FE000000
FE000000
FE000000
FE000000
FE000000
FE000000
FE000000
FE000000
FE000000
FE000000
FE000000
FE000000
FE000000
FE000000
FE000000
FE000000
FE000000
FE000000
FE000000
FE000000
FE000000
FE000000
FE000000
FE000000
FE000000
FE000000
FE000000
FE000000
FE000000
FE000000
FE000000
FE000000
FE000000
FE000000
FE000000
FE000000
FE000000
FE000000
FE000000
FE000000
FE000000
FFFFFFF0
FFFFFFF8
FFFFFFF8
FFFFFFF8
7FFFFFF8
7FFFFFF0
ENDCHAR
STARTCHAR 006D
ENCODING 109
SWIDTH 388 0
DWIDTH 63 0
BBX 55 115 3 -1
BITMAP
003FF8001FF000
01FFFF007FFE00
07FFFF81FFFF80
0FFFFFC3FFFFC0
1FFFFFEFFFFFE0
3FFFFFFFFFFFF0
3FF01FFFF00FF8
7FC007FFC003F8
7F8003FF8001FC
7F0001FF8001FC
7F0001FF0001FC
FF0001FF0000FC
FE0000FE0000FE
FE0000FE0000FE
FE0000FE0000FE
FE0000FE0000FE
FE0000FE0000FE
FE0000FE0000FE
FE0000FE0000FE
FE0000FE0000FE
FE0000FE0000FE
FE0000FE0000FE
FE0000FE0000FE
FE0000FE0000FE
FE0000FE0000FE
FE0000FE0000FE
FE0000FE0000FE
FE0000FE0000FE
FE0000FE0000FE
FE0000FE0000FE
FE0000FE0000FE
FE0000FE0000FE
FE0000FE0000FE
FE0000FE0000FE
FE0000FE0000FE
FE0000FE0000FE
FE0000FE0000FE
FE0000FE0000FE
FE0000FE0000FE
FE0000FE0000FE
FE0000FE0000FE
FE0000FE0000FE
FE0000FE0000FE
FE0000FE0000FE
FE0000FE0000FE
FE0000FE0000FE
FE0000FE0000FE
FE0000FE0000FE
FE0000FE0000FE
FE0000FE0000FE
FE0000FE0000FE
FE0000FE0000FE
FE0000FE0000FE
FE0000FE0000FE
FE0000FE0000FE
FE0000FE0000FE
FE0000FE0000FE
FE0000FE0000FE
FE0000FE0000FE
FE0000FE0000FE
FE0000FE0000FE
FE0000FE0000FE
FE0000FE0000FE
FE0000FE0000FE
FE0000FE0000FE
FE0000FE0000FE
FE0000FE0000FE
FE0000FE0000FE
FE0000FE0000FE
FE0000FE0000FE
FE0000FE0000FE
FE0000FE0000FE
FE0000FE0000FE
FE0000FE0000FE
FE0000FE0000FE
FE0000FE0000FE
FE0000FE0000FE
FE0000FE0000FE
FE0000FE0000FE
FE0000FE0000FE
FE0000FE0000FE
FE0000FE0000FE
FE0000FE0000FE
FE0000FE0000FE
FE0000FE0000FE
FE0000FE0000FE
FE0000FE0000FE
FE0000FE0000FE
FE0000FE0000FE
FE0000FE0000FE
FE0000FE0000FE
FE0000FE0000FE
FE0000FE0000FE
FE0000FE0000FE
FE0000FE0000FE
FE0000FE0000FE
FE0000FE0000FE
FE0000FE0000FE
FE0000FE0000FE
FE0000FE0000FE
FE0000FE0000FE
FE0000FE0000FE
FE0000FE0000FE
FE0000FE0000FE
FE0000FE0000FE
FE0000FE0000FE
FE0000FE0000FE
FE0000FE0000FE
FE0000FE0000FE
FE0000FE0000FE
FE0000FE0000FE
FE0000FE0000FE
FE0000FE0000FE
7C0000FC00007C
78000078000078
ENDCHAR
STARTCHAR 006E
ENCODING 110
SWIDTH 246 0
DWIDTH 40 0
BBX 33 115 3 -1
BITMAP
003FFC0000
3DFFFF8000
7FFFFFE000
FFFFFFF000
FFFFFFF800
FFFFFFFC00
FFF807FE00
FFE001FE00
FFC000FF00
FF80007F00
FF00007F00
FF00007F00
FF00003F80
FE00003F80
FE00003F80
FE00003F80
FE00003F80
FE00003F80
FE00003F80
FE00003F80
FE00003F80
FE00003F80
FE00003F80
FE00003F80
FE00003F80
FE00003F80
FE00003F80
FE00003F80
FE00003F80
FE00003F80
FE00003F80
FE00003F80
FE00003F80
FE00003F80
FE00003F80
FE00003F80
FE00003F80
FE00003F80
FE00003F80
FE00003F80
FE00003F80
FE00003F80
FE00003F80
FE00003F80
FE00003F80
FE00003F80
FE00003F80
FE00003F80
FE00003F80
FE00003F80
FE00003F80
FE00003F80
FE00003F80
FE00003F80
FE00003F80
FE00003F80
FE00003F80
FE00003F80
FE00003F80
FE00003F80
FE00003F80
FE00003F80
FE00003F80
FE00003F80
FE00003F80
FE00003F80
FE00003F80
FE00003F80
FE00003F80
FE00003F80
FE00003F80
FE00003F80
FE00003F80
FE00003F80
FE00003F80
FE00003F80
FE00003F80
FE00003F80
FE00003F80
FE00003F80
FE00003F80
FE00003F80
FE00003F80
FE00003F80
FE00003F80
FE00003F80
FE00003F80
FE00003F80
FE00003F80
FE00003F80
FE00003F80
FE00003F80
FE00003F80
FE00003F80
FE00003F80
FE00003F80
FE00003F80
FE00003F80
FE00003F80
FE00003F80
FE00003F80
FE00003F80
FE00003F80
FE00003F80
FE00003F80
FE00003F80
FE00003F80
FE00003F80
FE00003F80
FE00003F80
FE00003F80
FE00003F80
FE00003F80
7C00003F80
7800001F00
ENDCHAR
STARTCHAR 006F
ENCODING 111
SWIDTH 246 0
DWIDTH 40 0
BBX 31 116 4 -2
BITMAP
003FF000
01FFFE00
07FFFF80
0FFFFFC0
1FFFFFE0
1FFFFFF0
3FE00FF8
3F8003F8
7F0001FC
7F0001FC
7F0001FC
FE0000FC
FE0000FE
FE0000FE
FE0000FE
FE0000FE
FE0000FE
FE0000FE
FE0000FE
FE0000FE
FE0000FE
FE0000FE
FE0000FE
FE0000FE
FE0000FE
FE0000FE
FE0000FE
FE0000FE
FE0000FE
FE0000FE
FE0000FE
FE0000FE
FE0000FE
FE0000FE
FE0000FE
FE0000FE
FE0000FE
FE0000FE
FE0000FE
FE0000FE
FE0000FE
FE0000FE
FE0000FE
FE0000FE
FE0000FE
FE0000FE
FE0000FE
FE0000FE
FE0000FE
FE0000FE
FE0000FE
FE0000FE
FE0000FE
FE0000FE
FE0000FE
FE0000FE
FE0000FE
FE0000FE
FE0000FE
FE0000FE
FE0000FE
FE0000FE
FE0000FE
FE0000FE
FE0000FE
FE0000FE
FE0000FE
FE0000FE
FE0000FE
FE0000FE
FE0000FE
FE0000FE
FE0000FE
FE0000FE
FE0000FE
FE0000FE
FE0000FE
FE0000FE
FE0000FE
FE0000FE
FE0000FE
FE0000FE
FE0000FE
FE0000FE
FE0000FE
FE0000FE
FE0000FE
FE0000FE
FE0000FE
FE0000FE
FE0000FE
FE0000FE
FE0000FE
FE0000FE
FE0000FE
FE0000FE
FE0000FE
FE0000FE
FE0000FE
FE0000FE
FE0000FE
FE0000FE
FE0000FE
FE0000FE
FF0001FE
7F0001FC
7F0001FC
7F8003FC
3FC007F8
3FF01FF8
1FFFFFF0
1FFFFFE0
0FFFFFC0
03FFFF80
01FFFE00
003FF000
ENDCHAR
STARTCHAR 0070
ENCODING 112
SWIDTH 246 0
DWIDTH 40 0
BBX 38 114 0 -1
BITMAP
01FFFFE000
01FFFFFE00
01FFFFFF00
01FFFFFFC0
01FFFFFFE0
01FFFFFFE0
01FC003FF0
01FC000FF0
01FC0007F8
01FC0003F8
01FC0003F8
01FC0003FC
01FC0001FC
01FC0001FC
01FC0001FC
01FC0001FC
01FC0001FC
01FC0001FC
01FC0001FC
01FC0001FC
01FC0001FC
01FC0001FC
01FC0001FC
01FC0001FC
01FC0001FC
01FC0001FC
01FC0001FC
01FC0001FC
01FC0001FC
01FC0001FC
01FC0001FC
01FC0001FC
01FC0001FC
01FC0001FC
01FC0001FC
01FC0001FC
01FC0001FC
01FC0001FC
01FC0001FC
01FC0001FC
01FC0001FC
01FC0001FC
01FC0001FC
01FC0001FC
01FC0001FC
01FC0001FC
01FC0001FC
01FC0001FC
01FC0001FC
01FC0001FC
01FC0001FC
01FC0001FC
01FC0001FC
01FC0001FC
01FC0001FC
01FC0001FC
01FC0001FC
01FC0003F8
01FC0003F8
01FC0003F8
01FC0007F8
01FC000FF0
01FC003FF0
7FFFFFFFE0
FFFFFFFFC0
FFFFFFFF80
FFFFFFFF00
FFFFFFFC00
7FFFFFE000
01FC000000
01FC000000
01FC000000
01FC000000
01FC000000
01FC000000
01FC000000
01FC000000
01FC000000
01FC000000
01FC000000
01FC000000
01FC000000
01FC000000
01FC000000
01FC000000
01FC000000
01FC000000
01FC000000
01FC000000
01FC000000
01FC000000
01FC000000
01FC000000
01FC000000
01FC000000
01FC000000
01FC000000
01FC000000
01FC000000
01FC000000
01FC000000
01FC000000
01FC000000
01FC000000
01FC000000
01FC000000
01FC000000
01FC000000
01FC000000
01FC000000
01FC000000
01FC000000
00F8000000
0070000000
ENDCHAR
STARTCHAR 0071
ENCODING 113
SWIDTH 246 0
DWIDTH 40 0
BBX 35 117 4 -3
BITMAP
003FF00000
01FFFE0000
07FFFF8000
0FFFFFC000
1FFFFFE000
3FFFFFF000
3FE01FF800
7F8007F800
7F0003FC00
7F0001FC00
7F0001FC00
FE0001FC00
FE0000FE00
FE0000FE00
FE0000FE00
FE0000FE00
FE0000FE00
FE0000FE00
FE0000FE00
FE0000FE00
FE0000FE00
FE0000FE00
FE0000FE00
FE0000FE00
FE0000FE00
FE0000FE00
FE0000FE00
FE0000FE00
FE0000FE00
FE0000FE00
FE0000FE00
FE0000FE00
FE0000FE00
FE0000FE00
FE0000FE00
FE0000FE00
FE0000FE00
FE0000FE00
FE0000FE00
FE0000FE00
FE0000FE00
FE0000FE00
FE0000FE00
FE0000FE00
FE0000FE00
FE0000FE00
FE0000FE00
FE0000FE00
FE0000FE00
FE0000FE00
FE0000FE00
FE0000FE00
FE0000FE00
FE0000FE00
FE0000FE00
FE0000FE00
FE0000FE00
FE0000FE00
FE0000FE00
FE0000FE00
FE0000FE00
FE0000FE00
FE0000FE00
FE0000FE00
FE0000FE00
FE0000FE00
FE0000FE00
FE0000FE00
FE0000FE00
FE0000FE00
FE0000FE00
FE0000FE00
FE0000FE00
FE0000FE00
FE0000FE00
FE0000FE00
FE0000FE00
FE0000FE00
FE0000FE00
FE0000FE00
FE0000FE00
FE0000FE00
FE0000FE00
FE0000FE00
FE0000FE00
FE0000FE00
FE0000FE00
FE0000FE00
FE0000FE00
FE0000FE00
FE0000FE00
FE0000FE00
FE0000FE00
FE0000FE00
FE0000FE00
FE0000FE00
FE0000FE00
FE0000FE00
FE0000FE00
FE03C0FE00
FE07F0FE00
FE07F8FE00
FE03FDFE00
FE03FFFE00
FE01FFFE00
7F007FFC00
7F003FFC00
7F801FFC00
3FC00FFC00
3FE01FFE00
1FFFFFFF00
0FFFFFFF80
07FFFFFFC0
03FFFF1FE0
00FFFE0FE0
001FF007E0
00000001C0
ENDCHAR
STARTCHAR 0072
ENCODING 114
SWIDTH 290 0
DWIDTH 47 0
BBX 48 114 0 -1
BITMAP
01FFFFF00000
01FFFFFE0000
01FFFFFF8000
01FFFFFFC000
01FFFFFFE000
01FFFFFFE000
01FC003FF000
01FC000FF000
01FC0007F800
01FC0003F800
01FC0003F800
01FC0003FC00
01FC0001FC00
01FC0001FC00
01FC0001FC00
01FC0001FC00
01FC0001FC00
01FC0001FC00
01FC0001FC00
01FC0001FC00
01FC0001FC00
01FC0001FC00
01FC0001FC00
01FC0001FC00
01FC0001FC00
01FC0001FC00
01FC0001FC00
01FC0001FC00
01FC0001FC00
01FC0001FC00
01FC0001FC00
01FC0001FC00
01FC0001FC00
01FC0001FC00
01FC0001FC00
01FC0001FC00
01FC0001FC00
01FC0001FC00
01FC0001FC00
01FC0001FC00
01FC0001FC00
01FC0001FC00
01FC0001FC00
01FC0001FC00
01FC0001FC00
01FC0001FC00
01FC0001FC00
01FC0001FC00
01FC0001FC00
01FC0001FC00
01FC0001FC00
01FC0001FC00
01FC0001FC00
01FC0001FC00
01FC0001FC00
01FC0001FC00
01FC0001FC00
01FC0003FC00
01FC0003F800
01FC0003F800
01FC0007F800
01FC000FF000
01FC003FF000
7FFFFFFFE000
FFFFFFFFC000
FFFFFFFF8000
FFFFFFFFC000
FFFFFFFFE000
7FFFFFFFF000
01FC003FF000
01FC000FF800
01FC0007F800
01FC0003F800
01FC0003FC00
01FC0003FC00
01FC0001FC00
01FC0001FC00
01FC0001FC00
01FC0001FC00
01FC0001FC00
01FC0001FC00
01FC0001FC00
01FC0001FC00
01FC0001FC00
01FC0001FC00
01FC0001FC00
01FC0001FC00
01FC0001FC00
01FC0001FC00
01FC0001FC00
01FC0001FC00
01FC0001FC00
01FC0001FC00
01FC0001FC00
01FC0001FC00
01FC0001FC00
01FC0001FC00
01FC0001FC00
01FC0001FC00
01FC0001FC00
01FC0001FC00
01FC0001FC00
01FC0000FE00
01FC0000FE00
01FC0000FF00
01FC00007F00
01FC00007F80
01FC00003FE0
01FC00001FF8
01FC00001FFE
01FC00000FFF
01FC000007FF
00F8000001FF
00700000007E
ENDCHAR
STARTCHAR 0073
ENCODING 115
SWIDTH 228 0
DWIDTH 37 0
BBX 32 116 3 -2
BITMAP
001FF800
00FFFF00
03FFFFC0
0FFFFFE0
1FFFFFF0
1FFFFFF8
3FF00FFC
3FC003FC
7F8001FE
7F0000FE
7F0000FE
FE0000FE
FE00007F
FE00007F
FE00007F
FE00007F
FE00007F
FE00007F
FE00007F
FE00007F
FE00007F
FE00007F
FE00007F
FE00007F
FE00007F
FE00003E
FE00001C
FE000000
FE000000
FE000000
FE000000
FE000000
FE000000
FE000000
FE000000
FE000000
FE000000
FE000000
FE000000
FE000000
FE000000
FE000000
FE000000
FE000000
FE000000
FE000000
FE000000
FE000000
FE000000
FE000000
FE000000
FE000000
FE000000
FE000000
FE000000
FE000000
FE000000
FE000000
FF000000
FF000000
7F800000
7FE00000
7FF80000
3FFF0000
3FFFFC00
1FFFFF00
0FFFFFC0
03FFFFE0
00FFFFF0
001FFFF8
0000FFFC
00001FFC
000007FE
000003FE
000001FE
000000FE
0000007F
0000007F
0000007F
0000007F
0000007F
0000007F
0000007F
0000007F
0000007F
0000007F
0000007F
3E00007F
7E00007F
7F00007F
7F00007F
7F00007F
7F00007F
7F00007F
7F00007F
7F00007F
7F00007F
7F00007F
7F00007F
7F00007F
7F00007F
7F00007F
7F00007F
7F00007F
7F00007F
3F8000FE
3F8000FE
3FC001FE
1FC003FC
1FF80FFC
0FFFFFF8
07FFFFF8
03FFFFF0
01FFFFC0
007FFF80
000FF800
ENDCHAR
STARTCHAR 0074
ENCODING 116
SWIDTH 185 0
DWIDTH 30 0
BBX 29 114 0 -1
BITMAP
7FFFFFF0
FFFFFFF8
FFFFFFF8
FFFFFFF8
FFFFFFF8
7FFFFFF0
001FC000
001FC000
001FC000
001FC000
001FC000
001FC000
001FC000
001FC000
001FC000
001FC000
001FC000
001FC000
001FC000
001FC000
001FC000
001FC000
001FC000
001FC000
001FC000
001FC000
001FC000
001FC000
001FC000
001FC000
001FC000
001FC000
001FC000
001FC000
001FC000
001FC000
001FC000
001FC000
001FC000
001FC000
001FC000
001FC000
001FC000
001FC000
001FC000
001FC000
001FC000
001FC000
001FC000
001FC000
001FC000
001FC000
001FC000
001FC000
001FC000
001FC000
001FC000
001FC000
001FC000
001FC000
001FC000
001FC000
001FC000
001FC000
001FC000
001FC000
001FC000
001FC000
001FC000
001FC000
001FC000
001FC000
001FC000
001FC000
001FC000
001FC000
001FC000
001FC000
001FC000
001FC000
001FC000
001FC000
001FC000
001FC000
001FC000
001FC000
001FC000
001FC000
001FC000
001FC000
001FC000
001FC000
001FC000
001FC000
001FC000
001FC000
001FC000
001FC000
001FC000
001FC000
001FC000
001FC000
001FC000
001FC000
001FC000
001FC000
001FC000
001FC000
001FC000
001FC000
001FC000
001FC000
000F8000
00070000
ENDCHAR
STARTCHAR 0075
ENCODING 117
SWIDTH 228 0
DWIDTH 37 0
BBX 30 115 3 -2
BITMAP
38000070
7C0000F8
FE0001FC
FE0001FC
FE0001FC
FE0001FC
FE0001FC
FE0001FC
FE0001FC
FE0001FC
FE0001FC
FE0001FC
FE0001FC
FE0001FC
FE0001FC
FE0001FC
FE0001FC
FE0001FC
FE0001FC
FE0001FC
FE0001FC
FE0001FC
FE0001FC
FE0001FC
FE0001FC
FE0001FC
FE0001FC
FE0001FC
FE0001FC
FE0001FC
FE0001FC
FE0001FC
FE0001FC
FE0001FC
FE0001FC
FE0001FC
FE0001FC
FE0001FC
FE0001FC
FE0001FC
FE0001FC
FE0001FC
FE0001FC
FE0001FC
FE0001FC
FE0001FC
FE0001FC
FE0001FC
FE0001FC
FE0001FC
FE0001FC
FE0001FC
FE0001FC
FE0001FC
FE0001FC
FE0001FC
FE0001FC
FE0001FC
FE0001FC
FE0001FC
FE0001FC
FE0001FC
FE0001FC
FE0001FC
FE0001FC
FE0001FC
FE0001FC
FE0001FC
FE0001FC
FE0001FC
FE0001FC
FE0001FC
FE0001FC
FE0001FC
FE0001FC
FE0001FC
FE0001FC
FE0001FC
FE0001FC
FE0001FC
FE0001FC
FE0001FC
FE0001FC
FE0001FC
FE0001FC
FE0001FC
FE0001FC
FE0001FC
FE0001FC
FE0001FC
FE0001FC
FE0001FC
FE0001FC
FE0001FC
FE0001FC
FE0001FC
FE0001FC
FE0001FC
FE0001FC
FE0001FC
FE0001FC
FE0001FC
FE0001FC
FE0003FC
7F0003F8
7F0003F8
7F0007F8
3F800FF0
3FE03FF0
1FFFFFE0
1FFFFFE0
0FFFFFC0
03FFFF00
01FFFE00
003FF000
ENDCHAR
STARTCHAR 0076
ENCODING 118
SWIDTH 216 0
DWIDTH 35 0
BBX 35 114 0 -1
BITMAP
70000003C0
F8000007E0
FC000007E0
FC000007E0
FC00000FE0
FE00000FE0
FE00000FE0
FE00000FE0
7E00000FC0
7E00000FC0
7E00000FC0
7E00001FC0
7E00001FC0
7F00001FC0
7F00001FC0
7F00001FC0
3F00001F80
3F00001F80
3F00001F80
3F00001F80
3F00003F80
3F80003F80
3F80003F80
3F80003F80
1F80003F00
1F80003F00
1F80003F00
1F80003F00
1FC0007F00
1FC0007F00
1FC0007F00
1FC0007F00
0FC0007E00
0FC0007E00
0FC0007E00
0FC0007E00
0FE000FE00
0FE000FE00
0FE000FE00
0FE000FE00
07E000FC00
07E000FC00
07E000FC00
07E000FC00
07F001FC00
07F001FC00
07F001FC00
07F001FC00
03F001F800
03F001F800
03F001F800
03F001F800
03F803F800
03F803F800
03F803F800
03F803F000
01F803F000
01F803F000
01F803F000
01F803F000
01FC03F000
01FC07F000
01FC07F000
01FC07E000
00FC07E000
00FC07E000
00FC07E000
00FC07E000
00FE07E000
00FE0FE000
00FE0FE000
00FE0FC000
007E0FC000
007E0FC000
007E0FC000
007E0FC000
007F0FC000
007F1FC000
007F1FC000
007F1F8000
003F1F8000
003F1F8000
003F1F8000
003F1F8000
003F9F8000
003FBF8000
003FBF8000
003FBF0000
001FBF0000
001FBF0000
001FBF0000
001FFF0000
001FFF0000
001FFF0000
001FFF0000
001FFE0000
000FFE0000
000FFE0000
000FFE0000
000FFE0000
000FFE0000
000FFE0000
000FFE0000
000FFC0000
0007FC0000
0007FC0000
0007FC0000
0007FC0000
0007FC0000
0007FC0000
0007F80000
0003F80000
0003F00000
0000E00000
ENDCHAR
STARTCHAR 0077
ENCODING 119
SWIDTH 388 0
DWIDTH 63 0
BBX 55 115 3 -2
BITMAP
38000038000038
7C00007C00007C
FE0000FE0000FE
FE0000FE0000FE
FE0000FE0000FE
FE0000FE0000FE
FE0000FE0000FE
FE0000FE0000FE
FE0000FE0000FE
FE0000FE0000FE
FE0000FE0000FE
FE0000FE0000FE
FE0000FE0000FE
FE0000FE0000FE
FE0000FE0000FE
FE0000FE0000FE
FE0000FE0000FE
FE0000FE0000FE
FE0000FE0000FE
FE0000FE0000FE
FE0000FE0000FE
FE0000FE0000FE
FE0000FE0000FE
FE0000FE0000FE
FE0000FE0000FE
FE0000FE0000FE
FE0000FE0000FE
FE0000FE0000FE
FE0000FE0000FE
FE0000FE0000FE
FE0000FE0000FE
FE0000FE0000FE
FE0000FE0000FE
FE0000FE0000FE
FE0000FE0000FE
FE0000FE0000FE
FE0000FE0000FE
FE0000FE0000FE
FE0000FE0000FE
FE0000FE0000FE
FE0000FE0000FE
FE0000FE0000FE
FE0000FE0000FE
FE0000FE0000FE
FE0000FE0000FE
FE0000FE0000FE
FE0000FE0000FE
FE0000FE0000FE
FE0000FE0000FE
FE0000FE0000FE
FE0000FE0000FE
FE0000FE0000FE
FE0000FE0000FE
FE0000FE0000FE
FE0000FE0000FE
FE0000FE0000FE
FE0000FE0000FE
FE0000FE0000FE
FE0000FE0000FE
FE0000FE0000FE
FE0000FE0000FE
FE0000FE0000FE
FE0000FE0000FE
FE0000FE0000FE
FE0000FE0000FE
FE0000FE0000FE
FE0000FE0000FE
FE0000FE0000FE
FE0000FE0000FE
FE0000FE0000FE
FE0000FE0000FE
FE0000FE0000FE
FE0000FE0000FE
FE0000FE0000FE
FE0000FE0000FE
FE0000FE0000FE
FE0000FE0000FE
FE0000FE0000FE
FE0000FE0000FE
FE0000FE0000FE
FE0000FE0000FE
FE0000FE0000FE
FE0000FE0000FE
FE0000FE0000FE
FE0000FE0000FE
FE0000FE0000FE
FE0000FE0000FE
FE0000FE0000FE
FE0000FE0000FE
FE0000FE0000FE
FE0000FE0000FE
FE0000FE0000FE
FE0000FE0000FE
FE0000FE0000FE
FE0000FE0000FE
FE0000FE0000FE
FE0000FE0000FE
FE0000FE0000FE
FE0000FE0000FE
FE0000FE0000FE
FE0000FE0000FE
FE0000FE0000FE
FE0000FE0000FE
FE0001FF0001FE
7F0001FF0001FC
7F0001FF8001FC
7F8003FF8003FC
7FC007FFC007F8
3FF01FFFF01FF8
3FFFFFEFFFFFF0
1FFFFFC7FFFFF0
0FFFFF87FFFFE0
07FFFF03FFFF80
01FFFC00FFFF00
003FE0001FF800
ENDCHAR
STARTCHAR 0078
ENCODING 120
SWIDTH 216 0
DWIDTH 35 0
BBX 34 114 0 -1
BITMAP
7800000780
FC00000FC0
FC00000FC0
FC00000FC0
FE00001FC0
FE00001FC0
FE00001FC0
FE00001FC0
7F00001F80
7F00003F80
7F00003F80
7F00003F80
3F80003F00
3F80007F00
3F80007F00
3F80007F00
1FC0007E00
1FC000FE00
1FC000FE00
1FC000FE00
0FE000FC00
0FE001FC00
0FE001FC00
0FE001FC00
07F001F800
07F001F800
07F003F800
07F003F800
03F003F000
03F803F000
03F807F000
03F807F000
01F807E000
01FC07E000
01FC0FE000
01FC0FE000
00FC0FC000
00FE0FC000
00FE1FC000
00FE1FC000
007E1F8000
007F1F8000
007F1F8000
007F3F8000
003F3F0000
003FBF0000
003FBF0000
003FFF0000
001FFE0000
001FFE0000
001FFE0000
001FFE0000
000FFC0000
000FFC0000
000FFC0000
000FFC0000
0007FC0000
0007F80000
000FFC0000
000FFC0000
000FFC0000
000FFC0000
001FFE0000
001FFE0000
001FFE0000
001FFE0000
003FBF0000
003FBF0000
003FBF0000
003F3F0000
007F1F8000
007F1F8000
007F1F8000
007E1F8000
00FE1FC000
00FE0FC000
00FE0FC000
00FC0FC000
01FC0FE000
01FC07E000
01FC07E000
01FC07E000
03F807F000
03F803F000
03F803F000
03F803F000
07F003F800
07F003F800
07F001F800
07F001F800
0FE001FC00
0FE001FC00
0FE000FC00
0FE000FC00
1FC000FE00
1FC000FE00
1FC0007E00
1FC0007E00
3F80007F00
3F80007F00
3F80007F00
3F80003F00
7F00003F80
7F00003F80
7F00003F80
7F00001F80
FE00001FC0
FE00001FC0
FE00001FC0
FE00001FC0
FC00000FC0
FC00000FC0
F800000FC0
7000000780
ENDCHAR
STARTCHAR 0079
ENCODING 121
SWIDTH 228 0
DWIDTH 37 0
BBX 30 115 3 -2
BITMAP
78000078
7C0000F8
FE0000FC
FE0000FC
FE0000FC
FE0000FC
FE0000FC
FE0000FC
FE0000FC
FE0000FC
FE0000FC
FE0000FC
FE0000FC
FE0000FC
FE0000FC
FE0000FC
FE0000FC
FE0000FC
FE0000FC
FE0000FC
FE0000FC
FE0000FC
FE0000FC
FE0000FC
FE0000FC
FE0000FC
FE0000FC
FE0000FC
FE0000FC
FE0000FC
FE0000FC
FE0000FC
FE0000FC
FE0000FC
FE0000FC
FE0000FC
FE0000FC
FE0000FC
FE0000FC
FE0000FC
FE0000FC
FE0000FC
FE0000FC
FE0000FC
FE0000FC
FE0000FC
FE0000FC
FE0000FC
FE0000FC
FE0000FC
FE0000FC
FE0000FC
FE0000FC
FE0000FC
FE0000FC
FE0000FC
FE0001FC
FE0001FC
7F0001FC
7F0001FC
7F0003FC
3F8007FC
3FE00FFC
1FFFFFFC
1FFFFFFC
0FFFFFFC
07FFFFFC
01FFFDFC
007FF1FC
000001FC
000001FC
000001FC
000001FC
000001FC
000001FC
000001FC
000001FC
000001FC
000001FC
000001FC
000001FC
000001FC
000001FC
000001FC
000001FC
000001FC
7C0001FC
FE0001FC
FE0001FC
FE0001FC
FE0001FC
FE0001FC
FE0001FC
FE0001FC
FE0001FC
FE0001FC
FE0001FC
FE0001FC
FE0001FC
FE0001FC
FE0001FC
FE0001FC
FE0001FC
FE0001FC
7F0003F8
7F0003F8
7F0007F8
7F8007F0
3FE01FF0
3FFFFFE0
1FFFFFC0
0FFFFF80
07FFFF00
01FFFC00
003FF000
ENDCHAR
STARTCHAR 007A
ENCODING 122
SWIDTH 203 0
DWIDTH 33 0
BBX 30 114 1 -1
BITMAP
3FFFFFE0
FFFFFFF0
FFFFFFF8
FFFFFFF8
FFFFFFF8
3FFFFFF8
000003F8
000003F8
000003F0
000007F0
000007F0
000007F0
000007F0
000007E0
00000FE0
00000FE0
00000FE0
00000FE0
00000FC0
00001FC0
00001FC0
00001FC0
00001FC0
00001F80
00003F80
00003F80
00003F80
00003F00
00003F00
00007F00
00007F00
00007F00
00007E00
0000FE00
0000FE00
0000FE00
0000FE00
0000FC00
0001FC00
0001FC00
0001FC00
0001FC00
0001F800
0003F800
0003F800
0003F800
0003F800
0003F000
0007F000
0007F000
0007F000
0007E000
0007E000
000FE000
000FE000
000FE000
000FC000
000FC000
001FC000
001FC000
001FC000
001F8000
003F8000
003F8000
003F8000
003F8000
003F0000
007F0000
007F0000
007F0000
007F0000
007E0000
00FE0000
00FE0000
00FE0000
00FE0000
00FC0000
01FC0000
01FC0000
01FC0000
01F80000
01F80000
03F80000
03F80000
03F80000
03F00000
07F00000
07F00000
07F00000
07F00000
07E00000
0FE00000
0FE00000
0FE00000
0FE00000
0FC00000
1FC00000
1FC00000
1FC00000
1FC00000
1F800000
3F800000
3F800000
3F800000
3F800000
3F000000
7F000000
7F000000
7FFFFFF0
7FFFFFFC
7FFFFFFC
7FFFFFFC
3FFFFFFC
1FFFFFF0
ENDCHAR
STARTCHAR 007B
ENCODING 123
SWIDTH 141 0
DWIDTH 23 0
BBX 15 114 6 -1
BITMAP
3FF8
FFFE
FFFE
FFFE
FFFE
FFFC
FE00
FE00
FE00
FE00
FE00
FE00
FE00
FE00
FE00
FE00
FE00
FE00
FE00
FE00
FE00
FE00
FE00
FE00
FE00
FE00
FE00
FE00
FE00
FE00
FE00
FE00
FE00
FE00
FE00
FE00
FE00
FE00
FE00
FE00
FE00
FE00
FE00
FE00
FE00
FE00
FE00
FE00
FE00
FE00
FE00
FE00
FE00
FE00
FE00
FE00
FE00
FE00
FE00
FE00
FE00
FE00
FE00
FE00
FE00
FE00
FE00
FE00
FE00
FE00
FE00
FE00
FE00
FE00
FE00
FE00
FE00
FE00
FE00
FE00
FE00
FE00
FE00
FE00
FE00
FE00
FE00
FE00
FE00
FE00
FE00
FE00
FE00
FE00
FE00
FE00
FE00
FE00
FE00
FE00
FE00
FE00
FE00
FE00
FE00
FE00
FE00
FE00
FFF8
FFFE
FFFE
FFFE
FFFE
3FFC
ENDCHAR
STARTCHAR 007C
ENCODING 124
SWIDTH 253 0
DWIDTH 41 0
BBX 8 126 16 -23
BITMAP
7E
7E
FF
FF
FF
FF
FF
FF
FF
FF
FF
FF
FF
FF
FF
FF
FF
FF
FF
FF
FF
FF
FF
FF
FF
FF
FF
FF
FF
FF
FF
FF
FF
FF
FF
FF
FF
FF
FF
FF
FF
FF
FF
FF
FF
FF
FF
FF
FF
FF
FF
FF
FF
FF
FF
FF
FF
FF
FF
FF
FF
FF
FF
FF
FF
FF
FF
FF
FF
FF
FF
FF
FF
FF
FF
FF
FF
FF
FF
FF
FF
FF
FF
FF
FF
FF
FF
FF
FF
FF
FF
FF
FF
FF
FF
FF
FF
FF
FF
FF
FF
FF
FF
FF
FF
FF
FF
FF
FF
FF
FF
FF
FF
FF
FF
FF
FF
FF
FF
FF
FF
FF
FF
FF
FF
7E
ENDCHAR
STARTCHAR 007D
ENCODING 125
SWIDTH 141 0
DWIDTH 23 0
BBX 15 114 2 -1
BITMAP
7FF8
FFFE
FFFE
FFFE
FFFE
7FFE
00FE
00FE
00FE
00FE
00FE
00FE
00FE
00FE
00FE
00FE
00FE
00FE
00FE
00FE
00FE
00FE
00FE
00FE
00FE
00FE
00FE
00FE
00FE
00FE
00FE
00FE
00FE
00FE
00FE
00FE
00FE
00FE
00FE
00FE
00FE
00FE
00FE
00FE
00FE
00FE
00FE
00FE
00FE
00FE
00FE
00FE
00FE
00FE
00FE
00FE
00FE
00FE
00FE
00FE
00FE
00FE
00FE
00FE
00FE
00FE
00FE
00FE
00FE
00FE
00FE
00FE
00FE
00FE
00FE
00FE
00FE
00FE
00FE
00FE
00FE
00FE
00FE
00FE
00FE
00FE
00FE
00FE
00FE
00FE
00FE
00FE
00FE
00FE
00FE
00FE
00FE
00FE
00FE
00FE
00FE
00FE
00FE
00FE
00FE
00FE
00FE
00FE
7FFE
FFFE
FFFE
FFFE
FFFE
7FF8
ENDCHAR
STARTCHAR 007E
ENCODING 126
SWIDTH 506 0
DWIDTH 82 0
BBX 61 32 11 22
BITMAP
000FF80000000000
007FFE0000000000
00FFFF0000000000
03FFFFC0000003F8
07FFFFE0000003F8
07FFFFF0000003F8
0FFFFFF8000003F8
1FF81FFC000003F8
1FF00FFE000003F8
3FC007FE000003F8
3FC003FF000003F8
3F8001FF800003F8
7F8000FF800003F8
7F0000FFC00003F0
7F00007FE00003F0
7F00003FE00007F0
7F00001FF00007F0
7E00001FF80007F0
FE00000FFC0007F0
FE000007FC000FE0
FE000007FE000FE0
FE000003FF001FE0
FE000001FF801FE0
FE000001FFC03FC0
FE000000FFF1FFC0
FE0000007FFFFF80
FE0000003FFFFF00
FE0000001FFFFF00
FE0000000FFFFE00
0000000007FFF800
0000000001FFF000
00000000007F0000
ENDCHAR
STARTCHAR 00A0
ENCODING 160
SWIDTH 209 0
DWIDTH 34 0
BBX 0 0 0 0
BITMAP
ENDCHAR
STARTCHAR 00A1
ENCODING 161
SWIDTH 141 0
DWIDTH 23 0
BBX 11 114 6 -1
BITMAP
1F00
7F80
7FC0
FFE0
FFE0
FFE0
FFE0
7FE0
7FC0
3F80
0000
0400
1F00
3F80
3F80
3F80
3F80
3F80
3F80
3F80
3F80
3F80
3F80
3F80
3F80
3F80
3F80
3F80
3F80
3F80
3F80
3F80
3F80
3F80
3F80
3F80
3F80
3F80
3F80
3F80
3F80
3F80
3F80
3F80
3F80
3F80
3F80
3F80
3F80
3F80
3F80
3F80
3F80
3F80
3F80
3F80
3F80
3F80
3F80
3F80
3F80
3F80
3F80
3F80
3F80
3F80
3F80
3F80
3F80
3F80
3F80
3F80
3F80
3F80
3F80
3F80
3F80
3F80
3F80
3F80
3F80
3F80
3F80
3F80
3F80
3F80
3F80
3F80
3F80
3F80
3F80
3F80
3F80
3F80
3F80
3F80
3F80
3F80
3F80
3F80
3F80
3F80
3F80
3F80
3F80
3F80
3F80
3F80
3F80
3F80
3F80
3F80
1F00
0E00
ENDCHAR
STARTCHAR 00A2
ENCODING 162
SWIDTH 240 0
DWIDTH 39 0
BBX 31 83 4 34
BITMAP
00078000
0007C000
000FC000
00FFFC00
03FFFF00
07FFFFC0
0FFFFFE0
1FFFFFF0
3FFFFFF0
3F87CFF8
7F07C3F8
7E07C1FC
7E07C1FC
7E07C1FC
FC07C0FE
FC07C0FE
FC07C0FE
FC07C0FE
FC07C0FE
FC07C0FE
FC07C0FE
FC07C0FE
FC07C0FE
FC07C0FE
FC07C0FE
FC07C0FE
FC07C0FE
FC07C0FE
FC07C0FE
FC07C0FE
FC07C07C
FC07C010
FC07C000
FC07C000
FC07C000
FC07C000
FC07C000
FC07C000
FC07C000
FC07C000
FC07C000
FC07C000
FC07C000
FC07C000
FC07C000
FC07C000
FC07C000
FC07C000
FC07C000
FC07C010
FC07C07C
FC07C0FE
FC07C0FE
FC07C0FE
FC07C0FE
FC07C0FE
FC07C0FE
FC07C0FE
FC07C0FE
FC07C0FE
FC07C0FE
FC07C0FE
FC07C0FE
FC07C0FE
FC07C0FE
FC07C0FE
FC07C0FE
7E07C1FC
7E07C1FC
7E07C1FC
7F07C3F8
3FC7CFF8
1FFFFFF8
1FFFFFF0
0FFFFFE0
03FFFFC0
01FFFF80
003FFE00
0007C000
0007C000
0007C000
0007C000
00078000
ENDCHAR
STARTCHAR 00A3
ENCODING 163
SWIDTH 240 0
DWIDTH 39 0
BBX 39 114 0 -1
BITMAP
0000FF8000
0007FFF000
001FFFFC00
003FFFFE00
007FFFFF00
00FFFFFF80
01FF80FFC0
01FE003FC0
03FC001FE0
03F8000FE0
03F8000FE0
07F0000FF0
07F00007F0
07F00007F0
07E00007F0
07E00007F0
07E00007F0
07E00007F0
07E00007F0
07E00007F0
07E00007F0
07F00007F0
07F00007F0
07F00007F0
07F00007F0
07F00007F0
03F00007F0
03F00007F0
03F80003E0
03F8000000
03F8000000
03F8000000
01F8000000
01F8000000
01FC000000
01FC000000
01FC000000
00FC000000
00FC000000
00FE000000
00FE000000
00FE000000
00FE000000
007E000000
007E000000
007F000000
007F000000
007F000000
007F000000
003F000000
003F800000
7FFFFFFF80
FFFFFFFFE0
FFFFFFFFE0
FFFFFFFFE0
FFFFFFFFE0
7FFFFFFF80
003F800000
003F800000
003F800000
003F800000
003F800000
003F800000
003F800000
003F800000
003F800000
003F800000
007F000000
007F000000
007F000000
007F000000
007F000000
007F000000
007F000000
007F000000
007F000000
007F000000
007F000000
007E000000
00FE000000
00FE000000
00FE000000
00FE000000
00FE000000
00FE000000
00FE000000
01FC000000
01FC000000
01FC000000
01FC000000
01FC000000
03FC000000
03F8000000
03F8000000
03F8000000
03F8000000
07F8000000
07F0000000
07F0000000
07F0000000
07F0000000
0FF0000000
0FE0000000
0FE0000000
0FE0000000
1FE0000000
1FC0000000
1FC0000000
1FFFFFFFF8
3FFFFFFFFC
3FFFFFFFFE
3FFFFFFFFE
3FFFFFFFFC
1FFFFFFFF8
ENDCHAR
STARTCHAR 00A4
ENCODING 164
SWIDTH 407 0
DWIDTH 66 0
BBX 62 61 2 26
BITMAP
3C00000000000070
7E000000000001F8
FF000000000003FC
FF80007FF00007FC
FFC007FFFF000FFC
FFE01FFFFFE01FFC
7FF07FFFFFF83FF8
3FF9FFFFFFFC7FF0
1FFFFFFFFFFFFFE0
0FFFFFFFFFFFFFC0
07FFFFC00FFFFF80
03FFFE0001FFFF00
01FFF800007FFE00
00FFE000001FFC00
00FFC000000FFC00
00FF80000007FC00
01FF00000003FE00
03FE00000001FF00
03FC00000000FF00
07F8000000007F80
07F8000000007F80
07F0000000003F80
0FF0000000003FC0
0FE0000000001FC0
0FE0000000001FC0
1FE0000000001FC0
1FC0000000001FE0
1FC0000000000FE0
1FC0000000000FE0
1FC0000000000FE0
1FC0000000000FE0
1FC0000000000FE0
1FC0000000000FE0
1FC0000000000FE0
1FC0000000000FE0
1FC0000000000FE0
1FE0000000001FE0
0FE0000000001FC0
0FE0000000001FC0
0FF0000000003FC0
0FF0000000003FC0
07F8000000007F80
07F8000000007F80
03FC00000000FF80
03FE00000001FF00
01FF00000003FE00
00FF80000007FE00
00FFC000000FFC00
00FFE000001FFC00
01FFF800007FFE00
03FFFE0001FFFF00
07FFFFC00FFFFF80
0FFFFFFFFFFFFFC0
1FFBFFFFFFFE7FE0
7FF0FFFFFFFC3FF0
7FE03FFFFFE01FF8
FFC00FFFFF000FFC
FF80007FF00007FC
FF000000000003FC
7C000000000000F8
3800000000000070
ENDCHAR
STARTCHAR 00A5
ENCODING 165
SWIDTH 240 0
DWIDTH 39 0
BBX 33 114 3 -1
BITMAP
1C00001C00
3E00003E00
7F00007F00
7F00007F00
7F00007F00
7F00007F00
7F00007F00
7F00007F00
7F00007F00
7F00007F00
7F00007F00
7F00007F00
7F00007F00
7F00007F00
7F00007F00
7F00007F00
7F00007F00
7F00007F00
7F00007F00
7F00007F00
7F00007F00
7F00007F00
7F00007F00
7F00007F00
7F00007F00
7F00007F00
7F00007F00
7F00007F00
7F00007F00
7F00007F00
7F00007F00
7F00007F00
7F00007F00
7F00007F00
7F00007F00
7F00007F00
7F00007F00
7F00007F00
7F00007F00
7F00007F00
7F00007F00
7F00007F00
7F00007F00
7F00007F00
7F00007F00
7F00007F00
7F00007F00
7F00007F00
7F00007F00
7F00007F00
7F00007F00
7F00007F00
7F00007F00
7F00007F00
7F00007F00
7F00007F00
7F00007F00
7F00007F00
3F8000FE00
3F8000FE00
3F8000FE00
1FC001FE00
1FE003FC00
0FFE3FFC00
0FFFFFF800
07FFFFF000
03FFFFE000
00FFFFC000
003FFF0000
0007F00000
0007F00000
0007F00000
0007F00000
0007F00000
0007F00000
0007F00000
0007F00000
0007F00000
0007F00000
3FFFFFFE00
FFFFFFFF80
FFFFFFFF80
FFFFFFFF80
FFFFFFFF80
3FFFFFFE00
0007F00000
0007F00000
0007F00000
0007F00000
0007F00000
3FFFFFFE00
FFFFFFFF00
FFFFFFFF80
FFFFFFFF80
FFFFFFFF00
3FFFFFFE00
0007F00000
0007F00000
0007F00000
0007F00000
0007F00000
0007F00000
0007F00000
0007F00000
0007F00000
0007F00000
0007F00000
0007F00000
0007F00000
0007F00000
0007F00000
0007F00000
0003E00000
0003C00000
ENDCHAR
STARTCHAR 00A6
ENCODING 166
SWIDTH 197 0
DWIDTH 32 0
BBX 9 116 11 -3
BITMAP
FF80
FF80
FF80
FF80
FF80
FF80
FF80
FF80
FF80
FF80
FF80
FF80
FF80
FF80
FF80
FF80
FF80
FF80
FF80
FF80
FF80
FF80
FF80
FF80
FF80
FF80
FF80
FF80
FF80
FF80
FF80
FF80
FF80
FF80
FF80
FF80
FF80
FF80
FF80
FF80
FF80
FF80
FF80
FF80
FF80
FF80
FF80
0000
0000
0000
0000
0000
0000
0000
0000
0000
0000
0000
0000
0000
0000
0000
0000
0000
0000
0000
0000
0000
0000
FF80
FF80
FF80
FF80
FF80
FF80
FF80
FF80
FF80
FF80
FF80
FF80
FF80
FF80
FF80
FF80
FF80
FF80
FF80
FF80
FF80
FF80
FF80
FF80
FF80
FF80
FF80
FF80
FF80
FF80
FF80
FF80
FF80
FF80
FF80
FF80
FF80
FF80
FF80
FF80
FF80
FF80
FF80
FF80
FF80
FF80
FF80
ENDCHAR
STARTCHAR 00A7
ENCODING 167
SWIDTH 240 0
DWIDTH 39 0
BBX 38 116 0 -2
BITMAP
00007FC000
0003FFF000
000FFFFC00
001FFFFF00
003FFFFF80
007FFFFFC0
00FF807FE0
01FE001FF0
01FC000FF8
03F80007F8
03F80003FC
03F00001FC
07F00000FC
07F000007C
07F0000038
07E0000000
07E0000000
07E0000000
07E0000000
07E0000000
07F0000000
07F0000000
07F0000000
07F8000000
03F8000000
03FC000000
03FC000000
01FE000000
01FF000000
00FF800000
00FFC00000
007FC00000
007FE00000
003FF00000
001FF80000
001FFE0000
001FFF0000
003FFF8000
007FFFC000
00FFFFE000
01FF7FF000
03FE3FF800
07FC1FFC00
07F807FE00
0FF003FE00
0FE001FF00
1FC000FF80
1FC0007FC0
3F80003FC0
3F80001FE0
3F00001FE0
7F00000FF0
7F000007F0
7F000007F0
7F000003F8
7F000003F8
7F000003F8
7F000003F8
7F000003F8
7F000003F8
3F800003F8
3F800003F8
1FC00003F8
1FE00007F0
0FE00007F0
0FF0000FF0
07F8000FE0
07FC001FE0
03FE003FC0
01FF007F80
00FFC0FF00
00FFE1FF00
007FF3FE00
003FFFFC00
001FFFF800
000FFFF000
0007FFE000
0003FFC000
0001FFC000
0000FFE000
00007FE000
00003FF000
00003FF800
00001FF800
00000FFC00
000007FE00
000003FE00
000003FE00
000001FF00
000000FF00
000000FF00
0000007F80
0000003F80
0000003F80
0000003F80
0000001F80
0000001F80
0000001F80
0000001F80
0000001F80
7000001F80
F800003F80
FC00003F80
FC00003F80
FE00007F00
FF0000FF00
7F0000FF00
7F8001FE00
3FE007FE00
3FF81FFC00
1FFFFFF800
0FFFFFF000
07FFFFE000
01FFFF8000
007FFF0000
000FF80000
ENDCHAR
STARTCHAR 00A8
ENCODING 168
SWIDTH 228 0
DWIDTH 37 0
BBX 26 10 6 118
BITMAP
1F003E00
7FC0FF80
7FC1FFC0
FFE1FFC0
FFE1FFC0
FFE1FFC0
FFE1FFC0
FFE1FF80
7FC0FF80
1F003E00
ENDCHAR
STARTCHAR 00A9
ENCODING 169
SWIDTH 358 0
DWIDTH 58 0
BBX 49 92 4 0
BITMAP
00007FFF000000
000FFFFFF80000
007FFFFFFE0000
01FFFFFFFF8000
03FFC000FFE000
07FC00000FF000
0FE0000003F800
1FC0000000FC00
3F800000007E00
3F000000007E00
7E000000003F00
7E000000001F00
7C000180001F00
FC003FF8001F80
F8007FFE000F80
F800FFFF000F80
F801FFFF000F80
F801F80F800F80
F801F00F800F80
F803F007800F80
F803E007800F80
F803E007800F80
F803E007800F80
F803E007800F80
F803E007800F80
F803E007800F80
F803E007800F80
F803E007800F80
F803E007800F80
F803E003800F80
F803E000000F80
F803E000000F80
F803E000000F80
F803E000000F80
F803E000000F80
F803E000000F80
F803E000000F80
F803E000000F80
F803E000000F80
F803E000000F80
F803E000000F80
F803E000000F80
F803E000000F80
F803E000000F80
F803E000000F80
F803E000000F80
F803E000000F80
F803E000000F80
F803E000000F80
F803E000000F80
F803E000000F80
F803E000000F80
F803E000000F80
F803E000000F80
F803E000000F80
F803E000000F80
F803E000000F80
F803E000000F80
F803E000000F80
F803E000000F80
F803E000000F80
F803E000000F80
F803E000000F80
F803E003800F80
F803E007800F80
F803E007800F80
F803E007800F80
F803E007800F80
F803E007800F80
F803E007800F80
F803E007800F80
F803E007800F80
F803E007800F80
F803E007800F80
F801F00F800F80
F801F01F800F80
F801FFFF000F80
F800FFFE000F80
FC007FFC001F80
7C001FF8001F00
7E000000003F00
7E000000003F00
3F000000007E00
3F80000000FE00
1FC0000001FC00
0FF0000003F800
07FC00001FF800
03FFC001FFE000
01FFFFFFFFC000
007FFFFFFF0000
000FFFFFF80000
00007FFF000000
ENDCHAR
STARTCHAR 00AA
ENCODING 170
SWIDTH 259 0
DWIDTH 42 0
BBX 22 69 7 44
BITMAP
003F80
01FFE0
03FFF0
03FFF8
078078
078078
0F003C
0F003C
0F003C
0F003C
0F003C
0F003C
0F003C
0F003C
0F003C
0F003C
0F003C
0F003C
0F003C
0F003C
0F003C
0F003C
0F003C
0F003C
0F003C
0F003C
0F003C
0F003C
0F003C
0F003C
0F003C
0F003C
0F003C
0F003C
0F003C
0F003C
0F003C
0F003C
0F003C
FFFFFC
FFFFFC
FFFFFC
FFFFFC
0F003C
0F003C
0F003C
0F003C
0F003C
0F003C
0F003C
0F003C
0F003C
0F003C
0F003C
0F003C
0F003C
0F003C
0F003C
0F003C
0F003C
0F003C
0F003C
0F003C
0F003C
0F003C
0F003C
0F003C
0F003C
0F003C
ENDCHAR
STARTCHAR 00AB
ENCODING 171
SWIDTH 234 0
DWIDTH 38 0
BBX 27 58 7 4
BITMAP
00080100
003E07C0
003F07E0
007F0FE0
007F0FE0
007F0FE0
00FE1FC0
00FE1FC0
01FE1FC0
01FC3F80
01FC3F80
03F87F80
03F87F00
07F87F00
07F0FE00
07F0FE00
0FE1FE00
0FE1FC00
0FE1FC00
1FC3F800
1FC3F800
3FC3F800
3F87F000
3F87F000
7F0FF000
7F0FE000
7F0FE000
FE1FC000
FE1FC000
FE1FC000
FE1FC000
FE0FC000
7F0FE000
7F0FE000
3F07F000
3F87F000
3F87F000
1FC3F800
1FC3F800
1FC1FC00
0FE1FC00
0FE1FC00
07F0FE00
07F0FE00
07F0FE00
03F87F00
03F87F00
03FC7F80
01FC3F80
01FC3F80
01FE1FC0
00FE1FC0
00FE1FC0
007F0FE0
007F0FE0
007F07E0
003F07E0
001E03C0
ENDCHAR
STARTCHAR 00AC
ENCODING 172
SWIDTH 1197 0
DWIDTH 194 0
BBX 182 124 6 -14
BITMAP
FFFFFFFFFFFFFFFFFFFFFFFFFFFFFFFFFFFFFFFFFFFFFC
FFFFFFFFFFFFFFFFFFFFFFFFFFFFFFFFFFFFFFFFFFFFFC
FFFFFFFFFFFFFFFFFFFFFFFFFFFFFFFFFFFFFFFFFFFFFC
FFFFFFFFFFFFFFFFFFFFFFFFFFFFFFFFFFFFFFFFFFFFFC
FFFFFFFFFFFFFFF3FFFFFFFFFFFFFFBFFFFFFFFFFFFFFC
FFFC000003FFFFF1FFFFF80000FF80001FF8000001FFFC
FFFC000003FFFFE1FFFFF80000FC000001F8000001FFFC
FFFC000003FFFFE1FFFFF80000F000000038000001FFFC
FFFFE001FFFFFFC0FFFFFFF00FC00FFC001FF000FFFFFC
FFFFF003FFFFFFC0FFFFFFF81F807FFF801FF801FFFFFC
FFFFF007FFFFFFC0FFFFFFF81F01FFFFF01FF801FFFFFC
FFFFF803FFFFFF807FFFFFF83E03FFFFFC1FFC03FFFFFC
FFFFF803FFFFFF807FFFFFF83C07FFFFFE3FFC03FFFFFC
FFFFF803FFFFFF007FFFFFF0380FFFFFFE3FFC03FFFFFC
FFFFF801FFFFFF003FFFFFF0701FFFFFFE3FFC03FFFFFC
FFFFFC01FFFFFF003FFFFFF0701FFFFFFE3FFC03FFFFFC
FFFFFC01FFFFFE003FFFFFF0601FFFFFFE3FFC03FFFFFC
FFFFFC01FFFFFE001FFFFFF0E03FFFFFFE3FFC03FFFFFC
FFFFFC01FFFFFC001FFFFFE0E03FFFFFFE3FFC03FFFFFC
FFFFFE00FFFFFC200FFFFFE0C03FFFFFFE3FFC03FFFFFC
FFFFFE00FFFFFC200FFFFFE1C03FFFFFFFFFFC03FFFFFC
FFFFFE00FFFFF8200FFFFFE1C03FFFFFFFFFFC03FFFFFC
FFFFFE00FFFFF87007FFFFC1C03FFFFFFFFFFC03FFFFFC
FFFFFF00FFFFF07007FFFFC3C03FFFFFFFFFFC03FFFFFC
FFFFFF007FFFF0F007FFFFC3C03FFFFFFFFFFC03FFFFFC
FFFFFF007FFFF0F803FFFF83C01FFFFFFFFFFC03FFFFFC
FFFFFF007FFFE1F803FFFF83C01FFFFFFFFFFC03FFFFFC
FFFFFF807FFFE1FC03FFFF87C00FFFFFFFFFFC03FFFFFC
FFFFFF803FFFC3FC01FFFF87C007FFFFFFFFFC03FFFFFC
FFFFFF803FFFC3FC01FFFF07E003FFFFFFFFFC03FFFFFC
FFFFFF803FFFC3FE00FFFF0FE000FFFFFFFFFC03FFFFFC
FFFFFF803FFF87FE00FFFF0FE0000FFFFFFFFC03FFFFFC
FFFFFFC03FFF87FE00FFFE0FF00000003FFFFC03FFFFFC
FFFFFFC01FFF0FFF007FFE1FF800000003FFFC03FFFFFC
FFFFFFC01FFF0FFF007FFE1FF800000000FFFC03FFFFFC
FFFFFFC01FFF1FFF007FFE1FFC000000003FFC03FFFFFC
FFFFFFE01FFE1FFF803FFC1FFF000000001FFC03FFFFFC
FFFFFFE00FFE1FFF803FFC3FFF800000000FFC03FFFFFC
FFFFFFE00FFC3FFFC03FFC3FFFF000000007FC03FFFFFC
FFFFFFE00FFC3FFFC01FF83FFFFF00000007FC03FFFFFC
FFFFFFF00FF87FFFC01FF87FFFFFFFF80003FC03FFFFFC
FFFFFFF007F87FFFE00FF87FFFFFFFFF0003FC03FFFFFC
FFFFFFF007F87FFFE00FF07FFFFFFFFFC003FC03FFFFFC
FFFFFFF007F0FFFFE00FF0FFFFFFFFFFF001FC03FFFFFC
FFFFFFF807F0FFFFF007F0FFFFFFFFFFF801FC03FFFFFC
FFFFFFF803E1FFFFF007F0FFFFFFFFFFF801FC03FFFFFC
FFFFFFF803E1FFFFF007E0FFFFFFFFFFFC01FC03FFFFFC
FFFFFFF803E1FFFFF803E1FFFFFFFFFFFC01FC03FFFFFC
FFFFFFF803C3FFFFF803E1FFFFFFFFFFFE01FC03FFFFFC
FFFFFFFC03C3FFFFFC01C1FFFFFFFFFFFE01FC03FFFFFC
FFFFFFFC0187FFFFFC01C3FFFFFFFFFFFE01FC03FFFFFC
FFFFFFFC0187FFFFFC01C3FFFFFFFFFFFE03FC03FFFFFC
FFFFFFFC0187FFFFFE0083FFE3FFFFFFFE03FC03FFFFFC
FFFFFFC0010FFFFFFE0083FFE3FFFFFFFE03FC03FFFFFC
FFFFFF00000FFFFFFE0087FFE1FFFFFFFE07FC03FFFFFC
FFFFFE00000FFFFFFF0007FFE1FFFFFFFE07FC03FFFFFC
FFFFFC00001FFFFFFF0007FFE1FFFFFFFC0FFC03FFFFFC
FFFFF800001FFFFFFF0007FFE1FFFFFFFC1FFC03FFFFFC
FFFFF000003FFFFFFF800FFFE1FFFFFFF81FFC03FFFFFC
FFFFE0FE003FFFFFFF800FFFE1FFFFFFF03FFC03FFFFFC
FFFFC3FF003FFFFFFFC00FFFE1FFFFFFE07FFC03FFFFFC
FFFF87FF007FFFFFFFC00FFFE07FFFFFC0FFFC03FFFFFC
FFFF07FF007FFFFFFFC01FFFE03FFFFF01FFFC03FFFFFC
FFFE07FF807FFFFFFFE01FFFE007FFFC03FFF801FFFFFC
FFFE07FF80FFFFFFFFE01FFFE0007FE007FFE000FFFFFC
FFFC0FFF80FFFFFFFFE03FFFE000000007F8000001FFFC
FFF80FFF80FFFFFFFFF03FFFF800000007F8000001FFFC
FFF80FFF81FFFFFFFFF03FFFFE00000007F8000001FFFC
FFF80FFF81FFFFFFFFF03FFFFFC0000007F8000001FFFC
FFF00FFFC1FFFFFFFFF03FFFFFFE00F007FFFFFFFFFFFC
FFF00FFFFFFFFFFFFFFFFFFFFFFFFFF007FFFFFFFFFFFC
FFF00FFFFFFFFFFFFFFFFFFFFFFFFFF007FFFFFFFFFFFC
FFF00FFFFFFFFFFFFFFFFFFFFFFFFFF807FFFFFFFFFFFC
FFF00FFFFFFFFFFFFFFFFFFFFFFFFFF807FFFFFFFFFFFC
FFF00FFFFFFFFFFFFFFFFFFFFFFFFFF807FFFFFFFFFFFC
FFF00FFFFFFFFFFFFFFFFFFFFFFFFFF807FFFFFFFFFFFC
FFF00FFFFFFFFFFFFFFFFFFFFFFFFFF807FFFFFFFFFFFC
FFF00FFFFFFE007FFFFFF9FFE01FFFF807FFFFFC00FFFC
FFF00FFFFFE00007FFFFE1FF0003FFF807FFFFC00007FC
FFF00FFFFF000001FFFF01FC0001FFF807FFFF000000FC
FFF00FFFFE01FC007FE001F800007FF807FFFE01F800FC
FFE00000F80FFF003E0001E000003FF000003C07FE01FC
FF800000F01FFFC01E0001C000003FC00000381FFF81FC
FE000000E03FFFE00E000181FE001E000000301FFFC1FC
F8000000C07FFFF007FC010FFF800C000000303FFFE1FC
F8F00FFF80FFFFF803FE001FFFC00C0007FFE03FFFE1FC
FFF00FFF00FFFFFC03FE007FFFE00FF807FFE03FFFF1FC
FFF00FFF01FFFFFC01FE00FFFFE00FF807FFE03FFFF1FC
FFF00FFE01FFFFFE01FE00FFFFF007F807FFE03FFFF1FC
FFF00FFE01FFFFFE00FE00FFFFF007F807FFE03FFFF1FC
FFF00FFC03FFFFFE00FE01FFFFF007F807FFE03FFFFFFC
FFF00FFC03FFFFFF00FE01FFFFF807F807FFE01FFFFFFC
FFF00FFC03FFFFFF007E01FFFFF807F807FFE00FFFFFFC
FFF00FF803FFFFFF007E01FFFFF807F807FFE003FFFFFC
FFF00FF803FFFFFF007E01FFFFF807F807FFE0003FFFFC
FFF00FF803FFFFFF807E01FFFFF807F807FFF00003FFFC
FFF00FF803FFFFFF807E01FFFFF807F807FFF800003FFC
FFF00FF803FFFFFF807E01FFFFF807F807FFF8000007FC
FFF00FF803FFFFFF807E01FFFFF807F807FFFE000001FC
FFF00FF803FFFFFF807E01FFFFF807F807FFFF000000FC
FFF00FF803FFFFFF807E01FFFFF807F807FFFFE000007C
FFF00FF803FFFFFF807E01FFFFF807F807FFFFFE00003C
FFF00FF801FFFFFF807E01FFFFF807F807FFFFFFF0003C
FFF00FF801FFFFFF80FE01FFFFF807F807FFFFFFFE003C
FFF00FFC01FFFFFF80FE01FFFFF807F807FFFFFFFF803C
FFF00FFC01FFFFFF80FE01FFFFF807F807FFFFFFFFC01C
FFF00FFC00FFFFFF81FE01FFFFF807F807FFFFFFFFC01C
FFF00FFC00FFFFFF01FE01FFFFF807F807FFF3FFFFE01C
FFF00FFE00FFFFFF01FE01FFFFF807F807FFF3FFFFE03C
FFF00FFE007FFFFF03FE01FFFFF807F807FFF3FFFFE03C
FFF00FFF007FFFFE03FE01FFFFF807F807FFE3FFFFE03C
FFF00FFF003FFFFE07FE01FFFFF807F807FFE3FFFFE03C
FFF00FFF801FFFFC0FFE01FFFFF807F803FF63FFFFE07C
FFF00FFFC01FFFFC1FFE01FFFFF807F803FE61FFFFC07C
FFF00FFFC00FFFF83FFE01FFFFF807F800FC21FFFFC0FC
FFE007FFE007FFF07FFE01FFFFF807FC000060FFFF81FC
FFC003FFF001FFE0FFFC00FFFFF803FC0000E03FFE03FC
F0000007FC007F03FE000001FFF8000E0001E007F80FFC
F0000007FE000007FE000001FFF8000E0003E000001FFC
F0000007FF80003FFE000001FFF0000F8007F800007FFC
FFFFFFFFFFF001FFFFFFFFFFFFFFFFFFE01FFFC007FFFC
FFFFFFFFFFFFFFFFFFFFFFFFFFFFFFFFFFFFFFFFFFFFFC
FFFFFFFFFFFFFFFFFFFFFFFFFFFFFFFFFFFFFFFFFFFFFC
FFFFFFFFFFFFFFFFFFFFFFFFFFFFFFFFFFFFFFFFFFFFFC
ENDCHAR
STARTCHAR 00AD
ENCODING 173
SWIDTH 141 0
DWIDTH 23 0
BBX 16 6 3 44
BITMAP
3FFE
FFFF
FFFF
FFFF
FFFF
3FFC
ENDCHAR
STARTCHAR 00AE
ENCODING 174
SWIDTH 358 0
DWIDTH 58 0
BBX 49 92 4 0
BITMAP
00007FFF000000
000FFFFFF80000
007FFFFFFE0000
01FFFFFFFF8000
03FFC001FFE000
0FFC00001FF000
0FE0000003F800
1FC0000001FC00
3F800000007E00
3F000000007E00
7E000000003F00
7E00FFC0001F00
7C00FFFC001F00
FC00FFFF001F80
F800FFFF800F80
F800FFFFC00F80
F800F807C00F80
F800F807C00F80
F800F803E00F80
F800F803E00F80
F800F803E00F80
F800F803E00F80
F800F803E00F80
F800F803E00F80
F800F803E00F80
F800F803E00F80
F800F803E00F80
F800F803E00F80
F800F803E00F80
F800F803E00F80
F800F803E00F80
F800F803E00F80
F800F803E00F80
F800F803E00F80
F800F803E00F80
F800F803E00F80
F800F803E00F80
F800F803E00F80
F800F803E00F80
F800F803E00F80
F800F803E00F80
F800F803E00F80
F800F803E00F80
F800F803E00F80
F800F803E00F80
F800F803E00F80
F800F807E00F80
F800F807E00F80
F800F80FC00F80
F807FFFFC00F80
F80FFFFF800F80
F80FFFFF800F80
F80FFFFF800F80
F807FFFFC00F80
F800F80FC00F80
F800F807C00F80
F800F807E00F80
F800F803E00F80
F800F803E00F80
F800F803E00F80
F800F803E00F80
F800F803E00F80
F800F803E00F80
F800F803E00F80
F800F803E00F80
F800F803E00F80
F800F803E00F80
F800F803E00F80
F800F803E00F80
F800F803E00F80
F800F803E00F80
F800F803E00F80
F800F803F00F80
F800F801F00F80
F800F801F80F80
F800F800FC0F80
F800F800FF0F80
F800F8007F8F80
FC00F8003F9F80
7C0070000F1F00
7E000000001F00
7E000000003F00
3F000000007E00
3F800000007E00
1FE0000001FC00
0FF0000003FC00
07FE00000FF800
03FFC000FFF000
01FFFFFFFFC000
007FFFFFFF0000
000FFFFFF80000
00007FFF000000
ENDCHAR
STARTCHAR 00AF
ENCODING 175
SWIDTH 228 0
DWIDTH 37 0
BBX 27 6 8 118
BITMAP
3FFFFF80
FFFFFFE0
FFFFFFE0
FFFFFFE0
FFFFFFE0
3FFFFF80
ENDCHAR
STARTCHAR 00B0
ENCODING 176
SWIDTH 240 0
DWIDTH 39 0
BBX 34 33 2 81
BITMAP
0007F80000
003FFF0000
00FFFFC000
03FFFFF000
07FFFFF800
0FFFFFFC00
1FF807FE00
1FE001FE00
3FC0007F00
7F80003F80
7F00003F80
7E00001F80
FE00001FC0
FC00000FC0
FC00000FC0
FC00000FC0
FC00000FC0
FC00000FC0
FC00000FC0
FC00000FC0
FE00001FC0
7E00001F80
7F00003F80
7F80007F80
3FC000FF00
1FE001FE00
1FF807FE00
0FFFFFFC00
07FFFFF800
03FFFFF000
00FFFFC000
003FFF0000
0007F80000
ENDCHAR
STARTCHAR 00B1
ENCODING 177
SWIDTH 506 0
DWIDTH 82 0
BBX 74 87 4 -10
BITMAP
000000003E0000000000
000000007F0000000000
000000007F0000000000
000000007F0000000000
000000007F0000000000
000000007F0000000000
000000007F0000000000
000000007F0000000000
000000007F0000000000
000000007F0000000000
000000007F0000000000
000000007F0000000000
000000007F0000000000
000000007F0000000000
000000007F0000000000
000000007F0000000000
000000007F0000000000
000000007F0000000000
000000007F0000000000
000000007F0000000000
000000007F0000000000
000000007F0000000000
000000007F0000000000
000000007F0000000000
000000007F0000000000
000000007F0000000000
000000007F0000000000
000000007F0000000000
000000007F0000000000
000000007F0000000000
000000007F0000000000
000000007F0000000000
000000007F0000000000
000000007F0000000000
000000007F0000000000
000000007F0000000000
7FFFFFFFFFFFFFFFFF80
FFFFFFFFFFFFFFFFFFC0
FFFFFFFFFFFFFFFFFFC0
FFFFFFFFFFFFFFFFFFC0
FFFFFFFFFFFFFFFFFFC0
7FFFFFFFFFFFFFFFFF80
000000007F0000000000
000000007F0000000000
000000007F0000000000
000000007F0000000000
000000007F0000000000
000000007F0000000000
000000007F0000000000
000000007F0000000000
000000007F0000000000
000000007F0000000000
000000007F0000000000
000000007F0000000000
000000007F0000000000
000000007F0000000000
000000007F0000000000
000000007F0000000000
000000007F0000000000
000000007F0000000000
000000007F0000000000
000000007F0000000000
000000007F0000000000
000000007F0000000000
000000007F0000000000
000000007F0000000000
000000007F0000000000
000000007F0000000000
000000007F0000000000
000000007F0000000000
000000007F0000000000
000000007F0000000000
000000007F0000000000
000000007F0000000000
000000007F0000000000
000000007E0000000000
000000003C0000000000
00000000000000000000
00000000000000000000
00000000000000000000
00000000000000000000
7FFFFFFFFFFFFFFFFF00
FFFFFFFFFFFFFFFFFFC0
FFFFFFFFFFFFFFFFFFC0
FFFFFFFFFFFFFFFFFFC0
FFFFFFFFFFFFFFFFFFC0
7FFFFFFFFFFFFFFFFF80
ENDCHAR
STARTCHAR 00B2
ENCODING 178
SWIDTH 166 0
DWIDTH 27 0
BBX 20 69 4 45
BITMAP
01FC00
07FF00
1FFF80
1FFFC0
3FFFE0
7F07E0
7E07F0
7E03F0
FC03F0
FC03F0
FC03F0
FC03F0
FC03F0
FC03F0
FC03F0
FC03F0
7C03F0
7803F0
0003F0
0003F0
0003F0
0003F0
0003F0
0003F0
0003F0
0003F0
0003F0
0003F0
0003F0
0003F0
0003F0
0003F0
0003F0
0003F0
0003F0
0003F0
0003F0
0007F0
000FF0
003FE0
00FFE0
07FFC0
0FFF80
1FFF00
3FF800
7FE000
7F8000
7F0000
7F0000
7E0000
7E0000
7E0000
7E0000
7E0000
7E0000
7E0000
7E0000
7E0000
7E0000
7E0000
7E0000
7E0000
7E0000
7E0000
7FFFE0
7FFFF0
7FFFF0
3FFFF0
3FFFE0
ENDCHAR
STARTCHAR 00B3
ENCODING 179
SWIDTH 166 0
DWIDTH 27 0
BBX 20 71 4 43
BITMAP
03FC00
0FFF00
1FFF80
3FFFC0
3FFFE0
7F0FE0
7E07F0
7C03F0
FC03F0
FC03F0
FC03F0
FC03F0
FC03F0
FC03F0
FC03F0
FC03F0
7C03F0
7803F0
0003F0
0003F0
0003F0
0003F0
0003F0
0003F0
0003F0
0003F0
0003F0
0003F0
0003F0
0003F0
0007E0
3FFFE0
7FFFE0
7FFFE0
7FFFE0
3FFFE0
000FE0
0007E0
0003E0
0003F0
0003F0
0003F0
0003F0
0003F0
0003F0
0003F0
0003F0
0003F0
0003F0
0003F0
0003F0
3803F0
7C03F0
FC03F0
FC03F0
FC03F0
FC03F0
FC03F0
FC03F0
FC03F0
FC03F0
FC03F0
7C03F0
7E07F0
7F0FE0
7FFFE0
3FFFE0
1FFFC0
0FFF80
07FE00
006000
ENDCHAR
STARTCHAR 00B4
ENCODING 180
SWIDTH 228 0
DWIDTH 37 0
BBX 22 18 14 117
BITMAP
000038
0000FC
0001FC
0003FC
000FF8
001FF8
003FF0
00FFC0
01FF80
03FE00
07FC00
1FF800
3FE000
7FC000
FF8000
FE0000
FC0000
780000
ENDCHAR
STARTCHAR 00B5
ENCODING 181
SWIDTH 222 0
DWIDTH 36 0
BBX 30 72 3 -17
BITMAP
38000070
7C0000F8
FC0001FC
FE0001FC
FE0001FC
FE0001FC
FE0001FC
FE0001FC
FE0001FC
FE0001FC
FE0001FC
FE0001FC
FE0001FC
FE0001FC
FE0001FC
FE0001FC
FE0001FC
FE0001FC
FE0001FC
FE0001FC
FE0001FC
FE0001FC
FE0001FC
FE0001FC
FE0001FC
FE0001FC
FE0001FC
FE0001FC
FE0001FC
FE0001FC
FE0001FC
FE0001FC
FE0001FC
FE0001FC
FE0001FC
FE0001FC
FE0001FC
FE0001FC
FE0001FC
FE0001FC
FE0001FC
FE0001FC
FE0001FC
FE0001FC
FE0001FC
FE0001FC
FE0003F8
FF0003F8
FF8007F8
FFC007F0
FFE01FF0
FFFFFFE0
FFFFFFE0
FFFFFFC0
FFFFFF00
FEFFFE00
FE3FF000
FE000000
FE000000
FE000000
FE000000
FE000000
FE000000
FE000000
FE000000
FE000000
FE000000
FE000000
FE000000
FE000000
7C000000
10000000
ENDCHAR
STARTCHAR 00B6
ENCODING 182
SWIDTH 407 0
DWIDTH 66 0
BBX 53 113 7 0
BITMAP
00000003FFFFF8
0000007FFFFFF8
000007FFFFFFF8
00003FFFFFFFF8
0000FFFFFFFFF8
0003FFFFFFFFF8
0007FFFFC1FC00
001FFFFFC1FC00
003FFFFFC1FC00
007FFFFFC1FC00
00FFFFFFC1FC00
01FFFFFFC1FC00
03FFFFFFC1FC00
07FFFFFFC1FC00
0FFFFFFFC1FC00
0FFFFFFFC1FC00
1FFFFFFFC1FC00
3FFFFFFFC1FC00
3FFFFFFFC1FC00
3FFFFFFFC1FC00
7FFFFFFFC1FC00
7FFFFFFFC1FC00
7FFFFFFFC1FC00
FFFFFFFFC1FC00
FFFFFFFFC1FC00
FFFFFFFFC1FC00
FFFFFFFFC1FC00
FFFFFFFFC1FC00
FFFFFFFFC1FC00
FFFFFFFFC1FC00
FFFFFFFFC1FC00
FFFFFFFFC1FC00
FFFFFFFFC1FC00
FFFFFFFFC1FC00
FFFFFFFFC1FC00
FFFFFFFFC1FC00
FFFFFFFFC1FC00
FFFFFFFFC1FC00
7FFFFFFFC1FC00
7FFFFFFFC1FC00
7FFFFFFFC1FC00
3FFFFFFFC1FC00
3FFFFFFFC1FC00
3FFFFFFFC1FC00
1FFFFFFFC1FC00
0FFFFFFFC1FC00
0FFFFFFFC1FC00
07FFFFFFC1FC00
03FFFFFFC1FC00
01FFFFFFC1FC00
00FFFFFFC1FC00
007FFFFFC1FC00
003FFFFFC1FC00
000FFFFFC1FC00
0007FFFFC1FC00
0001FFFFC1FC00
00007FFFC1FC00
00000FFFC1FC00
000000FFC1FC00
0000001FC1FC00
0000001FC1FC00
0000001FC1FC00
0000001FC1FC00
0000001FC1FC00
0000001FC1FC00
0000001FC1FC00
0000001FC1FC00
0000001FC1FC00
0000001FC1FC00
0000001FC1FC00
0000001FC1FC00
0000001FC1FC00
0000001FC1FC00
0000001FC1FC00
0000001FC1FC00
0000001FC1FC00
0000001FC1FC00
0000001FC1FC00
0000001FC1FC00
0000001FC1FC00
0000001FC1FC00
0000001FC1FC00
0000001FC1FC00
0000001FC1FC00
0000001FC1FC00
0000001FC1FC00
0000001FC1FC00
0000001FC1FC00
0000001FC1FC00
0000001FC1FC00
0000001FC1FC00
0000001FC1FC00
0000001FC1FC00
0000001FC1FC00
0000001FC1FC00
0000001FC1FC00
0000001FC1FC00
0000001FC1FC00
0000001FC1FC00
0000001FC1FC00
0000001FC1FC00
0000001FC1FC00
0000001FC1FC00
0000001FC1FC00
0000001FC1FC00
0000001FC1FC00
0000001FC1FC00
0000001FC1FC00
0000001FC1FC00
0000001FC1FC00
0000001FC1FC00
0000001FC1FC00
0000001FC1FC00
ENDCHAR
STARTCHAR 00B7
ENCODING 183
SWIDTH 240 0
DWIDTH 39 0
BBX 13 12 12 45
BITMAP
0F80
3FE0
7FF0
7FF0
FFF8
FFF8
FFF8
FFF8
FFF8
7FF0
3FE0
1FC0
ENDCHAR
STARTCHAR 00B8
ENCODING 184
SWIDTH 228 0
DWIDTH 37 0
BBX 15 24 10 -20
BITMAP
01E0
03E0
07E0
07E0
0FE0
0FC0
0FC0
1FF0
1FF8
1FFC
07FC
00FC
007E
007E
007E
007E
007E
007E
00FC
FFFC
FFF8
FFF0
7FE0
1F80
ENDCHAR
STARTCHAR 00B9
ENCODING 185
SWIDTH 86 0
DWIDTH 14 0
BBX 6 68 4 44
BITMAP
78
78
FC
FC
FC
FC
FC
FC
FC
FC
FC
FC
FC
FC
FC
FC
FC
FC
FC
FC
FC
FC
FC
FC
FC
FC
FC
FC
FC
FC
FC
FC
FC
FC
FC
FC
FC
FC
FC
FC
FC
FC
FC
FC
FC
FC
FC
FC
FC
FC
FC
FC
FC
FC
FC
FC
FC
FC
FC
FC
FC
FC
FC
FC
FC
FC
FC
78
ENDCHAR
STARTCHAR 00BA
ENCODING 186
SWIDTH 240 0
DWIDTH 39 0
BBX 19 70 10 43
BITMAP
03F800
0FFE00
3FFF80
3FFF80
7E0FC0
7C07C0
F803E0
F803E0
F803E0
F803E0
F803E0
F803E0
F803E0
F803E0
F803E0
F803E0
F803E0
F803E0
F803E0
F803E0
F803E0
F803E0
F803E0
F803E0
F803E0
F803E0
F803E0
F803E0
F803E0
F803E0
F803E0
F803E0
F803E0
F803E0
F803E0
F803E0
F803E0
F803E0
F803E0
F803E0
F803E0
F803E0
F803E0
F803E0
F803E0
F803E0
F803E0
F803E0
F803E0
F803E0
F803E0
F803E0
F803E0
F803E0
F803E0
F803E0
F803E0
F803E0
F803E0
F803E0
F803E0
F803E0
F803E0
FC07E0
7C07C0
7E0FC0
7FFFC0
3FFF80
1FFF00
07FC00
ENDCHAR
STARTCHAR 00BB
ENCODING 187
SWIDTH 234 0
DWIDTH 38 0
BBX 26 57 8 5
BITMAP
F81F0000
FC1F0000
FC1F8000
FE1F8000
FE1FC000
7E1FC000
7F0FC000
7F0FE000
3F8FE000
3F87F000
3F87F000
1FC7F000
1FC3F800
0FC3F800
0FE1F800
0FE1FC00
07E1FC00
07F0FE00
07F0FE00
03F8FE00
03F87F00
03F87F00
01FC7F00
01FC3F80
00FC3F80
00FE1F80
00FE1FC0
007E1FC0
007E0FC0
007E1FC0
00FE1FC0
00FE1F80
01FC3F80
01FC3F80
01FC7F00
03F87F00
03F87E00
03F0FE00
07F0FE00
07F1FC00
0FE1FC00
0FE1FC00
0FE3F800
1FC3F800
1FC3F800
1FC7F000
3F87F000
3F8FF000
7F8FE000
7F0FE000
7F1FC000
FE1FC000
FE1FC000
FE1F8000
FC1F8000
FC1F0000
781F0000
ENDCHAR
STARTCHAR 00BC
ENCODING 188
SWIDTH 506 0
DWIDTH 82 0
BBX 52 116 18 -2
BITMAP
00000003C00000
78000007C00000
78000007E00000
FC000007E00000
FC000007E00000
FC000007C00000
FC00000FC00000
FC00000FC00000
FC00000FC00000
FC00000FC00000
FC00000FC00000
FC00001F800000
FC00001F800000
FC00001F800000
FC00001F800000
FC00001F800000
FC00003F000000
FC00003F000000
FC00003F000000
FC00003F000000
FC00003F000000
FC00007E000000
FC00007E000000
FC00007E000000
FC00007E000000
FC00007E000000
FC0000FC000000
FC0000FC000000
FC0000FC000000
FC0000FC000000
FC0000FC000000
FC0001F8000000
FC0001F8000000
FC0001F8000000
FC0001F8000000
FC0001F8000000
FC0003F0000000
FC0003F0000000
FC0003F0000000
FC0003F0000000
FC0003F0000000
FC0007E0000000
FC0007E0000000
FC0007E0000000
FC0007E0000000
FC0007E0000000
FC0007C00E3E00
FC000FC01F7F00
FC000FC01F7F00
FC000FC01F7F00
FC000FC01F7F00
FC000F801F7F00
FC001F803F7F00
FC001F803E7F00
FC001F803E7F00
FC001F803E7F00
FC001F003E7F00
FC003F007E7F00
FC003F007E7F00
FC003F007E7F00
FC003F007C7F00
FC003E007C7F00
FC007E007C7F00
FC007E00FC7F00
FC007E00FC7F00
FC007E00FC7F00
FC007C00F87F00
FC00FC00F87F00
7800FC01F87F00
0000FC01F87F00
0000FC01F87F00
0000F801F87F00
0001F801F87F00
0001F801F07F00
0001F803F07F00
0001F803F07F00
0001F003F07F00
0003F003F07F00
0003F003F07F00
0003F003F07F00
0003F007E07F00
0003E007E07F00
0007E007E07F00
0007E007E07F00
0007E007E07F00
0007E00FE07F00
0007C00FC07F00
000FC00FC07F00
000FC00FFFFFE0
000FC00FFFFFF0
000FC00FFFFFF0
000F800FFFFFF0
001F8007FFFFC0
001F8000007F00
001F8000007F00
001F8000007F00
001F0000007F00
003F0000007F00
003F0000007F00
003F0000007F00
003F0000007F00
003E0000007F00
007E0000007F00
007E0000007F00
007E0000007F00
007E0000007F00
007C0000007F00
00FC0000007F00
00FC0000007F00
00FC0000007F00
00FC0000007F00
00F80000007F00
00F80000007F00
01F80000003E00
00F00000001C00
00E00000000000
ENDCHAR
STARTCHAR 00BD
ENCODING 189
SWIDTH 506 0
DWIDTH 82 0
BBX 55 115 16 -2
BITMAP
00000000F00000
78000001F00000
78000001F80000
FC000001F80000
FC000001F80000
FC000001F00000
FC000003F00000
FC000003F00000
FC000003F00000
FC000003F00000
FC000003F00000
FC000007E00000
FC000007E00000
FC000007E00000
FC000007E00000
FC000007E00000
FC00000FC00000
FC00000FC00000
FC00000FC00000
FC00000FC00000
FC00000FC00000
FC00001F800000
FC00001F800000
FC00001F800000
FC00001F800000
FC00001F800000
FC00003F000000
FC00003F000000
FC00003F000000
FC00003F000000
FC00003F000000
FC00007E000000
FC00007E000000
FC00007E000000
FC00007E000000
FC00007E000000
FC0000FC000000
FC0000FC000000
FC0000FC000000
FC0000FC000000
FC0000F8000000
FC0001F8000000
FC0001F8000000
FC0001F8000000
FC0001F8000000
FC0001F0003F00
FC0003F000FFE0
FC0003F001FFF0
FC0003F003FFF8
FC0003F007FFFC
FC0003E00FF3FC
FC0007E00FC0FC
FC0007E00FC07E
FC0007E00FC07E
FC0007E01F807E
FC0007C01F807E
FC0007C01F807E
FC000FC01F807E
FC000FC01F807E
FC000FC01F807E
FC000F801F807E
FC000F800F807E
FC001F800F807E
FC001F8007007E
FC001F8000007E
FC001F0000007E
FC001F0000007E
FC003F0000007E
78003F0000007E
00003F0000007E
00003E0000007E
00003E0000007E
00007E0000007E
00007E0000007E
00007E0000007E
00007C0000007E
00007C0000007E
0000FC0000007E
0000FC0000007E
0000FC0000007E
0000F80000007E
0000F80000007E
0001F8000000FE
0001F8000001FE
0001F8000003FC
0001F000001FFC
0001F000007FF8
0003F00001FFF8
0003F00003FFE0
0003F00007FF80
0003E00007FC00
0003E0000FF000
0007E0000FE000
0007E0000FE000
0007E0000FC000
0007C0000FC000
0007C0000FC000
000FC0000FC000
000FC0000FC000
000FC0000FC000
000F80000FC000
000F80000FC000
001F80000FC000
001F80000FC000
001F80000FC000
001F00000FC000
001F00000FC000
003F00000FC000
003F00000FC000
003F00000FFFFC
003E00000FFFFE
003E00000FFFFE
003E000007FFFE
003E000007FFFC
003C0000000000
ENDCHAR
STARTCHAR 00BE
ENCODING 190
SWIDTH 506 0
DWIDTH 82 0
BBX 63 116 10 -2
BITMAP
03FC000000F00000
0FFF000001F00000
1FFF800001F00000
3FFFC00001F80000
3FFFE00001F00000
7F0FE00001F00000
7E07F00003F00000
7C03F00003F00000
FC03F00003F00000
FC03F00003F00000
FC03F00003F00000
FC03F00007E00000
FC03F00007E00000
FC03F00007E00000
FC03F00007E00000
FC03F00007E00000
7C03F0000FC00000
7803F0000FC00000
0003F0000FC00000
0003F0000FC00000
0003F0000FC00000
0003F0001F800000
0003F0001F800000
0003F0001F800000
0003F0001F800000
0003F0001F800000
0003F0003F000000
0003F0003F000000
0003F0003F000000
0003F0003F000000
0007E0003F000000
3FFFE0007E000000
7FFFE0007E000000
7FFFE0007E000000
7FFFE0007E000000
3FFFE0007E000000
000FE000FC000000
0007E000FC000000
0003E000FC000000
0003F000FC000000
0003F000FC000000
0003F000F8000000
0003F001F8000000
0003F001F8000000
0003F001F8000000
0003F001F8000780
0003F001F001CFC0
0003F003F003EFE0
0003F003F003EFE0
0003F003F003EFE0
0003F003F003EFE0
3803F003E007EFE0
7C03F007E007EFE0
FC03F007E007CFE0
FC03F007E007CFE0
FC03F007E007CFE0
FC03F007C007CFE0
FC03F00FC00FCFE0
FC03F00FC00FCFE0
FC03F00FC00F8FE0
FC03F00FC00F8FE0
FC03F00F800F8FE0
7E03F01F800F8FE0
7E07F01F801F8FE0
7F0FE01F801F8FE0
3FFFE01F801F8FE0
3FFFC01F001F0FE0
1FFFC03F001F0FE0
0FFF803F001F0FE0
03FE003F003F0FE0
0000003F003F0FE0
0000003E003F0FE0
0000007E003F0FE0
0000007E003E0FE0
0000007E007E0FE0
0000007E007E0FE0
0000007C007E0FE0
000000FC007E0FE0
000000FC007E0FE0
000000FC007C0FE0
000000FC00FC0FE0
000000F800FC0FE0
000001F800FC0FE0
000001F800FC0FE0
000001F800FC0FE0
000001F800FC0FE0
000001F001F80FE0
000003F001F80FE0
000003F001FFFFFC
000003F001FFFFFE
000003F001FFFFFE
000003E001FFFFFE
000007E000FFFFF8
000007E000000FE0
000007E000000FE0
000007E000000FE0
000007C000000FE0
000007C000000FE0
00000FC000000FE0
00000FC000000FE0
00000FC000000FE0
00000F8000000FE0
00000F8000000FE0
00001F8000000FE0
00001F8000000FE0
00001F8000000FE0
00001F0000000FE0
00001F0000000FE0
00003F0000000FE0
00003F0000000FE0
00003F0000000FE0
00003E0000000FE0
00003E0000000FE0
00007E00000007C0
00003C0000000380
0000380000000000
ENDCHAR
STARTCHAR 00BF
ENCODING 191
SWIDTH 222 0
DWIDTH 36 0
BBX 31 115 3 -2
BITMAP
0007C000
000FE000
001FF000
003FF800
003FF800
003FF800
003FF800
001FF000
000FE000
0007C000
00000000
00038000
0007C000
000FE000
000FE000
000FE000
000FE000
000FE000
000FE000
000FE000
000FE000
000FE000
000FE000
000FE000
000FE000
000FE000
000FE000
000FE000
000FE000
001FE000
01FFE000
07FFE000
0FFFE000
1FFFE000
3FFFE000
3FF00000
7FC00000
7F800000
7F000000
7F000000
FF000000
FE000000
FE000000
FE000000
FE000000
FE000000
FE000000
FE000000
FE000000
FE000000
FE000000
FE000000
FE000000
FE000000
FE000000
FE000000
FE000000
FE000000
FE000000
FE000000
FE000000
FE000000
FE000000
FE000000
FE000000
FE000000
FE000000
FE000000
FE000000
FE000000
FE000000
FE000000
FE000000
FE000000
FE000000
FE000000
FE000000
FE000000
FE000000
FE000000
FE000000
FE000000
FE000000
FE000000
FE000000
FE000000
FE000078
FE0000FC
FE0000FE
FE0000FE
FE0000FE
FE0000FE
FE0000FE
FE0000FE
FE0000FE
FE0000FE
FE0000FE
FE0000FE
FE0000FE
FE0000FE
FE0000FE
FE0000FE
FE0000FE
FE0000FE
7F0001FC
7F0001FC
7F8003FC
3FC007F8
3FF01FF8
1FFFFFF0
0FFFFFE0
0FFFFFC0
03FFFF80
01FFFE00
003FF000
ENDCHAR
STARTCHAR 00C0
ENCODING 192
SWIDTH 259 0
DWIDTH 42 0
BBX 37 139 0 0
BITMAP
003E000000
003F000000
003F800000
003FC00000
003FF00000
001FF80000
000FFC0000
0003FF0000
0001FF8000
0000FFC000
00003FF000
00001FF800
00000FFC00
000003FE00
000001FE00
000000FF00
0000007E00
0000001E00
0000000000
0000000000
0000000000
0000000000
0000000000
0000000000
00007FE000
0003FFFC00
0007FFFF00
001FFFFF80
001FFFFFC0
003FFFFFC0
007F803FE0
007E000FE0
00FE0007F0
00FE0007F0
00FC0007F0
01FC0003F8
01FC0003F8
01FC0003F8
01FC0003F8
01FC0003F8
01FC0003F8
01FC0003F8
01FC0003F8
01FC0003F8
01FC0003F8
01FC0003F8
01FC0003F8
01FC0003F8
01FC0003F8
01FC0003F8
01FC0003F8
01FC0003F8
01FC0003F8
01FC0003F8
01FC0003F8
01FC0003F8
01FC0003F8
01FC0003F8
01FC0003F8
01FC0003F8
01FC0003F8
01FC0003F8
01FC0003F8
01FC0003F8
01FC0003F8
01FC0003F8
01FC0003F8
01FC0003F8
01FC0003F8
01FC0003F8
01FC0003F8
01FC0003F8
01FC0003F8
01FC0003F8
01FC0003F8
01FC0003F8
01FC0003F8
01FC0003F8
01FC0003F8
01FC0003F8
01FC0003F8
01FC0003F8
01FC0003F8
01FC0003F8
01FC0003F8
01FC0003F8
01FC0003F8
01FC0003F8
7FFFFFFFF8
FFFFFFFFF8
FFFFFFFFF8
FFFFFFFFF8
FFFFFFFFF8
7FFFFFFFF8
01FC0003F8
01FC0003F8
01FC0003F8
01FC0003F8
01FC0003F8
01FC0003F8
01FC0003F8
01FC0003F8
01FC0003F8
01FC0003F8
01FC0003F8
01FC0003F8
01FC0003F8
01FC0003F8
01FC0003F8
01FC0003F8
01FC0003F8
01FC0003F8
01FC0003F8
01FC0003F8
01FC0003F8
01FC0003F8
01FC0003F8
01FC0003F8
01FC0003F8
01FC0003F8
01FC0003F8
01FC0003F8
01FC0003F8
01FC0003F8
01FC0003F8
01FC0003F8
01FC0003F8
01FC0003F8
01FC0003F8
01FC0003F8
01FC0003F8
01FC0003F8
01FC0003F8
01FC0003F8
01FC0003F8
01FC0003F8
01FC0003F8
00F80001F0
00700000F0
ENDCHAR
STARTCHAR 00C1
ENCODING 193
SWIDTH 259 0
DWIDTH 42 0
BBX 37 141 0 -1
BITMAP
0000000380
0000000FC0
0000001FC0
0000003FC0
0000007FC0
000001FF80
000003FF00
000007FC00
00001FF800
00003FF000
00007FC000
0000FF8000
0003FF0000
0007FC0000
0007F80000
000FF00000
0007C00000
0007800000
0000000000
0000000000
0000000000
0000000000
0000000000
0000000000
0000000000
0000000000
00007FE000
0003FFFC00
0007FFFF00
001FFFFF80
001FFFFFC0
003FFFFFC0
007F803FE0
007E000FE0
00FE0007F0
00FE0007F0
00FC0007F0
01FC0003F8
01FC0003F8
01FC0003F8
01FC0003F8
01FC0003F8
01FC0003F8
01FC0003F8
01FC0003F8
01FC0003F8
01FC0003F8
01FC0003F8
01FC0003F8
01FC0003F8
01FC0003F8
01FC0003F8
01FC0003F8
01FC0003F8
01FC0003F8
01FC0003F8
01FC0003F8
01FC0003F8
01FC0003F8
01FC0003F8
01FC0003F8
01FC0003F8
01FC0003F8
01FC0003F8
01FC0003F8
01FC0003F8
01FC0003F8
01FC0003F8
01FC0003F8
01FC0003F8
01FC0003F8
01FC0003F8
01FC0003F8
01FC0003F8
01FC0003F8
01FC0003F8
01FC0003F8
01FC0003F8
01FC0003F8
01FC0003F8
01FC0003F8
01FC0003F8
01FC0003F8
01FC0003F8
01FC0003F8
01FC0003F8
01FC0003F8
01FC0003F8
01FC0003F8
01FC0003F8
7FFFFFFFF8
FFFFFFFFF8
FFFFFFFFF8
FFFFFFFFF8
FFFFFFFFF8
7FFFFFFFF8
01FC0003F8
01FC0003F8
01FC0003F8
01FC0003F8
01FC0003F8
01FC0003F8
01FC0003F8
01FC0003F8
01FC0003F8
01FC0003F8
01FC0003F8
01FC0003F8
01FC0003F8
01FC0003F8
01FC0003F8
01FC0003F8
01FC0003F8
01FC0003F8
01FC0003F8
01FC0003F8
01FC0003F8
01FC0003F8
01FC0003F8
01FC0003F8
01FC0003F8
01FC0003F8
01FC0003F8
01FC0003F8
01FC0003F8
01FC0003F8
01FC0003F8
01FC0003F8
01FC0003F8
01FC0003F8
01FC0003F8
01FC0003F8
01FC0003F8
01FC0003F8
01FC0003F8
01FC0003F8
01FC0003F8
01FC0003F8
01FC0003F8
00F80001F0
00700000F0
ENDCHAR
STARTCHAR 00C2
ENCODING 194
SWIDTH 259 0
DWIDTH 42 0
BBX 37 135 0 0
BITMAP
00001F8000
00007FE000
0001FFF800
0007FFFE00
001FFFFF00
003FFFFFC0
00FFF0FFE0
00FFC03FF0
00FF000FF0
00FC0003F0
0060000060
0000000000
0000000000
0000000000
0000000000
0000000000
0000000000
0000000000
0000000000
0000000000
00007FE000
0003FFFC00
0007FFFF00
001FFFFF80
001FFFFFC0
003FFFFFC0
007F803FE0
007E000FE0
00FE0007F0
00FE0007F0
00FC0007F0
01FC0003F8
01FC0003F8
01FC0003F8
01FC0003F8
01FC0003F8
01FC0003F8
01FC0003F8
01FC0003F8
01FC0003F8
01FC0003F8
01FC0003F8
01FC0003F8
01FC0003F8
01FC0003F8
01FC0003F8
01FC0003F8
01FC0003F8
01FC0003F8
01FC0003F8
01FC0003F8
01FC0003F8
01FC0003F8
01FC0003F8
01FC0003F8
01FC0003F8
01FC0003F8
01FC0003F8
01FC0003F8
01FC0003F8
01FC0003F8
01FC0003F8
01FC0003F8
01FC0003F8
01FC0003F8
01FC0003F8
01FC0003F8
01FC0003F8
01FC0003F8
01FC0003F8
01FC0003F8
01FC0003F8
01FC0003F8
01FC0003F8
01FC0003F8
01FC0003F8
01FC0003F8
01FC0003F8
01FC0003F8
01FC0003F8
01FC0003F8
01FC0003F8
01FC0003F8
01FC0003F8
7FFFFFFFF8
FFFFFFFFF8
FFFFFFFFF8
FFFFFFFFF8
FFFFFFFFF8
7FFFFFFFF8
01FC0003F8
01FC0003F8
01FC0003F8
01FC0003F8
01FC0003F8
01FC0003F8
01FC0003F8
01FC0003F8
01FC0003F8
01FC0003F8
01FC0003F8
01FC0003F8
01FC0003F8
01FC0003F8
01FC0003F8
01FC0003F8
01FC0003F8
01FC0003F8
01FC0003F8
01FC0003F8
01FC0003F8
01FC0003F8
01FC0003F8
01FC0003F8
01FC0003F8
01FC0003F8
01FC0003F8
01FC0003F8
01FC0003F8
01FC0003F8
01FC0003F8
01FC0003F8
01FC0003F8
01FC0003F8
01FC0003F8
01FC0003F8
01FC0003F8
01FC0003F8
01FC0003F8
01FC0003F8
01FC0003F8
01FC0003F8
01FC0003F8
00F80001F0
00700000F0
ENDCHAR
STARTCHAR 00C3
ENCODING 195
SWIDTH 259 0
DWIDTH 42 0
BBX 37 136 0 0
BITMAP
0003F80080
000FFE03E0
001FFF03F0
003FFFC7F0
003FFFEFF0
003FFFFFE0
003F9FFFE0
003F07FFC0
003E03FFC0
003E01FF00
0018007E00
0000000000
0000000000
0000000000
0000000000
0000000000
0000000000
0000000000
0000000000
0000000000
0000000000
00007FE000
0003FFFC00
0007FFFF00
001FFFFF80
001FFFFFC0
003FFFFFC0
007F803FE0
007E000FE0
00FE0007F0
00FE0007F0
00FC0007F0
01FC0003F8
01FC0003F8
01FC0003F8
01FC0003F8
01FC0003F8
01FC0003F8
01FC0003F8
01FC0003F8
01FC0003F8
01FC0003F8
01FC0003F8
01FC0003F8
01FC0003F8
01FC0003F8
01FC0003F8
01FC0003F8
01FC0003F8
01FC0003F8
01FC0003F8
01FC0003F8
01FC0003F8
01FC0003F8
01FC0003F8
01FC0003F8
01FC0003F8
01FC0003F8
01FC0003F8
01FC0003F8
01FC0003F8
01FC0003F8
01FC0003F8
01FC0003F8
01FC0003F8
01FC0003F8
01FC0003F8
01FC0003F8
01FC0003F8
01FC0003F8
01FC0003F8
01FC0003F8
01FC0003F8
01FC0003F8
01FC0003F8
01FC0003F8
01FC0003F8
01FC0003F8
01FC0003F8
01FC0003F8
01FC0003F8
01FC0003F8
01FC0003F8
01FC0003F8
01FC0003F8
7FFFFFFFF8
FFFFFFFFF8
FFFFFFFFF8
FFFFFFFFF8
FFFFFFFFF8
7FFFFFFFF8
01FC0003F8
01FC0003F8
01FC0003F8
01FC0003F8
01FC0003F8
01FC0003F8
01FC0003F8
01FC0003F8
01FC0003F8
01FC0003F8
01FC0003F8
01FC0003F8
01FC0003F8
01FC0003F8
01FC0003F8
01FC0003F8
01FC0003F8
01FC0003F8
01FC0003F8
01FC0003F8
01FC0003F8
01FC0003F8
01FC0003F8
01FC0003F8
01FC0003F8
01FC0003F8
01FC0003F8
01FC0003F8
01FC0003F8
01FC0003F8
01FC0003F8
01FC0003F8
01FC0003F8
01FC0003F8
01FC0003F8
01FC0003F8
01FC0003F8
01FC0003F8
01FC0003F8
01FC0003F8
01FC0003F8
01FC0003F8
01FC0003F8
00F80001F0
00700000F0
ENDCHAR
STARTCHAR 00C4
ENCODING 196
SWIDTH 259 0
DWIDTH 42 0
BBX 37 135 0 0
BITMAP
000FC01FC0
001FF03FE0
003FF07FE0
003FF87FF0
003FF87FF0
003FF87FF0
003FF07FE0
003FF07FE0
001FE03FC0
0003800000
0000000000
0000000000
0000000000
0000000000
0000000000
0000000000
0000000000
0000000000
0000000000
0000000000
00007FE000
0003FFFC00
0007FFFF00
001FFFFF80
001FFFFFC0
003FFFFFC0
007F803FE0
007E000FE0
00FE0007F0
00FE0007F0
00FC0007F0
01FC0003F8
01FC0003F8
01FC0003F8
01FC0003F8
01FC0003F8
01FC0003F8
01FC0003F8
01FC0003F8
01FC0003F8
01FC0003F8
01FC0003F8
01FC0003F8
01FC0003F8
01FC0003F8
01FC0003F8
01FC0003F8
01FC0003F8
01FC0003F8
01FC0003F8
01FC0003F8
01FC0003F8
01FC0003F8
01FC0003F8
01FC0003F8
01FC0003F8
01FC0003F8
01FC0003F8
01FC0003F8
01FC0003F8
01FC0003F8
01FC0003F8
01FC0003F8
01FC0003F8
01FC0003F8
01FC0003F8
01FC0003F8
01FC0003F8
01FC0003F8
01FC0003F8
01FC0003F8
01FC0003F8
01FC0003F8
01FC0003F8
01FC0003F8
01FC0003F8
01FC0003F8
01FC0003F8
01FC0003F8
01FC0003F8
01FC0003F8
01FC0003F8
01FC0003F8
01FC0003F8
7FFFFFFFF8
FFFFFFFFF8
FFFFFFFFF8
FFFFFFFFF8
FFFFFFFFF8
7FFFFFFFF8
01FC0003F8
01FC0003F8
01FC0003F8
01FC0003F8
01FC0003F8
01FC0003F8
01FC0003F8
01FC0003F8
01FC0003F8
01FC0003F8
01FC0003F8
01FC0003F8
01FC0003F8
01FC0003F8
01FC0003F8
01FC0003F8
01FC0003F8
01FC0003F8
01FC0003F8
01FC0003F8
01FC0003F8
01FC0003F8
01FC0003F8
01FC0003F8
01FC0003F8
01FC0003F8
01FC0003F8
01FC0003F8
01FC0003F8
01FC0003F8
01FC0003F8
01FC0003F8
01FC0003F8
01FC0003F8
01FC0003F8
01FC0003F8
01FC0003F8
01FC0003F8
01FC0003F8
01FC0003F8
01FC0003F8
01FC0003F8
01FC0003F8
00F80001F0
00700000F0
ENDCHAR
STARTCHAR 00C5
ENCODING 197
SWIDTH 259 0
DWIDTH 42 0
BBX 37 144 0 -1
BITMAP
0000030000
00003FF000
0000FFFC00
0001FFFE00
0003FFFF00
0007FFFF00
0007F03F80
0007E01F80
000FC00FC0
000FC00FC0
000FC00FC0
000FC00FC0
000FC00FC0
000FC00FC0
0007E01F80
0007F03F80
0007FFFF80
0003FFFF00
0001FFFE00
0000FFFC00
00003FF000
0000078000
0000000000
0000000000
0000000000
0000000000
0000000000
0000000000
0000000000
00007FE000
0003FFFC00
0007FFFF00
001FFFFF80
001FFFFFC0
003FFFFFC0
007F803FE0
007E000FE0
00FE0007F0
00FE0007F0
00FC0007F0
01FC0003F8
01FC0003F8
01FC0003F8
01FC0003F8
01FC0003F8
01FC0003F8
01FC0003F8
01FC0003F8
01FC0003F8
01FC0003F8
01FC0003F8
01FC0003F8
01FC0003F8
01FC0003F8
01FC0003F8
01FC0003F8
01FC0003F8
01FC0003F8
01FC0003F8
01FC0003F8
01FC0003F8
01FC0003F8
01FC0003F8
01FC0003F8
01FC0003F8
01FC0003F8
01FC0003F8
01FC0003F8
01FC0003F8
01FC0003F8
01FC0003F8
01FC0003F8
01FC0003F8
01FC0003F8
01FC0003F8
01FC0003F8
01FC0003F8
01FC0003F8
01FC0003F8
01FC0003F8
01FC0003F8
01FC0003F8
01FC0003F8
01FC0003F8
01FC0003F8
01FC0003F8
01FC0003F8
01FC0003F8
01FC0003F8
01FC0003F8
01FC0003F8
01FC0003F8
01FC0003F8
7FFFFFFFF8
FFFFFFFFF8
FFFFFFFFF8
FFFFFFFFF8
FFFFFFFFF8
7FFFFFFFF8
01FC0003F8
01FC0003F8
01FC0003F8
01FC0003F8
01FC0003F8
01FC0003F8
01FC0003F8
01FC0003F8
01FC0003F8
01FC0003F8
01FC0003F8
01FC0003F8
01FC0003F8
01FC0003F8
01FC0003F8
01FC0003F8
01FC0003F8
01FC0003F8
01FC0003F8
01FC0003F8
01FC0003F8
01FC0003F8
01FC0003F8
01FC0003F8
01FC0003F8
01FC0003F8
01FC0003F8
01FC0003F8
01FC0003F8
01FC0003F8
01FC0003F8
01FC0003F8
01FC0003F8
01FC0003F8
01FC0003F8
01FC0003F8
01FC0003F8
01FC0003F8
01FC0003F8
01FC0003F8
01FC0003F8
01FC0003F8
01FC0003F8
00F80001F0
00700000F0
ENDCHAR
STARTCHAR 00C6
ENCODING 198
SWIDTH 382 0
DWIDTH 62 0
BBX 60 115 1 0
BITMAP
00007FFC00000000
0003FFFFFFFFFFC0
0007FFFFFFFFFFE0
001FFFFFFFFFFFF0
003FFFFFFFFFFFF0
003FFFFFFFFFFFE0
007FC01FFFFFFFC0
007F0007FC000000
00FF0007FC000000
00FE0003FC000000
00FE0003FC000000
01FC0001FC000000
01FC0001FC000000
01FC0001FC000000
01FC0001FC000000
01FC0001FC000000
01FC0001FC000000
01FC0001FC000000
01FC0001FC000000
01FC0001FC000000
01FC0001FC000000
01FC0001FC000000
01FC0001FC000000
01FC0001FC000000
01FC0001FC000000
01FC0001FC000000
01FC0001FC000000
01FC0001FC000000
01FC0001FC000000
01FC0001FC000000
01FC0001FC000000
01FC0001FC000000
01FC0001FC000000
01FC0001FC000000
01FC0001FC000000
01FC0001FC000000
01FC0001FC000000
01FC0001FC000000
01FC0001FC000000
01FC0001FC000000
01FC0001FC000000
01FC0001FC000000
01FC0001FC000000
01FC0001FC000000
01FC0001FC000000
01FC0001FC000000
01FC0001FC000000
01FC0001FC000000
01FC0001FC000000
01FC0001FC000000
01FC0001FC000000
01FC0001FC000000
01FC0001FC000000
01FC0001FC000000
01FC0001FC000000
01FC0001FC000000
01FC0001FC000000
01FC0001FC000000
01FC0001FC000000
01FC0001FC000000
01FC0001FC000000
01FC0001FC000000
01FC0001FC000000
01FC0001FC000000
7FFFFFFFFFFFFFC0
FFFFFFFFFFFFFFE0
FFFFFFFFFFFFFFF0
FFFFFFFFFFFFFFF0
FFFFFFFFFFFFFFF0
7FFFFFFFFFFFFFC0
01FC0001FC000000
01FC0001FC000000
01FC0001FC000000
01FC0001FC000000
01FC0001FC000000
01FC0001FC000000
01FC0001FC000000
01FC0001FC000000
01FC0001FC000000
01FC0001FC000000
01FC0001FC000000
01FC0001FC000000
01FC0001FC000000
01FC0001FC000000
01FC0001FC000000
01FC0001FC000000
01FC0001FC000000
01FC0001FC000000
01FC0001FC000000
01FC0001FC000000
01FC0001FC000000
01FC0001FC000000
01FC0001FC000000
01FC0001FC000000
01FC0001FC000000
01FC0001FC000000
01FC0001FC000000
01FC0001FC000000
01FC0001FC000000
01FC0001FC000000
01FC0001FC000000
01FC0001FC000000
01FC0001FC000000
01FC0001FC000000
01FC0001FC000000
01FC0001FC000000
01FC0001FC000000
01FC0001FC000000
01FC0001FC000000
01FC0001FFFFFFC0
01FC0001FFFFFFE0
01FC0001FFFFFFF0
01FC0001FFFFFFF0
00F80000FFFFFFF0
007000007FFFFFE0
ENDCHAR
STARTCHAR 00C7
ENCODING 199
SWIDTH 228 0
DWIDTH 37 0
BBX 31 135 3 -21
BITMAP
001FF000
01FFFE00
03FFFF80
0FFFFFC0
1FFFFFE0
1FFFFFF0
3FF01FF8
3F8003F8
7F8001FC
7F0001FC
7F0001FC
FE0000FE
FE0000FE
FE0000FE
FE0000FE
FE0000FE
FE0000FE
FE0000FE
FE0000FE
FE0000FE
FE0000FE
FE0000FE
FE0000FE
FE0000FE
FE0000FE
FE0000FE
FE0000FE
FE0000FE
FE00007C
FE000000
FE000000
FE000000
FE000000
FE000000
FE000000
FE000000
FE000000
FE000000
FE000000
FE000000
FE000000
FE000000
FE000000
FE000000
FE000000
FE000000
FE000000
FE000000
FE000000
FE000000
FE000000
FE000000
FE000000
FE000000
FE000000
FE000000
FE000000
FE000000
FE000000
FE000000
FE000000
FE000000
FE000000
FE000000
FE000000
FE000000
FE000000
FE000000
FE000000
FE000000
FE000000
FE000000
FE000000
FE000000
FE000000
FE000000
FE000000
FE000000
FE000000
FE000000
FE000000
FE000000
FE000000
FE000000
FE000000
FE000000
FE000000
FE000000
FE00007C
FE0000FE
FE0000FE
FE0000FE
FE0000FE
FE0000FE
FE0000FE
FE0000FE
FE0000FE
FE0000FE
FE0000FE
FE0000FE
FE0000FE
FE0000FE
FE0000FE
FE0000FE
FE0000FE
7E0001FE
7F0001FC
7F0001FC
7F8003FC
3F8007F8
1FF01FF8
1FFFFFF0
0FFFFFE0
07FFFFC0
01FFFF80
007FFC00
000F8000
001F8000
001FC000
001FF000
001FF000
001FF800
0001F800
0000FC00
0000FC00
00007C00
00007C00
00007C00
0000FC00
0000F800
00FFF800
00FFF000
00FFE000
007FC000
001F0000
ENDCHAR
STARTCHAR 00C8
ENCODING 200
SWIDTH 228 0
DWIDTH 37 0
BBX 36 140 0 -1
BITMAP
001C000000
003F000000
003F800000
003FC00000
003FF00000
001FF80000
000FFC0000
0003FF0000
0001FF8000
0000FFC000
00003FF000
00001FF800
00000FFC00
000007FE00
000001FF00
000000FF00
0000007F00
0000001E00
0000000000
0000000000
0000000000
0000000000
0000000000
0000000000
0000000000
0000000000
007FFFFFC0
00FFFFFFE0
01FFFFFFF0
01FFFFFFF0
01FFFFFFE0
01FFFFFFC0
01FC000000
01FC000000
01FC000000
01FC000000
01FC000000
01FC000000
01FC000000
01FC000000
01FC000000
01FC000000
01FC000000
01FC000000
01FC000000
01FC000000
01FC000000
01FC000000
01FC000000
01FC000000
01FC000000
01FC000000
01FC000000
01FC000000
01FC000000
01FC000000
01FC000000
01FC000000
01FC000000
01FC000000
01FC000000
01FC000000
01FC000000
01FC000000
01FC000000
01FC000000
01FC000000
01FC000000
01FC000000
01FC000000
01FC000000
01FC000000
01FC000000
01FC000000
01FC000000
01FC000000
01FC000000
01FC000000
01FC000000
01FC000000
01FC000000
01FC000000
01FC000000
01FC000000
01FC000000
01FC000000
01FC000000
01FC000000
01FC000000
7FFFFFFFC0
FFFFFFFFE0
FFFFFFFFF0
FFFFFFFFF0
FFFFFFFFE0
7FFFFFFFC0
01FC000000
01FC000000
01FC000000
01FC000000
01FC000000
01FC000000
01FC000000
01FC000000
01FC000000
01FC000000
01FC000000
01FC000000
01FC000000
01FC000000
01FC000000
01FC000000
01FC000000
01FC000000
01FC000000
01FC000000
01FC000000
01FC000000
01FC000000
01FC000000
01FC000000
01FC000000
01FC000000
01FC000000
01FC000000
01FC000000
01FC000000
01FC000000
01FC000000
01FC000000
01FC000000
01FC000000
01FC000000
01FC000000
01FC000000
01FFFFFFC0
01FFFFFFE0
01FFFFFFF0
01FFFFFFF0
00FFFFFFE0
007FFFFFC0
ENDCHAR
STARTCHAR 00C9
ENCODING 201
SWIDTH 228 0
DWIDTH 37 0
BBX 36 141 0 -1
BITMAP
0000000700
0000000F80
0000003F80
0000007F80
000000FF80
000001FF00
000007FE00
00000FFC00
00001FF000
00007FE000
0000FFC000
0001FF0000
0003FE0000
000FFC0000
000FF00000
001FE00000
000FC00000
000F000000
0002000000
0000000000
0000000000
0000000000
0000000000
0000000000
0000000000
0000000000
0000000000
007FFFFFC0
00FFFFFFE0
01FFFFFFF0
01FFFFFFF0
01FFFFFFE0
01FFFFFFC0
01FC000000
01FC000000
01FC000000
01FC000000
01FC000000
01FC000000
01FC000000
01FC000000
01FC000000
01FC000000
01FC000000
01FC000000
01FC000000
01FC000000
01FC000000
01FC000000
01FC000000
01FC000000
01FC000000
01FC000000
01FC000000
01FC000000
01FC000000
01FC000000
01FC000000
01FC000000
01FC000000
01FC000000
01FC000000
01FC000000
01FC000000
01FC000000
01FC000000
01FC000000
01FC000000
01FC000000
01FC000000
01FC000000
01FC000000
01FC000000
01FC000000
01FC000000
01FC000000
01FC000000
01FC000000
01FC000000
01FC000000
01FC000000
01FC000000
01FC000000
01FC000000
01FC000000
01FC000000
01FC000000
01FC000000
01FC000000
01FC000000
7FFFFFFFC0
FFFFFFFFE0
FFFFFFFFF0
FFFFFFFFF0
FFFFFFFFE0
7FFFFFFFC0
01FC000000
01FC000000
01FC000000
01FC000000
01FC000000
01FC000000
01FC000000
01FC000000
01FC000000
01FC000000
01FC000000
01FC000000
01FC000000
01FC000000
01FC000000
01FC000000
01FC000000
01FC000000
01FC000000
01FC000000
01FC000000
01FC000000
01FC000000
01FC000000
01FC000000
01FC000000
01FC000000
01FC000000
01FC000000
01FC000000
01FC000000
01FC000000
01FC000000
01FC000000
01FC000000
01FC000000
01FC000000
01FC000000
01FC000000
01FFFFFFC0
01FFFFFFE0
01FFFFFFF0
01FFFFFFF0
00FFFFFFE0
007FFFFFC0
ENDCHAR
STARTCHAR 00CA
ENCODING 202
SWIDTH 228 0
DWIDTH 37 0
BBX 36 135 0 -1
BITMAP
00001C0000
0000FF0000
0001FFC000
0007FFF000
001FFFFC00
007FFFFF00
00FFF7FFC0
01FFC1FFC0
01FF003FE0
01FC000FC0
01E00003C0
0000000000
0000000000
0000000000
0000000000
0000000000
0000000000
0000000000
0000000000
0000000000
0000000000
007FFFFFC0
00FFFFFFE0
01FFFFFFF0
01FFFFFFF0
01FFFFFFE0
01FFFFFFC0
01FC000000
01FC000000
01FC000000
01FC000000
01FC000000
01FC000000
01FC000000
01FC000000
01FC000000
01FC000000
01FC000000
01FC000000
01FC000000
01FC000000
01FC000000
01FC000000
01FC000000
01FC000000
01FC000000
01FC000000
01FC000000
01FC000000
01FC000000
01FC000000
01FC000000
01FC000000
01FC000000
01FC000000
01FC000000
01FC000000
01FC000000
01FC000000
01FC000000
01FC000000
01FC000000
01FC000000
01FC000000
01FC000000
01FC000000
01FC000000
01FC000000
01FC000000
01FC000000
01FC000000
01FC000000
01FC000000
01FC000000
01FC000000
01FC000000
01FC000000
01FC000000
01FC000000
01FC000000
01FC000000
01FC000000
01FC000000
01FC000000
7FFFFFFFC0
FFFFFFFFE0
FFFFFFFFF0
FFFFFFFFF0
FFFFFFFFE0
7FFFFFFFC0
01FC000000
01FC000000
01FC000000
01FC000000
01FC000000
01FC000000
01FC000000
01FC000000
01FC000000
01FC000000
01FC000000
01FC000000
01FC000000
01FC000000
01FC000000
01FC000000
01FC000000
01FC000000
01FC000000
01FC000000
01FC000000
01FC000000
01FC000000
01FC000000
01FC000000
01FC000000
01FC000000
01FC000000
01FC000000
01FC000000
01FC000000
01FC000000
01FC000000
01FC000000
01FC000000
01FC000000
01FC000000
01FC000000
01FC000000
01FFFFFFC0
01FFFFFFE0
01FFFFFFF0
01FFFFFFF0
00FFFFFFE0
007FFFFFC0
ENDCHAR
STARTCHAR 00CB
ENCODING 203
SWIDTH 228 0
DWIDTH 37 0
BBX 36 136 0 0
BITMAP
003F807F00
007FC0FF80
00FFE1FFC0
00FFE1FFC0
00FFE1FFC0
00FFE1FFC0
00FFE1FFC0
00FFC0FF80
007FC0FF00
000E000800
0000000000
0000000000
0000000000
0000000000
0000000000
0000000000
0000000000
0000000000
0000000000
0000000000
0000000000
0000000000
007FFFFFC0
00FFFFFFE0
01FFFFFFF0
01FFFFFFF0
01FFFFFFE0
01FFFFFFC0
01FC000000
01FC000000
01FC000000
01FC000000
01FC000000
01FC000000
01FC000000
01FC000000
01FC000000
01FC000000
01FC000000
01FC000000
01FC000000
01FC000000
01FC000000
01FC000000
01FC000000
01FC000000
01FC000000
01FC000000
01FC000000
01FC000000
01FC000000
01FC000000
01FC000000
01FC000000
01FC000000
01FC000000
01FC000000
01FC000000
01FC000000
01FC000000
01FC000000
01FC000000
01FC000000
01FC000000
01FC000000
01FC000000
01FC000000
01FC000000
01FC000000
01FC000000
01FC000000
01FC000000
01FC000000
01FC000000
01FC000000
01FC000000
01FC000000
01FC000000
01FC000000
01FC000000
01FC000000
01FC000000
01FC000000
01FC000000
01FC000000
7FFFFFFFC0
FFFFFFFFE0
FFFFFFFFF0
FFFFFFFFF0
FFFFFFFFE0
7FFFFFFFC0
01FC000000
01FC000000
01FC000000
01FC000000
01FC000000
01FC000000
01FC000000
01FC000000
01FC000000
01FC000000
01FC000000
01FC000000
01FC000000
01FC000000
01FC000000
01FC000000
01FC000000
01FC000000
01FC000000
01FC000000
01FC000000
01FC000000
01FC000000
01FC000000
01FC000000
01FC000000
01FC000000
01FC000000
01FC000000
01FC000000
01FC000000
01FC000000
01FC000000
01FC000000
01FC000000
01FC000000
01FC000000
01FC000000
01FC000000
01FFFFFFC0
01FFFFFFE0
01FFFFFFF0
01FFFFFFF0
00FFFFFFE0
007FFFFFC0
ENDCHAR
STARTCHAR 00CC
ENCODING 204
SWIDTH 86 0
DWIDTH 14 0
BBX 22 140 -12 -1
BITMAP
700000
F80000
FE0000
FF0000
FF8000
7FE000
3FF000
1FF800
07FE00
03FF00
01FF80
00FFE0
003FF0
001FF8
000FF8
0003F8
0001F8
0000F8
000000
000000
000000
000000
000000
000000
000000
000000
000070
0000F8
0001FC
0001FC
0001FC
0001FC
0001FC
0001FC
0001FC
0001FC
0001FC
0001FC
0001FC
0001FC
0001FC
0001FC
0001FC
0001FC
0001FC
0001FC
0001FC
0001FC
0001FC
0001FC
0001FC
0001FC
0001FC
0001FC
0001FC
0001FC
0001FC
0001FC
0001FC
0001FC
0001FC
0001FC
0001FC
0001FC
0001FC
0001FC
0001FC
0001FC
0001FC
0001FC
0001FC
0001FC
0001FC
0001FC
0001FC
0001FC
0001FC
0001FC
0001FC
0001FC
0001FC
0001FC
0001FC
0001FC
0001FC
0001FC
0001FC
0001FC
0001FC
0001FC
0001FC
0001FC
0001FC
0001FC
0001FC
0001FC
0001FC
0001FC
0001FC
0001FC
0001FC
0001FC
0001FC
0001FC
0001FC
0001FC
0001FC
0001FC
0001FC
0001FC
0001FC
0001FC
0001FC
0001FC
0001FC
0001FC
0001FC
0001FC
0001FC
0001FC
0001FC
0001FC
0001FC
0001FC
0001FC
0001FC
0001FC
0001FC
0001FC
0001FC
0001FC
0001FC
0001FC
0001FC
0001FC
0001FC
0001FC
0001FC
0001F8
000070
ENDCHAR
STARTCHAR 00CD
ENCODING 205
SWIDTH 86 0
DWIDTH 14 0
BBX 22 140 3 0
BITMAP
000078
0001FC
0003FC
0007F8
000FF8
003FF0
007FE0
00FF80
03FF00
07FE00
0FF800
1FF000
7FE000
FF8000
FF0000
FE0000
F80000
700000
000000
000000
000000
000000
000000
000000
000000
000000
380000
7C0000
FE0000
FE0000
FE0000
FE0000
FE0000
FE0000
FE0000
FE0000
FE0000
FE0000
FE0000
FE0000
FE0000
FE0000
FE0000
FE0000
FE0000
FE0000
FE0000
FE0000
FE0000
FE0000
FE0000
FE0000
FE0000
FE0000
FE0000
FE0000
FE0000
FE0000
FE0000
FE0000
FE0000
FE0000
FE0000
FE0000
FE0000
FE0000
FE0000
FE0000
FE0000
FE0000
FE0000
FE0000
FE0000
FE0000
FE0000
FE0000
FE0000
FE0000
FE0000
FE0000
FE0000
FE0000
FE0000
FE0000
FE0000
FE0000
FE0000
FE0000
FE0000
FE0000
FE0000
FE0000
FE0000
FE0000
FE0000
FE0000
FE0000
FE0000
FE0000
FE0000
FE0000
FE0000
FE0000
FE0000
FE0000
FE0000
FE0000
FE0000
FE0000
FE0000
FE0000
FE0000
FE0000
FE0000
FE0000
FE0000
FE0000
FE0000
FE0000
FE0000
FE0000
FE0000
FE0000
FE0000
FE0000
FE0000
FE0000
FE0000
FE0000
FE0000
FE0000
FE0000
FE0000
FE0000
FE0000
FE0000
FE0000
FE0000
FC0000
380000
ENDCHAR
STARTCHAR 00CE
ENCODING 206
SWIDTH 86 0
DWIDTH 14 0
BBX 28 136 -8 -1
BITMAP
001F0000
007FC000
01FFF000
07FFFC00
0FFFFF00
3FFFFFC0
FFF9FFE0
FFC07FF0
FF001FF0
FC0003F0
700000E0
00000000
00000000
00000000
00000000
00000000
00000000
00000000
00000000
00000000
00000000
00000000
00070000
000F8000
001FC000
001FC000
001FC000
001FC000
001FC000
001FC000
001FC000
001FC000
001FC000
001FC000
001FC000
001FC000
001FC000
001FC000
001FC000
001FC000
001FC000
001FC000
001FC000
001FC000
001FC000
001FC000
001FC000
001FC000
001FC000
001FC000
001FC000
001FC000
001FC000
001FC000
001FC000
001FC000
001FC000
001FC000
001FC000
001FC000
001FC000
001FC000
001FC000
001FC000
001FC000
001FC000
001FC000
001FC000
001FC000
001FC000
001FC000
001FC000
001FC000
001FC000
001FC000
001FC000
001FC000
001FC000
001FC000
001FC000
001FC000
001FC000
001FC000
001FC000
001FC000
001FC000
001FC000
001FC000
001FC000
001FC000
001FC000
001FC000
001FC000
001FC000
001FC000
001FC000
001FC000
001FC000
001FC000
001FC000
001FC000
001FC000
001FC000
001FC000
001FC000
001FC000
001FC000
001FC000
001FC000
001FC000
001FC000
001FC000
001FC000
001FC000
001FC000
001FC000
001FC000
001FC000
001FC000
001FC000
001FC000
001FC000
001FC000
001FC000
001FC000
001FC000
001FC000
001FC000
001FC000
001FC000
001FC000
001FC000
001FC000
001FC000
001F8000
00070000
ENDCHAR
STARTCHAR 00CF
ENCODING 207
SWIDTH 86 0
DWIDTH 14 0
BBX 26 133 -6 0
BITMAP
3F00FF00
FFC1FF80
FFC1FF80
FFC1FF80
FFE1FFC0
FFE1FF80
FFC1FF80
FFC1FF80
7F80FF00
0C000000
00000000
00000000
00000000
00000000
00000000
00000000
00000000
00000000
00000000
001C0000
003E0000
007F0000
007F0000
007F0000
007F0000
007F0000
007F0000
007F0000
007F0000
007F0000
007F0000
007F0000
007F0000
007F0000
007F0000
007F0000
007F0000
007F0000
007F0000
007F0000
007F0000
007F0000
007F0000
007F0000
007F0000
007F0000
007F0000
007F0000
007F0000
007F0000
007F0000
007F0000
007F0000
007F0000
007F0000
007F0000
007F0000
007F0000
007F0000
007F0000
007F0000
007F0000
007F0000
007F0000
007F0000
007F0000
007F0000
007F0000
007F0000
007F0000
007F0000
007F0000
007F0000
007F0000
007F0000
007F0000
007F0000
007F0000
007F0000
007F0000
007F0000
007F0000
007F0000
007F0000
007F0000
007F0000
007F0000
007F0000
007F0000
007F0000
007F0000
007F0000
007F0000
007F0000
007F0000
007F0000
007F0000
007F0000
007F0000
007F0000
007F0000
007F0000
007F0000
007F0000
007F0000
007F0000
007F0000
007F0000
007F0000
007F0000
007F0000
007F0000
007F0000
007F0000
007F0000
007F0000
007F0000
007F0000
007F0000
007F0000
007F0000
007F0000
007F0000
007F0000
007F0000
007F0000
007F0000
007F0000
007F0000
007F0000
007F0000
007E0000
001C0000
ENDCHAR
STARTCHAR 00D0
ENCODING 208
SWIDTH 246 0
DWIDTH 40 0
BBX 38 113 0 0
BITMAP
01FFFFF000
01FFFFFE00
01FFFFFF00
01FFFFFFC0
01FFFFFFE0
01FFFFFFE0
01FC003FF0
01FC000FF0
01FC0007F8
01FC0003F8
01FC0003F8
01FC0001FC
01FC0001FC
01FC0001FC
01FC0001FC
01FC0001FC
01FC0001FC
01FC0001FC
01FC0001FC
01FC0001FC
01FC0001FC
01FC0001FC
01FC0001FC
01FC0001FC
01FC0001FC
01FC0001FC
01FC0001FC
01FC0001FC
01FC0001FC
01FC0001FC
01FC0001FC
01FC0001FC
01FC0001FC
01FC0001FC
01FC0001FC
01FC0001FC
01FC0001FC
01FC0001FC
01FC0001FC
01FC0001FC
01FC0001FC
01FC0001FC
01FC0001FC
01FC0001FC
01FC0001FC
01FC0001FC
01FC0001FC
01FC0001FC
01FC0001FC
01FC0001FC
01FC0001FC
01FC0001FC
01FC0001FC
01FC0001FC
01FC0001FC
01FC0001FC
01FC0001FC
01FC0001FC
01FC0001FC
01FC0001FC
01FC0001FC
01FC0001FC
01FC0001FC
7FFFFF01FC
FFFFFF81FC
FFFFFFC1FC
FFFFFFC1FC
FFFFFFC1FC
7FFFFF81FC
01FC0001FC
01FC0001FC
01FC0001FC
01FC0001FC
01FC0001FC
01FC0001FC
01FC0001FC
01FC0001FC
01FC0001FC
01FC0001FC
01FC0001FC
01FC0001FC
01FC0001FC
01FC0001FC
01FC0001FC
01FC0001FC
01FC0001FC
01FC0001FC
01FC0001FC
01FC0001FC
01FC0001FC
01FC0001FC
01FC0001FC
01FC0001FC
01FC0001FC
01FC0001FC
01FC0001FC
01FC0001FC
01FC0001FC
01FC0001FC
01FC0001FC
01FC0001FC
01FC0003FC
01FC0003F8
01FC0003F8
01FC0007F8
01FC000FF0
01FC003FF0
01FFFFFFE0
01FFFFFFC0
01FFFFFF80
01FFFFFF00
01FFFFFC00
01FFFFF000
ENDCHAR
STARTCHAR 00D1
ENCODING 209
SWIDTH 246 0
DWIDTH 40 0
BBX 33 135 3 0
BITMAP
01FF003800
03FFC0FC00
07FFE0FC00
07FFF9FC00
0FFFFDFC00
0FFFFFFC00
0FE3FFF800
0FC0FFF000
0FC07FF000
0F801FC000
0000070000
0000000000
0000000000
0000000000
0000000000
0000000000
0000000000
0000000000
0000000000
0000000000
003FFC0000
3DFFFF8000
7FFFFFE000
FFFFFFF000
FFFFFFF800
FFFFFFFC00
FFF807FE00
FFE001FE00
FFC000FF00
FF80007F00
FF00007F00
FF00007F00
FF00003F80
FE00003F80
FE00003F80
FE00003F80
FE00003F80
FE00003F80
FE00003F80
FE00003F80
FE00003F80
FE00003F80
FE00003F80
FE00003F80
FE00003F80
FE00003F80
FE00003F80
FE00003F80
FE00003F80
FE00003F80
FE00003F80
FE00003F80
FE00003F80
FE00003F80
FE00003F80
FE00003F80
FE00003F80
FE00003F80
FE00003F80
FE00003F80
FE00003F80
FE00003F80
FE00003F80
FE00003F80
FE00003F80
FE00003F80
FE00003F80
FE00003F80
FE00003F80
FE00003F80
FE00003F80
FE00003F80
FE00003F80
FE00003F80
FE00003F80
FE00003F80
FE00003F80
FE00003F80
FE00003F80
FE00003F80
FE00003F80
FE00003F80
FE00003F80
FE00003F80
FE00003F80
FE00003F80
FE00003F80
FE00003F80
FE00003F80
FE00003F80
FE00003F80
FE00003F80
FE00003F80
FE00003F80
FE00003F80
FE00003F80
FE00003F80
FE00003F80
FE00003F80
FE00003F80
FE00003F80
FE00003F80
FE00003F80
FE00003F80
FE00003F80
FE00003F80
FE00003F80
FE00003F80
FE00003F80
FE00003F80
FE00003F80
FE00003F80
FE00003F80
FE00003F80
FE00003F80
FE00003F80
FE00003F80
FE00003F80
FE00003F80
FE00003F80
FE00003F80
FE00003F80
FE00003F80
FE00003F80
FE00003F80
FE00003F80
FE00003F80
FE00003F80
FE00003F80
FE00003F80
FE00003F80
FE00003F80
FE00003F80
7C00003F80
7800001F00
ENDCHAR
STARTCHAR 00D2
ENCODING 210
SWIDTH 246 0
DWIDTH 40 0
BBX 31 141 4 -1
BITMAP
0F000000
1F800000
1FE00000
1FF00000
0FF80000
07FE0000
03FF0000
01FF8000
00FFE000
003FF000
001FF800
000FFC00
0003FF00
0001FF80
0000FF80
00003F80
00001F80
00000F80
00000000
00000000
00000000
00000000
00000000
00000000
00000000
003FF000
01FFFE00
07FFFF80
0FFFFFC0
1FFFFFE0
1FFFFFF0
3FE00FF8
3F8003F8
7F0001FC
7F0001FC
7F0001FC
FE0000FC
FE0000FE
FE0000FE
FE0000FE
FE0000FE
FE0000FE
FE0000FE
FE0000FE
FE0000FE
FE0000FE
FE0000FE
FE0000FE
FE0000FE
FE0000FE
FE0000FE
FE0000FE
FE0000FE
FE0000FE
FE0000FE
FE0000FE
FE0000FE
FE0000FE
FE0000FE
FE0000FE
FE0000FE
FE0000FE
FE0000FE
FE0000FE
FE0000FE
FE0000FE
FE0000FE
FE0000FE
FE0000FE
FE0000FE
FE0000FE
FE0000FE
FE0000FE
FE0000FE
FE0000FE
FE0000FE
FE0000FE
FE0000FE
FE0000FE
FE0000FE
FE0000FE
FE0000FE
FE0000FE
FE0000FE
FE0000FE
FE0000FE
FE0000FE
FE0000FE
FE0000FE
FE0000FE
FE0000FE
FE0000FE
FE0000FE
FE0000FE
FE0000FE
FE0000FE
FE0000FE
FE0000FE
FE0000FE
FE0000FE
FE0000FE
FE0000FE
FE0000FE
FE0000FE
FE0000FE
FE0000FE
FE0000FE
FE0000FE
FE0000FE
FE0000FE
FE0000FE
FE0000FE
FE0000FE
FE0000FE
FE0000FE
FE0000FE
FE0000FE
FE0000FE
FE0000FE
FE0000FE
FE0000FE
FE0000FE
FE0000FE
FE0000FE
FE0000FE
FE0000FE
FE0000FE
FE0000FE
FE0000FE
FF0001FE
7F0001FC
7F0001FC
7F8003FC
3FC007F8
3FF01FF8
1FFFFFF0
1FFFFFE0
0FFFFFC0
03FFFF80
01FFFE00
003FF000
ENDCHAR
STARTCHAR 00D3
ENCODING 211
SWIDTH 246 0
DWIDTH 40 0
BBX 31 140 4 -1
BITMAP
000003C0
000007E0
00001FE0
00003FE0
00007FC0
0001FF80
0003FF00
0007FE00
000FF800
003FF000
007FE000
00FF8000
01FF0000
03FE0000
07F80000
07F00000
07C00000
03800000
00000000
00000000
00000000
00000000
00000000
00000000
003FF000
01FFFE00
07FFFF80
0FFFFFC0
1FFFFFE0
1FFFFFF0
3FE00FF8
3F8003F8
7F0001FC
7F0001FC
7F0001FC
FE0000FC
FE0000FE
FE0000FE
FE0000FE
FE0000FE
FE0000FE
FE0000FE
FE0000FE
FE0000FE
FE0000FE
FE0000FE
FE0000FE
FE0000FE
FE0000FE
FE0000FE
FE0000FE
FE0000FE
FE0000FE
FE0000FE
FE0000FE
FE0000FE
FE0000FE
FE0000FE
FE0000FE
FE0000FE
FE0000FE
FE0000FE
FE0000FE
FE0000FE
FE0000FE
FE0000FE
FE0000FE
FE0000FE
FE0000FE
FE0000FE
FE0000FE
FE0000FE
FE0000FE
FE0000FE
FE0000FE
FE0000FE
FE0000FE
FE0000FE
FE0000FE
FE0000FE
FE0000FE
FE0000FE
FE0000FE
FE0000FE
FE0000FE
FE0000FE
FE0000FE
FE0000FE
FE0000FE
FE0000FE
FE0000FE
FE0000FE
FE0000FE
FE0000FE
FE0000FE
FE0000FE
FE0000FE
FE0000FE
FE0000FE
FE0000FE
FE0000FE
FE0000FE
FE0000FE
FE0000FE
FE0000FE
FE0000FE
FE0000FE
FE0000FE
FE0000FE
FE0000FE
FE0000FE
FE0000FE
FE0000FE
FE0000FE
FE0000FE
FE0000FE
FE0000FE
FE0000FE
FE0000FE
FE0000FE
FE0000FE
FE0000FE
FE0000FE
FE0000FE
FE0000FE
FE0000FE
FE0000FE
FE0000FE
FF0001FE
7F0001FC
7F0001FC
7F8003FC
3FC007F8
3FF01FF8
1FFFFFF0
1FFFFFE0
0FFFFFC0
03FFFF80
01FFFE00
003FF000
ENDCHAR
STARTCHAR 00D4
ENCODING 212
SWIDTH 246 0
DWIDTH 40 0
BBX 31 137 4 -2
BITMAP
00060000
003FC000
007FF000
01FFFC00
07FFFF00
1FFFFFC0
7FFDFFF0
7FF07FF0
7FC01FF8
7F0007F0
780000F0
00000000
00000000
00000000
00000000
00000000
00000000
00000000
00000000
00000000
00000000
003FF000
01FFFE00
07FFFF80
0FFFFFC0
1FFFFFE0
1FFFFFF0
3FE00FF8
3F8003F8
7F0001FC
7F0001FC
7F0001FC
FE0000FC
FE0000FE
FE0000FE
FE0000FE
FE0000FE
FE0000FE
FE0000FE
FE0000FE
FE0000FE
FE0000FE
FE0000FE
FE0000FE
FE0000FE
FE0000FE
FE0000FE
FE0000FE
FE0000FE
FE0000FE
FE0000FE
FE0000FE
FE0000FE
FE0000FE
FE0000FE
FE0000FE
FE0000FE
FE0000FE
FE0000FE
FE0000FE
FE0000FE
FE0000FE
FE0000FE
FE0000FE
FE0000FE
FE0000FE
FE0000FE
FE0000FE
FE0000FE
FE0000FE
FE0000FE
FE0000FE
FE0000FE
FE0000FE
FE0000FE
FE0000FE
FE0000FE
FE0000FE
FE0000FE
FE0000FE
FE0000FE
FE0000FE
FE0000FE
FE0000FE
FE0000FE
FE0000FE
FE0000FE
FE0000FE
FE0000FE
FE0000FE
FE0000FE
FE0000FE
FE0000FE
FE0000FE
FE0000FE
FE0000FE
FE0000FE
FE0000FE
FE0000FE
FE0000FE
FE0000FE
FE0000FE
FE0000FE
FE0000FE
FE0000FE
FE0000FE
FE0000FE
FE0000FE
FE0000FE
FE0000FE
FE0000FE
FE0000FE
FE0000FE
FE0000FE
FE0000FE
FE0000FE
FE0000FE
FE0000FE
FE0000FE
FE0000FE
FE0000FE
FE0000FE
FE0000FE
FE0000FE
FE0000FE
FF0001FE
7F0001FC
7F0001FC
7F8003FC
3FC007F8
3FF01FF8
1FFFFFF0
1FFFFFE0
0FFFFFC0
03FFFF80
01FFFE00
003FF000
ENDCHAR
STARTCHAR 00D5
ENCODING 213
SWIDTH 246 0
DWIDTH 40 0
BBX 31 136 4 -1
BITMAP
03FE0070
07FF80F8
0FFFC1F8
0FFFF3F8
1FFFFBF8
1FFFFFF8
1FC3FFF0
1F81FFF0
1F80FFE0
0F003FC0
00000E00
00000000
00000000
00000000
00000000
00000000
00000000
00000000
00000000
00000000
003FF000
01FFFE00
07FFFF80
0FFFFFC0
1FFFFFE0
1FFFFFF0
3FE00FF8
3F8003F8
7F0001FC
7F0001FC
7F0001FC
FE0000FC
FE0000FE
FE0000FE
FE0000FE
FE0000FE
FE0000FE
FE0000FE
FE0000FE
FE0000FE
FE0000FE
FE0000FE
FE0000FE
FE0000FE
FE0000FE
FE0000FE
FE0000FE
FE0000FE
FE0000FE
FE0000FE
FE0000FE
FE0000FE
FE0000FE
FE0000FE
FE0000FE
FE0000FE
FE0000FE
FE0000FE
FE0000FE
FE0000FE
FE0000FE
FE0000FE
FE0000FE
FE0000FE
FE0000FE
FE0000FE
FE0000FE
FE0000FE
FE0000FE
FE0000FE
FE0000FE
FE0000FE
FE0000FE
FE0000FE
FE0000FE
FE0000FE
FE0000FE
FE0000FE
FE0000FE
FE0000FE
FE0000FE
FE0000FE
FE0000FE
FE0000FE
FE0000FE
FE0000FE
FE0000FE
FE0000FE
FE0000FE
FE0000FE
FE0000FE
FE0000FE
FE0000FE
FE0000FE
FE0000FE
FE0000FE
FE0000FE
FE0000FE
FE0000FE
FE0000FE
FE0000FE
FE0000FE
FE0000FE
FE0000FE
FE0000FE
FE0000FE
FE0000FE
FE0000FE
FE0000FE
FE0000FE
FE0000FE
FE0000FE
FE0000FE
FE0000FE
FE0000FE
FE0000FE
FE0000FE
FE0000FE
FE0000FE
FE0000FE
FE0000FE
FE0000FE
FE0000FE
FE0000FE
FF0001FE
7F0001FC
7F0001FC
7F8003FC
3FC007F8
3FF01FF8
1FFFFFF0
1FFFFFE0
0FFFFFC0
03FFFF80
01FFFE00
003FF000
ENDCHAR
STARTCHAR 00D6
ENCODING 214
SWIDTH 246 0
DWIDTH 40 0
BBX 31 136 4 -2
BITMAP
03800F80
1FE03FE0
1FF03FE0
3FF87FF0
3FF87FF0
3FF87FF0
3FF87FF0
3FF87FF0
1FF03FE0
0FE01FC0
00000000
00000000
00000000
00000000
00000000
00000000
00000000
00000000
00000000
00000000
003FF000
01FFFE00
07FFFF80
0FFFFFC0
1FFFFFE0
1FFFFFF0
3FE00FF8
3F8003F8
7F0001FC
7F0001FC
7F0001FC
FE0000FC
FE0000FE
FE0000FE
FE0000FE
FE0000FE
FE0000FE
FE0000FE
FE0000FE
FE0000FE
FE0000FE
FE0000FE
FE0000FE
FE0000FE
FE0000FE
FE0000FE
FE0000FE
FE0000FE
FE0000FE
FE0000FE
FE0000FE
FE0000FE
FE0000FE
FE0000FE
FE0000FE
FE0000FE
FE0000FE
FE0000FE
FE0000FE
FE0000FE
FE0000FE
FE0000FE
FE0000FE
FE0000FE
FE0000FE
FE0000FE
FE0000FE
FE0000FE
FE0000FE
FE0000FE
FE0000FE
FE0000FE
FE0000FE
FE0000FE
FE0000FE
FE0000FE
FE0000FE
FE0000FE
FE0000FE
FE0000FE
FE0000FE
FE0000FE
FE0000FE
FE0000FE
FE0000FE
FE0000FE
FE0000FE
FE0000FE
FE0000FE
FE0000FE
FE0000FE
FE0000FE
FE0000FE
FE0000FE
FE0000FE
FE0000FE
FE0000FE
FE0000FE
FE0000FE
FE0000FE
FE0000FE
FE0000FE
FE0000FE
FE0000FE
FE0000FE
FE0000FE
FE0000FE
FE0000FE
FE0000FE
FE0000FE
FE0000FE
FE0000FE
FE0000FE
FE0000FE
FE0000FE
FE0000FE
FE0000FE
FE0000FE
FE0000FE
FE0000FE
FE0000FE
FE0000FE
FE0000FE
FE0000FE
FF0001FE
7F0001FC
7F0001FC
7F8003FC
3FC007F8
3FF01FF8
1FFFFFF0
1FFFFFE0
0FFFFFC0
03FFFF80
01FFFE00
003FF000
ENDCHAR
STARTCHAR 00D7
ENCODING 215
SWIDTH 506 0
DWIDTH 82 0
BBX 70 70 6 2
BITMAP
780000000000000070
FE00000000000001F8
FF00000000000003FC
FF80000000000007FC
FFC000000000000FFC
7FE000000000001FF8
7FF000000000003FF8
3FF800000000007FF0
1FFC0000000000FFE0
0FFE0000000001FFC0
07FF0000000003FF80
03FF8000000007FF00
01FFC00000000FFE00
00FFE00000001FFC00
007FF00000003FF800
003FF80000007FF000
001FFC000000FFE000
000FFE000001FFC000
0007FF000003FF8000
0003FF800007FF0000
0001FFC0000FFE0000
0000FFE0001FFC0000
00003FF0003FF80000
00001FF8007FF00000
00000FFC00FFE00000
000007FE01FFC00000
000003FF03FF800000
000001FF87FF000000
000000FFCFFE000000
0000007FFFFC000000
0000003FFFF8000000
0000001FFFF0000000
0000000FFFE0000000
00000007FFC0000000
00000003FF80000000
00000007FF80000000
0000000FFFC0000000
0000001FFFE0000000
0000003FFFF0000000
0000007FFFF8000000
000000FFCFFC000000
000001FF87FE000000
000003FF03FF000000
000007FE01FF800000
00000FFC00FFC00000
00001FF8007FE00000
00003FF0003FF00000
00007FE0001FF80000
0000FFC0000FFC0000
0001FF800007FE0000
0003FF000003FF0000
0007FE000001FF8000
000FFC000000FFC000
001FF80000007FE000
003FF00000003FF000
007FE00000001FF800
00FFC00000000FFC00
01FF8000000007FE00
03FF0000000003FF00
07FE0000000001FF80
0FFC0000000000FFC0
1FF800000000007FE0
3FF000000000003FF0
7FE000000000001FF8
FFC000000000000FF8
FF80000000000007FC
FF00000000000003FC
FE00000000000001FC
7C00000000000000F8
000000000000000010
ENDCHAR
STARTCHAR 00D8
ENCODING 216
SWIDTH 246 0
DWIDTH 40 0
BBX 31 116 4 -2
BITMAP
003FFCF0
01FFFFF8
07FFFFF8
0FFFFFF8
1FFFFFF8
1FFFFFF8
3FE00FF8
3F8003F8
7F0003FC
7F0003FC
7F0007FC
FE0007FE
FE0007FE
FE0007FE
FE0007FE
FE000FFE
FE000FFE
FE000FFE
FE000FFE
FE000FFE
FE001FFE
FE001FFE
FE001FFE
FE001FFE
FE001FFE
FE001FFE
FE003FFE
FE003FFE
FE003FFE
FE003FFE
FE003FFE
FE007FFE
FE007FFE
FE007EFE
FE007EFE
FE007EFE
FE00FEFE
FE00FEFE
FE00FCFE
FE00FCFE
FE00FCFE
FE00FCFE
FE01FCFE
FE01F8FE
FE01F8FE
FE01F8FE
FE01F8FE
FE03F8FE
FE03F0FE
FE03F0FE
FE03F0FE
FE03F0FE
FE07F0FE
FE07F0FE
FE07E0FE
FE07E0FE
FE07E0FE
FE0FE0FE
FE0FE0FE
FE0FC0FE
FE0FC0FE
FE0FC0FE
FE0FC0FE
FE1FC0FE
FE1F80FE
FE1F80FE
FE1F80FE
FE1F80FE
FE3F80FE
FE3F00FE
FE3F00FE
FE3F00FE
FE3F00FE
FE7F00FE
FE7E00FE
FE7E00FE
FE7E00FE
FE7E00FE
FE7E00FE
FEFC00FE
FEFC00FE
FEFC00FE
FEFC00FE
FEFC00FE
FFF800FE
FFF800FE
FFF800FE
FFF800FE
FFF800FE
FFF000FE
FFF000FE
FFF000FE
FFF000FE
FFF000FE
FFE000FE
FFE000FE
FFE000FE
FFE000FE
FFE000FE
FFE000FE
FFC000FE
FFC000FE
FFC000FE
7FC000FE
7FC001FE
7F8001FC
7F8001FC
7F8003FC
3FC007F8
3FE01FF8
3FFFFFF0
3FFFFFF0
3FFFFFE0
3FFFFF80
3EFFFF00
1C1FF800
ENDCHAR
STARTCHAR 00D9
ENCODING 217
SWIDTH 228 0
DWIDTH 37 0
BBX 30 141 3 -1
BITMAP
0F800000
0FC00000
0FE00000
0FF00000
0FFC0000
07FE0000
03FF0000
00FFC000
007FE000
003FF000
000FFC00
0007FE00
0003FF00
0000FF80
00007FC0
00003FC0
00000FC0
00000780
00000000
00000000
00000000
00000000
00000000
00000000
00000000
00000000
38000070
7C0000F8
FE0001FC
FE0001FC
FE0001FC
FE0001FC
FE0001FC
FE0001FC
FE0001FC
FE0001FC
FE0001FC
FE0001FC
FE0001FC
FE0001FC
FE0001FC
FE0001FC
FE0001FC
FE0001FC
FE0001FC
FE0001FC
FE0001FC
FE0001FC
FE0001FC
FE0001FC
FE0001FC
FE0001FC
FE0001FC
FE0001FC
FE0001FC
FE0001FC
FE0001FC
FE0001FC
FE0001FC
FE0001FC
FE0001FC
FE0001FC
FE0001FC
FE0001FC
FE0001FC
FE0001FC
FE0001FC
FE0001FC
FE0001FC
FE0001FC
FE0001FC
FE0001FC
FE0001FC
FE0001FC
FE0001FC
FE0001FC
FE0001FC
FE0001FC
FE0001FC
FE0001FC
FE0001FC
FE0001FC
FE0001FC
FE0001FC
FE0001FC
FE0001FC
FE0001FC
FE0001FC
FE0001FC
FE0001FC
FE0001FC
FE0001FC
FE0001FC
FE0001FC
FE0001FC
FE0001FC
FE0001FC
FE0001FC
FE0001FC
FE0001FC
FE0001FC
FE0001FC
FE0001FC
FE0001FC
FE0001FC
FE0001FC
FE0001FC
FE0001FC
FE0001FC
FE0001FC
FE0001FC
FE0001FC
FE0001FC
FE0001FC
FE0001FC
FE0001FC
FE0001FC
FE0001FC
FE0001FC
FE0001FC
FE0001FC
FE0001FC
FE0001FC
FE0001FC
FE0001FC
FE0001FC
FE0001FC
FE0001FC
FE0001FC
FE0003FC
7F0003F8
7F0003F8
7F0007F8
3F800FF0
3FE03FF0
1FFFFFE0
1FFFFFE0
0FFFFFC0
03FFFF00
01FFFE00
003FF000
ENDCHAR
STARTCHAR 00DA
ENCODING 218
SWIDTH 228 0
DWIDTH 37 0
BBX 30 141 3 -1
BITMAP
000001C0
000007E0
00000FE0
00001FE0
00007FE0
0000FFC0
0001FF80
0003FE00
000FFC00
001FF800
003FE000
00FFC000
01FF8000
03FE0000
03FC0000
07F80000
03E00000
03C00000
00000000
00000000
00000000
00000000
00000000
00000000
00000000
00000000
38000070
7C0000F8
FE0001FC
FE0001FC
FE0001FC
FE0001FC
FE0001FC
FE0001FC
FE0001FC
FE0001FC
FE0001FC
FE0001FC
FE0001FC
FE0001FC
FE0001FC
FE0001FC
FE0001FC
FE0001FC
FE0001FC
FE0001FC
FE0001FC
FE0001FC
FE0001FC
FE0001FC
FE0001FC
FE0001FC
FE0001FC
FE0001FC
FE0001FC
FE0001FC
FE0001FC
FE0001FC
FE0001FC
FE0001FC
FE0001FC
FE0001FC
FE0001FC
FE0001FC
FE0001FC
FE0001FC
FE0001FC
FE0001FC
FE0001FC
FE0001FC
FE0001FC
FE0001FC
FE0001FC
FE0001FC
FE0001FC
FE0001FC
FE0001FC
FE0001FC
FE0001FC
FE0001FC
FE0001FC
FE0001FC
FE0001FC
FE0001FC
FE0001FC
FE0001FC
FE0001FC
FE0001FC
FE0001FC
FE0001FC
FE0001FC
FE0001FC
FE0001FC
FE0001FC
FE0001FC
FE0001FC
FE0001FC
FE0001FC
FE0001FC
FE0001FC
FE0001FC
FE0001FC
FE0001FC
FE0001FC
FE0001FC
FE0001FC
FE0001FC
FE0001FC
FE0001FC
FE0001FC
FE0001FC
FE0001FC
FE0001FC
FE0001FC
FE0001FC
FE0001FC
FE0001FC
FE0001FC
FE0001FC
FE0001FC
FE0001FC
FE0001FC
FE0001FC
FE0001FC
FE0001FC
FE0001FC
FE0001FC
FE0001FC
FE0001FC
FE0003FC
7F0003F8
7F0003F8
7F0007F8
3F800FF0
3FE03FF0
1FFFFFE0
1FFFFFE0
0FFFFFC0
03FFFF00
01FFFE00
003FF000
ENDCHAR
STARTCHAR 00DB
ENCODING 219
SWIDTH 228 0
DWIDTH 37 0
BBX 30 138 3 -2
BITMAP
00020000
001FC000
007FF000
01FFFC00
07FFFF00
1FFFFFC0
3FFDFFF0
7FF07FF8
7FC01FF8
7F0003F8
7C0000F0
00000000
00000000
00000000
00000000
00000000
00000000
00000000
00000000
00000000
00000000
00000000
00000000
38000070
7C0000F8
FE0001FC
FE0001FC
FE0001FC
FE0001FC
FE0001FC
FE0001FC
FE0001FC
FE0001FC
FE0001FC
FE0001FC
FE0001FC
FE0001FC
FE0001FC
FE0001FC
FE0001FC
FE0001FC
FE0001FC
FE0001FC
FE0001FC
FE0001FC
FE0001FC
FE0001FC
FE0001FC
FE0001FC
FE0001FC
FE0001FC
FE0001FC
FE0001FC
FE0001FC
FE0001FC
FE0001FC
FE0001FC
FE0001FC
FE0001FC
FE0001FC
FE0001FC
FE0001FC
FE0001FC
FE0001FC
FE0001FC
FE0001FC
FE0001FC
FE0001FC
FE0001FC
FE0001FC
FE0001FC
FE0001FC
FE0001FC
FE0001FC
FE0001FC
FE0001FC
FE0001FC
FE0001FC
FE0001FC
FE0001FC
FE0001FC
FE0001FC
FE0001FC
FE0001FC
FE0001FC
FE0001FC
FE0001FC
FE0001FC
FE0001FC
FE0001FC
FE0001FC
FE0001FC
FE0001FC
FE0001FC
FE0001FC
FE0001FC
FE0001FC
FE0001FC
FE0001FC
FE0001FC
FE0001FC
FE0001FC
FE0001FC
FE0001FC
FE0001FC
FE0001FC
FE0001FC
FE0001FC
FE0001FC
FE0001FC
FE0001FC
FE0001FC
FE0001FC
FE0001FC
FE0001FC
FE0001FC
FE0001FC
FE0001FC
FE0001FC
FE0001FC
FE0001FC
FE0001FC
FE0001FC
FE0001FC
FE0001FC
FE0001FC
FE0003FC
7F0003F8
7F0003F8
7F0007F8
3F800FF0
3FE03FF0
1FFFFFE0
1FFFFFE0
0FFFFFC0
03FFFF00
01FFFE00
003FF000
ENDCHAR
STARTCHAR 00DC
ENCODING 220
SWIDTH 228 0
DWIDTH 37 0
BBX 30 137 3 -2
BITMAP
07C00F80
1FF03FE0
1FF07FF0
3FF87FF0
3FF87FF0
3FF87FF0
3FF87FF0
3FF87FF0
1FF03FE0
0FE00F80
00000000
00000000
00000000
00000000
00000000
00000000
00000000
00000000
00000000
00000000
00000000
00000000
38000070
7C0000F8
FE0001FC
FE0001FC
FE0001FC
FE0001FC
FE0001FC
FE0001FC
FE0001FC
FE0001FC
FE0001FC
FE0001FC
FE0001FC
FE0001FC
FE0001FC
FE0001FC
FE0001FC
FE0001FC
FE0001FC
FE0001FC
FE0001FC
FE0001FC
FE0001FC
FE0001FC
FE0001FC
FE0001FC
FE0001FC
FE0001FC
FE0001FC
FE0001FC
FE0001FC
FE0001FC
FE0001FC
FE0001FC
FE0001FC
FE0001FC
FE0001FC
FE0001FC
FE0001FC
FE0001FC
FE0001FC
FE0001FC
FE0001FC
FE0001FC
FE0001FC
FE0001FC
FE0001FC
FE0001FC
FE0001FC
FE0001FC
FE0001FC
FE0001FC
FE0001FC
FE0001FC
FE0001FC
FE0001FC
FE0001FC
FE0001FC
FE0001FC
FE0001FC
FE0001FC
FE0001FC
FE0001FC
FE0001FC
FE0001FC
FE0001FC
FE0001FC
FE0001FC
FE0001FC
FE0001FC
FE0001FC
FE0001FC
FE0001FC
FE0001FC
FE0001FC
FE0001FC
FE0001FC
FE0001FC
FE0001FC
FE0001FC
FE0001FC
FE0001FC
FE0001FC
FE0001FC
FE0001FC
FE0001FC
FE0001FC
FE0001FC
FE0001FC
FE0001FC
FE0001FC
FE0001FC
FE0001FC
FE0001FC
FE0001FC
FE0001FC
FE0001FC
FE0001FC
FE0001FC
FE0001FC
FE0001FC
FE0001FC
FE0001FC
FE0003FC
7F0003F8
7F0003F8
7F0007F8
3F800FF0
3FE03FF0
1FFFFFE0
1FFFFFE0
0FFFFFC0
03FFFF00
01FFFE00
003FF000
ENDCHAR
STARTCHAR 00DD
ENCODING 221
SWIDTH 228 0
DWIDTH 37 0
BBX 30 143 3 -2
BITMAP
000001E0
000003E0
00000FF0
00001FF0
00003FE0
00007FC0
0001FF80
0003FF00
0007FC00
001FF800
003FF000
007FC000
00FF8000
01FF0000
03FC0000
03F80000
03F00000
01C00000
00000000
00000000
00000000
00000000
00000000
00000000
00000000
00000000
00000000
00000000
78000078
7C0000F8
FE0000FC
FE0000FC
FE0000FC
FE0000FC
FE0000FC
FE0000FC
FE0000FC
FE0000FC
FE0000FC
FE0000FC
FE0000FC
FE0000FC
FE0000FC
FE0000FC
FE0000FC
FE0000FC
FE0000FC
FE0000FC
FE0000FC
FE0000FC
FE0000FC
FE0000FC
FE0000FC
FE0000FC
FE0000FC
FE0000FC
FE0000FC
FE0000FC
FE0000FC
FE0000FC
FE0000FC
FE0000FC
FE0000FC
FE0000FC
FE0000FC
FE0000FC
FE0000FC
FE0000FC
FE0000FC
FE0000FC
FE0000FC
FE0000FC
FE0000FC
FE0000FC
FE0000FC
FE0000FC
FE0000FC
FE0000FC
FE0000FC
FE0000FC
FE0000FC
FE0000FC
FE0000FC
FE0000FC
FE0001FC
FE0001FC
7F0001FC
7F0001FC
7F0003FC
3F8007FC
3FE00FFC
1FFFFFFC
1FFFFFFC
0FFFFFFC
07FFFFFC
01FFFDFC
007FF1FC
000001FC
000001FC
000001FC
000001FC
000001FC
000001FC
000001FC
000001FC
000001FC
000001FC
000001FC
000001FC
000001FC
000001FC
000001FC
000001FC
000001FC
7C0001FC
FE0001FC
FE0001FC
FE0001FC
FE0001FC
FE0001FC
FE0001FC
FE0001FC
FE0001FC
FE0001FC
FE0001FC
FE0001FC
FE0001FC
FE0001FC
FE0001FC
FE0001FC
FE0001FC
FE0001FC
7F0003F8
7F0003F8
7F0007F8
7F8007F0
3FE01FF0
3FFFFFE0
1FFFFFC0
0FFFFF80
07FFFF00
01FFFC00
003FF000
ENDCHAR
STARTCHAR 00DE
ENCODING 222
SWIDTH 240 0
DWIDTH 39 0
BBX 38 114 0 -1
BITMAP
0070000000
00F8000000
01FC000000
01FC000000
01FC000000
01FC000000
01FC000000
01FC000000
01FC000000
01FC000000
01FC000000
01FC000000
01FC000000
01FC000000
01FC000000
01FC000000
01FC000000
01FC000000
01FC000000
01FC000000
01FC000000
01FC000000
01FC000000
01FFFFF000
01FFFFFE00
01FFFFFF00
01FFFFFFC0
01FFFFFFE0
01FFFFFFE0
01FC003FF0
01FC000FF0
01FC0007F8
01FC0003F8
01FC0003F8
01FC0003FC
01FC0001FC
01FC0001FC
01FC0001FC
01FC0001FC
01FC0001FC
01FC0001FC
01FC0001FC
01FC0001FC
01FC0001FC
01FC0001FC
01FC0001FC
01FC0001FC
01FC0001FC
01FC0001FC
01FC0001FC
01FC0001FC
01FC0001FC
01FC0001FC
01FC0001FC
01FC0001FC
01FC0001FC
01FC0001FC
01FC0001FC
01FC0001FC
01FC0001FC
01FC0001FC
01FC0001FC
01FC0001FC
01FC0001FC
01FC0001FC
01FC0001FC
01FC0001FC
01FC0001FC
01FC0001FC
01FC0001FC
01FC0001FC
01FC0001FC
01FC0001FC
01FC0001FC
01FC0001FC
01FC0001FC
01FC0001FC
01FC0001FC
01FC0001FC
01FC0001FC
01FC0001FC
01FC0003F8
01FC0003F8
01FC0003F8
01FC0007F8
01FC000FF0
01FC003FF0
7FFFFFFFE0
FFFFFFFFC0
FFFFFFFF80
FFFFFFFF00
FFFFFFFC00
7FFFFFE000
01FC000000
01FC000000
01FC000000
01FC000000
01FC000000
01FC000000
01FC000000
01FC000000
01FC000000
01FC000000
01FC000000
01FC000000
01FC000000
01FC000000
01FC000000
01FC000000
01FC000000
01FC000000
01FC000000
01F8000000
00F0000000
ENDCHAR
STARTCHAR 00DF
ENCODING 223
SWIDTH 253 0
DWIDTH 41 0
BBX 31 114 7 -1
BITMAP
FFFFF000
FFFFFE00
FFFFFF80
FFFFFFC0
FFFFFFE0
FFFFFFF0
FE001FF8
FE0007F8
FE0003F8
FE0001FC
FE0001FC
FE0001FC
FE0000FE
FE0000FE
FE0000FE
FE0000FE
FE0000FE
FE0000FE
FE0000FE
FE0000FE
FE0000FE
FE0000FE
FE0000FE
FE0000FE
FE0000FE
FE0000FE
FE0000FE
FE0000FE
FE0000FE
FE0000FE
FE0000FE
FE0000FE
FE0000FE
FE0000FE
FE0000FE
FE0000FE
FE0000FE
FE0000FE
FE0000FE
FE0001FE
FE0001FE
FE0001FC
FE0003FC
FE0007FC
FE01FFF8
FE07FFF0
FE0FFFF0
FE0FFFE0
FE0FFFE0
FE07FFE0
FE01FFF0
FE000FF8
FE0003F8
FE0003FC
FE0001FC
FE0001FC
FE0000FC
FE0000FE
FE0000FE
FE0000FE
FE0000FE
FE0000FE
FE0000FE
FE0000FE
FE0000FE
FE0000FE
FE0000FE
FE0000FE
FE0000FE
FE0000FE
FE0000FE
FE0000FE
FE0000FE
FE0000FE
FE0000FE
FE0000FE
FE0000FE
FE0000FE
FE0000FE
FE0000FE
FE0000FE
FE0000FE
FE0000FE
FE0000FE
FE0000FE
FE0000FE
FE0000FE
FE0000FE
FE0000FE
FE0000FE
FE0000FE
FE0000FE
FE0000FE
FE0000FE
FE0000FE
FE0000FE
FE0000FE
FE0000FE
FE0000FE
FE0000FE
FE0000FE
FE0000FE
FE7800FE
FEFC00FE
FEFC01FE
FEFC01FE
FEFC01FE
FEFC03FC
FEFFFFFC
FEFFFFFC
FE7FFFF8
FE3FFFF0
FE3FFFE0
FE0FFF80
ENDCHAR
STARTCHAR 00E0
ENCODING 224
SWIDTH 259 0
DWIDTH 42 0
BBX 37 140 0 0
BITMAP
000F000000
001F800000
001FE00000
001FF00000
000FF80000
0007FE0000
0003FF0000
0001FF8000
00007FE000
00003FF000
00001FF800
000007FE00
000003FF00
000001FF80
000000FF80
0000003F80
0000001F80
0000000700
0000000000
0000000000
0000000000
0000000000
0000000000
0000000000
0000000000
00007FE000
0003FFFC00
0007FFFF00
001FFFFF80
001FFFFFC0
003FFFFFC0
007F803FE0
007E000FE0
00FE0007F0
00FE0007F0
00FC0007F0
01FC0003F8
01FC0003F8
01FC0003F8
01FC0003F8
01FC0003F8
01FC0003F8
01FC0003F8
01FC0003F8
01FC0003F8
01FC0003F8
01FC0003F8
01FC0003F8
01FC0003F8
01FC0003F8
01FC0003F8
01FC0003F8
01FC0003F8
01FC0003F8
01FC0003F8
01FC0003F8
01FC0003F8
01FC0003F8
01FC0003F8
01FC0003F8
01FC0003F8
01FC0003F8
01FC0003F8
01FC0003F8
01FC0003F8
01FC0003F8
01FC0003F8
01FC0003F8
01FC0003F8
01FC0003F8
01FC0003F8
01FC0003F8
01FC0003F8
01FC0003F8
01FC0003F8
01FC0003F8
01FC0003F8
01FC0003F8
01FC0003F8
01FC0003F8
01FC0003F8
01FC0003F8
01FC0003F8
01FC0003F8
01FC0003F8
01FC0003F8
01FC0003F8
01FC0003F8
01FC0003F8
7FFFFFFFF8
FFFFFFFFF8
FFFFFFFFF8
FFFFFFFFF8
FFFFFFFFF8
7FFFFFFFF8
01FC0003F8
01FC0003F8
01FC0003F8
01FC0003F8
01FC0003F8
01FC0003F8
01FC0003F8
01FC0003F8
01FC0003F8
01FC0003F8
01FC0003F8
01FC0003F8
01FC0003F8
01FC0003F8
01FC0003F8
01FC0003F8
01FC0003F8
01FC0003F8
01FC0003F8
01FC0003F8
01FC0003F8
01FC0003F8
01FC0003F8
01FC0003F8
01FC0003F8
01FC0003F8
01FC0003F8
01FC0003F8
01FC0003F8
01FC0003F8
01FC0003F8
01FC0003F8
01FC0003F8
01FC0003F8
01FC0003F8
01FC0003F8
01FC0003F8
01FC0003F8
01FC0003F8
01FC0003F8
01FC0003F8
01FC0003F8
01FC0003F8
00F80001F0
00700000F0
ENDCHAR
STARTCHAR 00E1
ENCODING 225
SWIDTH 259 0
DWIDTH 42 0
BBX 37 140 0 0
BITMAP
0000001F00
0000003F80
0000007F80
000001FF00
000003FF00
000007FE00
00000FF800
00003FF000
00007FE000
0000FF8000
0003FF0000
0007FE0000
000FF80000
001FF00000
001FE00000
001F800000
001F000000
000E000000
0000000000
0000000000
0000000000
0000000000
0000000000
0000000000
0000000000
00007FE000
0003FFFC00
0007FFFF00
001FFFFF80
001FFFFFC0
003FFFFFC0
007F803FE0
007E000FE0
00FE0007F0
00FE0007F0
00FC0007F0
01FC0003F8
01FC0003F8
01FC0003F8
01FC0003F8
01FC0003F8
01FC0003F8
01FC0003F8
01FC0003F8
01FC0003F8
01FC0003F8
01FC0003F8
01FC0003F8
01FC0003F8
01FC0003F8
01FC0003F8
01FC0003F8
01FC0003F8
01FC0003F8
01FC0003F8
01FC0003F8
01FC0003F8
01FC0003F8
01FC0003F8
01FC0003F8
01FC0003F8
01FC0003F8
01FC0003F8
01FC0003F8
01FC0003F8
01FC0003F8
01FC0003F8
01FC0003F8
01FC0003F8
01FC0003F8
01FC0003F8
01FC0003F8
01FC0003F8
01FC0003F8
01FC0003F8
01FC0003F8
01FC0003F8
01FC0003F8
01FC0003F8
01FC0003F8
01FC0003F8
01FC0003F8
01FC0003F8
01FC0003F8
01FC0003F8
01FC0003F8
01FC0003F8
01FC0003F8
01FC0003F8
7FFFFFFFF8
FFFFFFFFF8
FFFFFFFFF8
FFFFFFFFF8
FFFFFFFFF8
7FFFFFFFF8
01FC0003F8
01FC0003F8
01FC0003F8
01FC0003F8
01FC0003F8
01FC0003F8
01FC0003F8
01FC0003F8
01FC0003F8
01FC0003F8
01FC0003F8
01FC0003F8
01FC0003F8
01FC0003F8
01FC0003F8
01FC0003F8
01FC0003F8
01FC0003F8
01FC0003F8
01FC0003F8
01FC0003F8
01FC0003F8
01FC0003F8
01FC0003F8
01FC0003F8
01FC0003F8
01FC0003F8
01FC0003F8
01FC0003F8
01FC0003F8
01FC0003F8
01FC0003F8
01FC0003F8
01FC0003F8
01FC0003F8
01FC0003F8
01FC0003F8
01FC0003F8
01FC0003F8
01FC0003F8
01FC0003F8
01FC0003F8
01FC0003F8
00F80001F0
00700000F0
ENDCHAR
STARTCHAR 00E2
ENCODING 226
SWIDTH 259 0
DWIDTH 42 0
BBX 37 135 0 -1
BITMAP
00000F8000
00003FE000
0000FFF800
0003FFFE00
000FFFFF80
003FFFFFE0
007FF8FFF0
00FFE03FF0
00FF800FF0
007E0003F0
0070000060
0000000000
0000000000
0000000000
0000000000
0000000000
0000000000
0000000000
0000000000
0000000000
00007FE000
0003FFFC00
0007FFFF00
001FFFFF80
001FFFFFC0
003FFFFFC0
007F803FE0
007E000FE0
00FE0007F0
00FE0007F0
00FC0007F0
01FC0003F8
01FC0003F8
01FC0003F8
01FC0003F8
01FC0003F8
01FC0003F8
01FC0003F8
01FC0003F8
01FC0003F8
01FC0003F8
01FC0003F8
01FC0003F8
01FC0003F8
01FC0003F8
01FC0003F8
01FC0003F8
01FC0003F8
01FC0003F8
01FC0003F8
01FC0003F8
01FC0003F8
01FC0003F8
01FC0003F8
01FC0003F8
01FC0003F8
01FC0003F8
01FC0003F8
01FC0003F8
01FC0003F8
01FC0003F8
01FC0003F8
01FC0003F8
01FC0003F8
01FC0003F8
01FC0003F8
01FC0003F8
01FC0003F8
01FC0003F8
01FC0003F8
01FC0003F8
01FC0003F8
01FC0003F8
01FC0003F8
01FC0003F8
01FC0003F8
01FC0003F8
01FC0003F8
01FC0003F8
01FC0003F8
01FC0003F8
01FC0003F8
01FC0003F8
01FC0003F8
7FFFFFFFF8
FFFFFFFFF8
FFFFFFFFF8
FFFFFFFFF8
FFFFFFFFF8
7FFFFFFFF8
01FC0003F8
01FC0003F8
01FC0003F8
01FC0003F8
01FC0003F8
01FC0003F8
01FC0003F8
01FC0003F8
01FC0003F8
01FC0003F8
01FC0003F8
01FC0003F8
01FC0003F8
01FC0003F8
01FC0003F8
01FC0003F8
01FC0003F8
01FC0003F8
01FC0003F8
01FC0003F8
01FC0003F8
01FC0003F8
01FC0003F8
01FC0003F8
01FC0003F8
01FC0003F8
01FC0003F8
01FC0003F8
01FC0003F8
01FC0003F8
01FC0003F8
01FC0003F8
01FC0003F8
01FC0003F8
01FC0003F8
01FC0003F8
01FC0003F8
01FC0003F8
01FC0003F8
01FC0003F8
01FC0003F8
01FC0003F8
01FC0003F8
00F80001F0
00700000F0
ENDCHAR
STARTCHAR 00E3
ENCODING 227
SWIDTH 259 0
DWIDTH 42 0
BBX 37 135 0 -1
BITMAP
0000E00000
0003F81C00
0007FE3C00
000FFF3E00
000FFFFC00
000F9FFC00
000F8FF800
000F03F800
000401E000
0000000000
0000000000
0000000000
0000000000
0000000000
0000000000
0000000000
0000000000
0000000000
0000000000
0000000000
00007FE000
0003FFFC00
0007FFFF00
001FFFFF80
001FFFFFC0
003FFFFFC0
007F803FE0
007E000FE0
00FE0007F0
00FE0007F0
00FC0007F0
01FC0003F8
01FC0003F8
01FC0003F8
01FC0003F8
01FC0003F8
01FC0003F8
01FC0003F8
01FC0003F8
01FC0003F8
01FC0003F8
01FC0003F8
01FC0003F8
01FC0003F8
01FC0003F8
01FC0003F8
01FC0003F8
01FC0003F8
01FC0003F8
01FC0003F8
01FC0003F8
01FC0003F8
01FC0003F8
01FC0003F8
01FC0003F8
01FC0003F8
01FC0003F8
01FC0003F8
01FC0003F8
01FC0003F8
01FC0003F8
01FC0003F8
01FC0003F8
01FC0003F8
01FC0003F8
01FC0003F8
01FC0003F8
01FC0003F8
01FC0003F8
01FC0003F8
01FC0003F8
01FC0003F8
01FC0003F8
01FC0003F8
01FC0003F8
01FC0003F8
01FC0003F8
01FC0003F8
01FC0003F8
01FC0003F8
01FC0003F8
01FC0003F8
01FC0003F8
01FC0003F8
7FFFFFFFF8
FFFFFFFFF8
FFFFFFFFF8
FFFFFFFFF8
FFFFFFFFF8
7FFFFFFFF8
01FC0003F8
01FC0003F8
01FC0003F8
01FC0003F8
01FC0003F8
01FC0003F8
01FC0003F8
01FC0003F8
01FC0003F8
01FC0003F8
01FC0003F8
01FC0003F8
01FC0003F8
01FC0003F8
01FC0003F8
01FC0003F8
01FC0003F8
01FC0003F8
01FC0003F8
01FC0003F8
01FC0003F8
01FC0003F8
01FC0003F8
01FC0003F8
01FC0003F8
01FC0003F8
01FC0003F8
01FC0003F8
01FC0003F8
01FC0003F8
01FC0003F8
01FC0003F8
01FC0003F8
01FC0003F8
01FC0003F8
01FC0003F8
01FC0003F8
01FC0003F8
01FC0003F8
01FC0003F8
01FC0003F8
01FC0003F8
01FC0003F8
00F80001F0
00700000F0
ENDCHAR
STARTCHAR 00E4
ENCODING 228
SWIDTH 259 0
DWIDTH 42 0
BBX 37 133 0 -1
BITMAP
0000000200
000FE03FC0
003FF07FE0
003FF07FE0
003FF87FF0
003FF87FF0
003FF87FF0
003FF07FE0
003FF03FE0
001FE01FC0
0000000000
0000000000
0000000000
0000000000
0000000000
0000000000
0000000000
0000000000
00007FE000
0003FFFC00
0007FFFF00
001FFFFF80
001FFFFFC0
003FFFFFC0
007F803FE0
007E000FE0
00FE0007F0
00FE0007F0
00FC0007F0
01FC0003F8
01FC0003F8
01FC0003F8
01FC0003F8
01FC0003F8
01FC0003F8
01FC0003F8
01FC0003F8
01FC0003F8
01FC0003F8
01FC0003F8
01FC0003F8
01FC0003F8
01FC0003F8
01FC0003F8
01FC0003F8
01FC0003F8
01FC0003F8
01FC0003F8
01FC0003F8
01FC0003F8
01FC0003F8
01FC0003F8
01FC0003F8
01FC0003F8
01FC0003F8
01FC0003F8
01FC0003F8
01FC0003F8
01FC0003F8
01FC0003F8
01FC0003F8
01FC0003F8
01FC0003F8
01FC0003F8
01FC0003F8
01FC0003F8
01FC0003F8
01FC0003F8
01FC0003F8
01FC0003F8
01FC0003F8
01FC0003F8
01FC0003F8
01FC0003F8
01FC0003F8
01FC0003F8
01FC0003F8
01FC0003F8
01FC0003F8
01FC0003F8
01FC0003F8
01FC0003F8
7FFFFFFFF8
FFFFFFFFF8
FFFFFFFFF8
FFFFFFFFF8
FFFFFFFFF8
7FFFFFFFF8
01FC0003F8
01FC0003F8
01FC0003F8
01FC0003F8
01FC0003F8
01FC0003F8
01FC0003F8
01FC0003F8
01FC0003F8
01FC0003F8
01FC0003F8
01FC0003F8
01FC0003F8
01FC0003F8
01FC0003F8
01FC0003F8
01FC0003F8
01FC0003F8
01FC0003F8
01FC0003F8
01FC0003F8
01FC0003F8
01FC0003F8
01FC0003F8
01FC0003F8
01FC0003F8
01FC0003F8
01FC0003F8
01FC0003F8
01FC0003F8
01FC0003F8
01FC0003F8
01FC0003F8
01FC0003F8
01FC0003F8
01FC0003F8
01FC0003F8
01FC0003F8
01FC0003F8
01FC0003F8
01FC0003F8
01FC0003F8
01FC0003F8
00F80001F0
00700000F0
ENDCHAR
STARTCHAR 00E5
ENCODING 229
SWIDTH 259 0
DWIDTH 42 0
BBX 37 139 0 0
BITMAP
00003FC000
0000FFF000
0001FFF800
0001FFFC00
0003F0FC00
0003E07C00
0007C03E00
0007C03E00
0007C03E00
0007C03E00
0003E03E00
0003E07C00
0003FDFC00
0001FFF800
0000FFF000
00007FE000
00001F8000
0000000000
0000000000
0000000000
0000000000
0000000000
0000000000
0000000000
00007FE000
0003FFFC00
0007FFFF00
001FFFFF80
001FFFFFC0
003FFFFFC0
007F803FE0
007E000FE0
00FE0007F0
00FE0007F0
00FC0007F0
01FC0003F8
01FC0003F8
01FC0003F8
01FC0003F8
01FC0003F8
01FC0003F8
01FC0003F8
01FC0003F8
01FC0003F8
01FC0003F8
01FC0003F8
01FC0003F8
01FC0003F8
01FC0003F8
01FC0003F8
01FC0003F8
01FC0003F8
01FC0003F8
01FC0003F8
01FC0003F8
01FC0003F8
01FC0003F8
01FC0003F8
01FC0003F8
01FC0003F8
01FC0003F8
01FC0003F8
01FC0003F8
01FC0003F8
01FC0003F8
01FC0003F8
01FC0003F8
01FC0003F8
01FC0003F8
01FC0003F8
01FC0003F8
01FC0003F8
01FC0003F8
01FC0003F8
01FC0003F8
01FC0003F8
01FC0003F8
01FC0003F8
01FC0003F8
01FC0003F8
01FC0003F8
01FC0003F8
01FC0003F8
01FC0003F8
01FC0003F8
01FC0003F8
01FC0003F8
01FC0003F8
7FFFFFFFF8
FFFFFFFFF8
FFFFFFFFF8
FFFFFFFFF8
FFFFFFFFF8
7FFFFFFFF8
01FC0003F8
01FC0003F8
01FC0003F8
01FC0003F8
01FC0003F8
01FC0003F8
01FC0003F8
01FC0003F8
01FC0003F8
01FC0003F8
01FC0003F8
01FC0003F8
01FC0003F8
01FC0003F8
01FC0003F8
01FC0003F8
01FC0003F8
01FC0003F8
01FC0003F8
01FC0003F8
01FC0003F8
01FC0003F8
01FC0003F8
01FC0003F8
01FC0003F8
01FC0003F8
01FC0003F8
01FC0003F8
01FC0003F8
01FC0003F8
01FC0003F8
01FC0003F8
01FC0003F8
01FC0003F8
01FC0003F8
01FC0003F8
01FC0003F8
01FC0003F8
01FC0003F8
01FC0003F8
01FC0003F8
01FC0003F8
01FC0003F8
00F80001F0
00700000F0
ENDCHAR
STARTCHAR 00E6
ENCODING 230
SWIDTH 382 0
DWIDTH 62 0
BBX 60 115 1 0
BITMAP
00007FFC00000000
0003FFFFFFFFFFC0
0007FFFFFFFFFFE0
001FFFFFFFFFFFF0
003FFFFFFFFFFFF0
003FFFFFFFFFFFE0
007FC01FFFFFFFC0
007F0007FC000000
00FF0007FC000000
00FE0003FC000000
00FE0003FC000000
01FC0001FC000000
01FC0001FC000000
01FC0001FC000000
01FC0001FC000000
01FC0001FC000000
01FC0001FC000000
01FC0001FC000000
01FC0001FC000000
01FC0001FC000000
01FC0001FC000000
01FC0001FC000000
01FC0001FC000000
01FC0001FC000000
01FC0001FC000000
01FC0001FC000000
01FC0001FC000000
01FC0001FC000000
01FC0001FC000000
01FC0001FC000000
01FC0001FC000000
01FC0001FC000000
01FC0001FC000000
01FC0001FC000000
01FC0001FC000000
01FC0001FC000000
01FC0001FC000000
01FC0001FC000000
01FC0001FC000000
01FC0001FC000000
01FC0001FC000000
01FC0001FC000000
01FC0001FC000000
01FC0001FC000000
01FC0001FC000000
01FC0001FC000000
01FC0001FC000000
01FC0001FC000000
01FC0001FC000000
01FC0001FC000000
01FC0001FC000000
01FC0001FC000000
01FC0001FC000000
01FC0001FC000000
01FC0001FC000000
01FC0001FC000000
01FC0001FC000000
01FC0001FC000000
01FC0001FC000000
01FC0001FC000000
01FC0001FC000000
01FC0001FC000000
01FC0001FC000000
01FC0001FC000000
7FFFFFFFFFFFFFC0
FFFFFFFFFFFFFFE0
FFFFFFFFFFFFFFF0
FFFFFFFFFFFFFFF0
FFFFFFFFFFFFFFF0
7FFFFFFFFFFFFFC0
01FC0001FC000000
01FC0001FC000000
01FC0001FC000000
01FC0001FC000000
01FC0001FC000000
01FC0001FC000000
01FC0001FC000000
01FC0001FC000000
01FC0001FC000000
01FC0001FC000000
01FC0001FC000000
01FC0001FC000000
01FC0001FC000000
01FC0001FC000000
01FC0001FC000000
01FC0001FC000000
01FC0001FC000000
01FC0001FC000000
01FC0001FC000000
01FC0001FC000000
01FC0001FC000000
01FC0001FC000000
01FC0001FC000000
01FC0001FC000000
01FC0001FC000000
01FC0001FC000000
01FC0001FC000000
01FC0001FC000000
01FC0001FC000000
01FC0001FC000000
01FC0001FC000000
01FC0001FC000000
01FC0001FC000000
01FC0001FC000000
01FC0001FC000000
01FC0001FC000000
01FC0001FC000000
01FC0001FC000000
01FC0001FC000000
01FC0001FFFFFFC0
01FC0001FFFFFFE0
01FC0001FFFFFFF0
01FC0001FFFFFFF0
00F80000FFFFFFF0
007000007FFFFFE0
ENDCHAR
STARTCHAR 00E7
ENCODING 231
SWIDTH 228 0
DWIDTH 37 0
BBX 31 135 3 -21
BITMAP
001FF000
01FFFE00
03FFFF80
0FFFFFC0
1FFFFFE0
1FFFFFF0
3FF01FF8
3F8003F8
7F8001FC
7F0001FC
7F0001FC
FE0000FE
FE0000FE
FE0000FE
FE0000FE
FE0000FE
FE0000FE
FE0000FE
FE0000FE
FE0000FE
FE0000FE
FE0000FE
FE0000FE
FE0000FE
FE0000FE
FE0000FE
FE0000FE
FE0000FE
FE00007C
FE000000
FE000000
FE000000
FE000000
FE000000
FE000000
FE000000
FE000000
FE000000
FE000000
FE000000
FE000000
FE000000
FE000000
FE000000
FE000000
FE000000
FE000000
FE000000
FE000000
FE000000
FE000000
FE000000
FE000000
FE000000
FE000000
FE000000
FE000000
FE000000
FE000000
FE000000
FE000000
FE000000
FE000000
FE000000
FE000000
FE000000
FE000000
FE000000
FE000000
FE000000
FE000000
FE000000
FE000000
FE000000
FE000000
FE000000
FE000000
FE000000
FE000000
FE000000
FE000000
FE000000
FE000000
FE000000
FE000000
FE000000
FE000000
FE000000
FE00007C
FE0000FE
FE0000FE
FE0000FE
FE0000FE
FE0000FE
FE0000FE
FE0000FE
FE0000FE
FE0000FE
FE0000FE
FE0000FE
FE0000FE
FE0000FE
FE0000FE
FE0000FE
FE0000FE
7E0001FE
7F0001FC
7F0001FC
7F8003FC
3F8007F8
1FF01FF8
1FFFFFF0
0FFFFFE0
07FFFFC0
01FFFF80
007FFC00
000F8000
001F8000
001FC000
001FF000
001FF000
001FF800
0001F800
0000FC00
0000FC00
00007C00
00007C00
00007C00
0000FC00
0000F800
00FFF800
00FFF000
00FFE000
007FC000
001F0000
ENDCHAR
STARTCHAR 00E8
ENCODING 232
SWIDTH 228 0
DWIDTH 37 0
BBX 36 139 0 -1
BITMAP
0018000000
003E000000
007F000000
007F800000
007FE00000
003FF00000
001FF80000
0007FE0000
0003FF0000
0001FF8000
00007FE000
00003FF000
00001FF800
000007FC00
000003FE00
000001FE00
000000FE00
0000003E00
0000000800
0000000000
0000000000
0000000000
0000000000
0000000000
0000000000
007FFFFFC0
00FFFFFFE0
01FFFFFFF0
01FFFFFFF0
01FFFFFFE0
01FFFFFFC0
01FC000000
01FC000000
01FC000000
01FC000000
01FC000000
01FC000000
01FC000000
01FC000000
01FC000000
01FC000000
01FC000000
01FC000000
01FC000000
01FC000000
01FC000000
01FC000000
01FC000000
01FC000000
01FC000000
01FC000000
01FC000000
01FC000000
01FC000000
01FC000000
01FC000000
01FC000000
01FC000000
01FC000000
01FC000000
01FC000000
01FC000000
01FC000000
01FC000000
01FC000000
01FC000000
01FC000000
01FC000000
01FC000000
01FC000000
01FC000000
01FC000000
01FC000000
01FC000000
01FC000000
01FC000000
01FC000000
01FC000000
01FC000000
01FC000000
01FC000000
01FC000000
01FC000000
01FC000000
01FC000000
01FC000000
01FC000000
01FC000000
7FFFFFFFC0
FFFFFFFFE0
FFFFFFFFF0
FFFFFFFFF0
FFFFFFFFE0
7FFFFFFFC0
01FC000000
01FC000000
01FC000000
01FC000000
01FC000000
01FC000000
01FC000000
01FC000000
01FC000000
01FC000000
01FC000000
01FC000000
01FC000000
01FC000000
01FC000000
01FC000000
01FC000000
01FC000000
01FC000000
01FC000000
01FC000000
01FC000000
01FC000000
01FC000000
01FC000000
01FC000000
01FC000000
01FC000000
01FC000000
01FC000000
01FC000000
01FC000000
01FC000000
01FC000000
01FC000000
01FC000000
01FC000000
01FC000000
01FC000000
01FFFFFFC0
01FFFFFFE0
01FFFFFFF0
01FFFFFFF0
00FFFFFFE0
007FFFFFC0
ENDCHAR
STARTCHAR 00E9
ENCODING 233
SWIDTH 228 0
DWIDTH 37 0
BBX 36 141 0 0
BITMAP
0000000F00
0000001F80
0000007F80
000000FF80
000001FF00
000007FE00
00000FFC00
00001FF800
00003FE000
0000FFC000
0001FF8000
0003FE0000
0007FC0000
000FF80000
001FE00000
001FC00000
001F800000
000E000000
0000000000
0000000000
0000000000
0000000000
0000000000
0000000000
0000000000
0000000000
0000000000
007FFFFFC0
00FFFFFFE0
01FFFFFFF0
01FFFFFFF0
01FFFFFFE0
01FFFFFFC0
01FC000000
01FC000000
01FC000000
01FC000000
01FC000000
01FC000000
01FC000000
01FC000000
01FC000000
01FC000000
01FC000000
01FC000000
01FC000000
01FC000000
01FC000000
01FC000000
01FC000000
01FC000000
01FC000000
01FC000000
01FC000000
01FC000000
01FC000000
01FC000000
01FC000000
01FC000000
01FC000000
01FC000000
01FC000000
01FC000000
01FC000000
01FC000000
01FC000000
01FC000000
01FC000000
01FC000000
01FC000000
01FC000000
01FC000000
01FC000000
01FC000000
01FC000000
01FC000000
01FC000000
01FC000000
01FC000000
01FC000000
01FC000000
01FC000000
01FC000000
01FC000000
01FC000000
01FC000000
01FC000000
01FC000000
01FC000000
01FC000000
7FFFFFFFC0
FFFFFFFFE0
FFFFFFFFF0
FFFFFFFFF0
FFFFFFFFE0
7FFFFFFFC0
01FC000000
01FC000000
01FC000000
01FC000000
01FC000000
01FC000000
01FC000000
01FC000000
01FC000000
01FC000000
01FC000000
01FC000000
01FC000000
01FC000000
01FC000000
01FC000000
01FC000000
01FC000000
01FC000000
01FC000000
01FC000000
01FC000000
01FC000000
01FC000000
01FC000000
01FC000000
01FC000000
01FC000000
01FC000000
01FC000000
01FC000000
01FC000000
01FC000000
01FC000000
01FC000000
01FC000000
01FC000000
01FC000000
01FC000000
01FFFFFFC0
01FFFFFFE0
01FFFFFFF0
01FFFFFFF0
00FFFFFFE0
007FFFFFC0
ENDCHAR
STARTCHAR 00EA
ENCODING 234
SWIDTH 228 0
DWIDTH 37 0
BBX 36 135 0 -1
BITMAP
00003E0000
0001FF8000
0003FFE000
000FFFF800
003FFFFE00
00FFFFFF00
01FFE3FFC0
03FF80FFC0
03FE003FC0
01F8000FC0
01C0000380
0000000000
0000000000
0000000000
0000000000
0000000000
0000000000
0000000000
0000000000
0000000000
0000000000
007FFFFFC0
00FFFFFFE0
01FFFFFFF0
01FFFFFFF0
01FFFFFFE0
01FFFFFFC0
01FC000000
01FC000000
01FC000000
01FC000000
01FC000000
01FC000000
01FC000000
01FC000000
01FC000000
01FC000000
01FC000000
01FC000000
01FC000000
01FC000000
01FC000000
01FC000000
01FC000000
01FC000000
01FC000000
01FC000000
01FC000000
01FC000000
01FC000000
01FC000000
01FC000000
01FC000000
01FC000000
01FC000000
01FC000000
01FC000000
01FC000000
01FC000000
01FC000000
01FC000000
01FC000000
01FC000000
01FC000000
01FC000000
01FC000000
01FC000000
01FC000000
01FC000000
01FC000000
01FC000000
01FC000000
01FC000000
01FC000000
01FC000000
01FC000000
01FC000000
01FC000000
01FC000000
01FC000000
01FC000000
01FC000000
01FC000000
01FC000000
7FFFFFFFC0
FFFFFFFFE0
FFFFFFFFF0
FFFFFFFFF0
FFFFFFFFE0
7FFFFFFFC0
01FC000000
01FC000000
01FC000000
01FC000000
01FC000000
01FC000000
01FC000000
01FC000000
01FC000000
01FC000000
01FC000000
01FC000000
01FC000000
01FC000000
01FC000000
01FC000000
01FC000000
01FC000000
01FC000000
01FC000000
01FC000000
01FC000000
01FC000000
01FC000000
01FC000000
01FC000000
01FC000000
01FC000000
01FC000000
01FC000000
01FC000000
01FC000000
01FC000000
01FC000000
01FC000000
01FC000000
01FC000000
01FC000000
01FC000000
01FFFFFFC0
01FFFFFFE0
01FFFFFFF0
01FFFFFFF0
00FFFFFFE0
007FFFFFC0
ENDCHAR
STARTCHAR 00EB
ENCODING 235
SWIDTH 228 0
DWIDTH 37 0
BBX 36 134 0 0
BITMAP
003F807F00
007FC0FF80
00FFC1FF80
00FFE1FFC0
00FFE1FFC0
00FFE1FFC0
00FFE1FFC0
00FFC1FF80
007F80FF00
000E000000
0000000000
0000000000
0000000000
0000000000
0000000000
0000000000
0000000000
0000000000
0000000000
0000000000
007FFFFFC0
00FFFFFFE0
01FFFFFFF0
01FFFFFFF0
01FFFFFFE0
01FFFFFFC0
01FC000000
01FC000000
01FC000000
01FC000000
01FC000000
01FC000000
01FC000000
01FC000000
01FC000000
01FC000000
01FC000000
01FC000000
01FC000000
01FC000000
01FC000000
01FC000000
01FC000000
01FC000000
01FC000000
01FC000000
01FC000000
01FC000000
01FC000000
01FC000000
01FC000000
01FC000000
01FC000000
01FC000000
01FC000000
01FC000000
01FC000000
01FC000000
01FC000000
01FC000000
01FC000000
01FC000000
01FC000000
01FC000000
01FC000000
01FC000000
01FC000000
01FC000000
01FC000000
01FC000000
01FC000000
01FC000000
01FC000000
01FC000000
01FC000000
01FC000000
01FC000000
01FC000000
01FC000000
01FC000000
01FC000000
01FC000000
01FC000000
7FFFFFFFC0
FFFFFFFFE0
FFFFFFFFF0
FFFFFFFFF0
FFFFFFFFE0
7FFFFFFFC0
01FC000000
01FC000000
01FC000000
01FC000000
01FC000000
01FC000000
01FC000000
01FC000000
01FC000000
01FC000000
01FC000000
01FC000000
01FC000000
01FC000000
01FC000000
01FC000000
01FC000000
01FC000000
01FC000000
01FC000000
01FC000000
01FC000000
01FC000000
01FC000000
01FC000000
01FC000000
01FC000000
01FC000000
01FC000000
01FC000000
01FC000000
01FC000000
01FC000000
01FC000000
01FC000000
01FC000000
01FC000000
01FC000000
01FC000000
01FFFFFFC0
01FFFFFFE0
01FFFFFFF0
01FFFFFFF0
00FFFFFFE0
007FFFFFC0
ENDCHAR
ENDFONT
